<svg width="55" height="70" viewBox="0 0 55 70" fill="none" xmlns="http://www.w3.org/2000/svg">
<g clip-path="url(#clip0_4765_7527)">
<path d="M33.7361 6.98962L32.4871 5.57905C31.7972 4.80068 31.0612 4.17746 30.0866 3.75942C29.7545 3.61708 30.0058 2.66816 30.2943 2.79126C32.1486 3.75429 33.6015 5.44313 34.7428 7.17043C34.3914 7.55257 33.9875 7.27173 33.7374 6.9909L33.7361 6.98962Z" fill="#1A1A1A"/>
<path d="M52.1444 48.8737L51.1134 48.0389C49.9926 47.09 49.0629 45.9179 47.7755 45.1626C47.5408 45.0254 47.5126 45.6063 47.478 45.7204L46.4521 46.8142L44.4491 49.7303C44.117 50.2137 43.6258 50.8613 43.1629 51.1011C43.1193 50.9062 43.1552 50.6997 43.2027 50.4484L44.2926 44.6792C43.9413 43.5956 43.1911 42.8441 42.4615 42.0337L40.8637 40.2577L38.9453 38.5176C39.0287 38.3662 39.1236 38.2406 39.3775 38.2162L41.519 38.0085C42.4089 37.9213 43.3476 37.843 44.1054 37.5148C44.249 37.4532 44.5735 37.5789 44.7004 37.4712C44.853 37.3417 44.9595 37.0942 45.0018 36.8531L46.1995 30.1003C46.229 29.9349 46.1379 29.7643 46.0828 29.6836C46.4752 29.0565 46.8932 30.1054 47.2753 31.198L48.509 34.7295L49.3181 37.0121C49.74 36.8595 50.0619 36.9916 50.4222 36.9505L53.5242 36.5941C53.8396 36.5581 54.0794 36.6787 54.223 36.9069C54.3205 37.0608 54.3564 37.3237 54.223 37.5468L52.5586 40.3577C52.1162 41.104 51.4634 41.7695 51.148 42.5813C50.939 43.1186 52.2431 46.0231 52.5085 48.2953C52.5509 48.6544 52.2482 48.7288 52.1444 48.8762V48.8737Z" fill="#C0E200"/>
<path d="M38.9435 38.5211L40.8619 40.2612L42.4597 42.0373C43.1893 42.849 43.9395 43.5992 44.2908 44.6827L43.2008 50.4519C43.1534 50.7033 43.1188 50.9085 43.1611 51.1047C43.0444 51.1649 42.7251 51.3663 42.6738 51.2188C42.5481 49.5428 42.8636 47.9681 43.1919 46.3203C43.3278 45.6342 43.5791 44.7994 43.0675 44.2108L40.1438 40.8562L38.5396 39.1174C38.3857 38.9507 38.3857 38.6763 38.5332 38.575C38.6345 38.5057 38.8525 38.5455 38.9422 38.5186L38.9435 38.5211Z" fill="#1A1A1A"/>
<path d="M46.0821 29.6797C46.1372 29.7605 46.2283 29.931 46.1988 30.0964L45.0011 36.8492C44.9588 37.0903 44.8523 37.3378 44.6997 37.4673C44.5728 37.575 44.2483 37.4493 44.1047 37.5109C44.0021 37.107 44.1163 36.7197 44.2163 36.2927L45.6923 29.9759C45.7435 29.7553 45.9321 29.6899 46.0821 29.6797Z" fill="#1A1A1A"/>
<path d="M52.1452 48.8803C51.9914 49.0983 51.9208 49.2163 51.6285 49.1688C51.4361 49.1381 51.2463 49.0842 51.0783 48.9278L49.0574 47.0414L47.4775 45.7271C47.5134 45.6142 47.5417 45.032 47.775 45.1692C49.0625 45.9258 49.9922 47.0966 51.1129 48.0455L52.1439 48.8803H52.1452Z" fill="#1A1A1A"/>
<path d="M26.9062 24.9157L29.8891 29.0369C30.2058 29.4739 33.7427 30.55 35.0447 30.7474C35.4831 30.8132 35.919 30.4032 36.0441 29.965L36.881 27.0515C37.0399 24.9851 36.7933 22.9856 36.6647 20.9297C36.6355 20.4739 36.4076 19.8418 36.1551 19.5364C35.7694 19.3778 35.289 19.749 34.9957 19.9264C34.5235 20.2107 34.1225 20.3399 33.6433 20.5326C33.2997 20.6701 32.9829 20.9379 32.6089 20.992C32.132 21.0613 32.1122 21.4102 32.1075 21.7908C32.0864 23.2722 32.0105 24.6643 32.6241 26.08C33.7076 25.3105 34.5118 24.9016 34.0758 23.7539C33.7088 23.983 33.3815 23.9971 33.2413 23.7985C33.08 23.5694 33.0297 23.1782 33.2576 22.928C33.9016 22.222 34.645 21.4266 35.5579 21.0237C36.5432 20.589 36.7068 24.2214 36.2966 26.0224C36.1201 26.7966 35.1862 27.4744 34.5667 27.9549L33.1501 29.0545C32.2676 29.2155 30.6465 28.9911 30.1088 28.0689C28.8874 25.9731 28.3439 23.6364 27.7314 21.3303C27.5058 20.4797 27.4369 19.6304 27.4333 18.7975C28.4596 17.477 29.8704 16.8673 31.3945 16.3422C33.1968 15.7219 34.9723 15.0205 36.9277 15.2061C37.3415 15.2449 38.0182 15.5398 38.2742 15.8041C38.8469 16.3938 39.048 17.2315 39.1415 18.0103L39.4138 20.2871C39.4419 23.8631 39.1473 27.3722 38.5992 30.879L38.1982 32.4403C38.0077 33.1804 37.2141 34.5878 36.4111 34.9261C34.9653 35.5346 33.4551 35.8295 32.1519 35.0683C30.5214 34.1155 28.9809 33.1299 27.5631 31.8764C27.3784 31.7131 27.0593 31.4288 26.9354 31.2243L24.745 27.5849L22.9077 23.7222C22.7954 23.4849 22.0123 23.3545 21.8908 23.5777L21.3064 24.6455C21.7377 25.5642 22.2262 26.4629 23.0035 27.1173C23.1578 27.2477 23.5447 27.2618 23.6066 27.4345C23.6604 27.5849 23.6487 27.969 23.4091 28.0841C22.7861 28.3849 21.6652 28.2815 21.2304 27.6319C20.6273 26.7308 20.2871 25.7263 19.5964 24.9005C19.1125 24.3225 18.922 23.6317 19.1896 22.8928C19.4853 22.0775 19.8325 21.0213 20.681 20.6055C23.09 20.3446 23.3401 20.4833 24.8222 22.1867C25.5901 23.069 26.1967 23.9407 26.9039 24.9169L26.9062 24.9157Z" fill="#1A1A1A"/>
<path d="M6.04669 45.037C6.49807 44.7331 7.38416 45.5576 7.16616 46.0449L5.70559 49.3085C5.14521 49.061 4.70793 49.1533 4.19243 49.0481L2.51643 48.7083C1.57519 48.5173 0.58395 46.5104 0.0492171 45.2614C-0.0572165 43.7662 0.0184412 42.2107 0.550609 40.7797L1.49569 38.2381L2.29586 35.5144C2.69339 34.9784 3.53588 34.4154 4.16294 34.2436L6.84558 33.5075L7.91761 33.5986C9.21149 33.3921 10.4041 33.3473 11.6902 33.4075C12.0724 33.4255 12.4673 33.3934 12.575 33.9153L12.8328 35.1553C12.2865 35.6862 11.5299 35.6298 10.7939 35.5349L9.28073 35.34C8.15869 34.8668 6.97638 34.8604 5.92743 35.5388C5.66199 35.7106 5.12597 35.7542 4.94003 36.0914C4.35144 37.1571 3.71797 38.3304 3.58204 39.5858C3.36533 41.5811 3.71284 43.5187 3.98598 45.5461C4.45531 45.8115 4.99774 45.941 5.53247 45.7513C5.74919 45.6743 5.78638 45.2114 6.04925 45.0344L6.04669 45.037Z" fill="#1A1A1A"/>
<path d="M8.93186 42.0803C8.94469 41.6186 8.84723 41.2224 8.85236 40.7556C8.8639 39.5797 8.46125 38.491 7.65851 37.5665C6.92373 38.8462 5.90812 41.275 6.49287 41.4891C6.66342 41.552 6.90578 41.5404 7.03273 41.4609C7.15968 41.3814 7.22123 40.998 7.0417 40.8056C6.79678 40.5441 6.94425 39.6323 7.37255 39.7965C8.15733 40.0965 8.73567 41.2775 8.60615 42.0675C8.4574 42.9741 7.50976 43.7127 6.66855 44.1743C5.7286 44.3616 5.02588 43.5396 4.58732 42.8817C4.0295 42.0431 3.80638 41.2186 4.08977 40.2594C4.34624 39.3874 4.37317 38.4513 4.82968 37.6473C5.40929 36.6291 6.07867 35.5147 7.32125 35.2429C7.99448 35.0954 9.14217 35.6455 9.40633 36.2995L11.3401 41.1083C11.5453 41.6199 11.2708 42.1559 10.899 42.4534C10.5027 42.7715 10.304 43.2729 9.82309 43.487C9.55123 43.6088 9.02676 43.3216 8.90493 43.0395L8.93058 42.0803H8.93186Z" fill="#1A1A1A"/>
<path d="M18.4871 36.0139C18.5769 36.3255 18.7538 36.5768 18.6525 36.859C18.5807 37.0603 18.3614 37.3604 18.0793 37.4758L15.9789 38.3259C15.4364 38.5452 14.5196 38.6209 14.3157 37.9297C13.8656 36.4076 13.0821 33.094 12.4576 32.9337C11.9921 32.8132 11.2727 33.4633 10.8534 33.0222C10.3161 32.4567 11.719 31.5039 13.3655 31.268C14.3054 31.1333 15.2633 31.3 16.2046 31.041C16.3841 31.3462 16.6034 31.7437 16.8868 31.8425C18.2537 31.6822 19.5296 31.4873 20.8864 31.4462L21.7417 32.2605C21.6763 33.0697 20.9902 33.3915 20.2542 33.4608L17.8216 33.689L18.4897 36.0139H18.4871ZM17.4638 36.0857L15.9289 32.7773C15.666 32.2092 14.9056 31.9528 14.3426 32.031C14.6106 32.5195 14.8017 32.8978 14.9645 33.3415L16.1622 36.6243C16.6457 36.5025 17.0663 36.5102 17.4651 36.0857H17.4638Z" fill="#1A1A1A"/>
<path d="M20.9524 40.0352L20.9178 40.3301C20.8319 40.2865 20.687 40.3211 20.66 40.275C20.6305 40.2262 20.6588 40.0967 20.728 40.0647C20.778 40.0416 20.8806 40.0441 20.9537 40.0364L20.9524 40.0352Z" fill="#1A1A1A"/>
<path d="M25.5645 34.5047L25.2695 34.4227L25.29 33.9033C25.6414 34.0123 25.4965 34.3111 25.5645 34.5047Z" fill="#1A1A1A"/>
<path d="M20.949 40.0358C20.8759 40.0448 20.7733 40.0409 20.7233 40.064C20.6541 40.0973 20.6259 40.2256 20.6554 40.2743C20.6823 40.3205 20.8285 40.2871 20.9131 40.3294L29.1854 44.5252C30.3088 45.0048 31.3141 45.4524 32.5644 45.4652C34.4353 44.842 36.2767 44.22 37.9976 43.2775L38.1746 40.9244C38.19 40.7116 38.3182 40.4974 38.4298 40.4141C38.6016 40.2858 38.9068 40.3346 39.0812 40.5154L40.6546 42.1529L42.0524 43.7161C42.3524 44.0508 42.8 44.6124 42.9026 45.0972C42.7564 47.2938 42.4691 49.3968 42.0819 51.5524C42.046 51.7537 41.9703 51.9987 41.9998 52.1384C42.0267 52.2654 42.3563 52.5193 42.4499 52.4231L45.4018 49.4161C45.8673 48.9429 46.27 48.6197 46.6931 47.9093L47.5869 50.0303C48.0345 51.8858 48.5153 55.4738 48.1332 56.9408C47.7254 58.5052 46.3213 59.5285 45.1518 60.4787L43.0808 61.8162C41.0868 63.105 39.0248 64.0949 36.8602 65.0721C34.9598 65.9312 33.1094 66.4365 31.0615 66.866C28.066 67.4944 24.9435 67.2995 22.2493 66.1838C21.2709 66.0466 21.1965 67.1148 20.9336 67.6662C20.127 69.3538 16.3018 69.8705 14.0757 69.9783C11.0815 70.1232 7.17035 69.5487 4.91985 67.5277L4.60697 65.7684C4.55182 63.4409 4.35819 61.1314 4.64672 58.822L4.91216 56.6959C5.2289 54.1645 5.8239 51.7294 6.58176 49.2788C6.96518 48.0388 7.67046 46.8706 8.30906 45.7409C9.06692 44.4008 10.4736 43.6648 11.6919 42.8454C12.4856 42.3119 13.1665 41.7733 14.0821 41.4566C14.5694 41.2886 14.9721 40.9514 15.4016 40.6834L20.1463 37.7327L22.702 36.0747C23.2649 35.0321 23.27 33.6895 23.4791 32.5341L24.1548 28.8115C24.8589 29.7515 25.3141 30.726 25.7642 31.7224C26.3515 33.024 27.1619 34.0896 27.9313 35.2809C28.9585 36.8723 30.0395 38.3649 31.2641 39.7921C32.1899 40.8719 33.9544 41.9952 34.9906 41.4117C35.1688 39.6613 35.2547 37.9494 35.0611 36.1657C35.4689 35.9669 35.8625 35.8951 36.3024 35.8438C36.8051 36.4453 37.4693 38.0289 37.4655 38.2431L37.4013 42.1619C37.3885 42.9056 36.3691 43.357 35.7548 43.6648C34.3827 44.3547 32.9799 44.7625 31.4462 44.6714C28.8969 43.7084 26.5733 42.4722 24.1177 41.3617L22.7622 40.7488C22.1826 40.4859 21.7274 40.0909 21.5479 39.4587C21.2452 39.6049 21.0914 39.846 20.9477 40.0371L20.949 40.0358ZM25.2692 34.4179L25.0679 38.7714L27.4158 39.8011L25.5641 34.4987C25.4962 34.3063 25.6411 34.0063 25.2897 33.8973L25.2692 34.4166V34.4179ZM24.4639 54.3197C24.5011 53.1412 24.6191 52.0166 24.3767 50.8869C23.8253 48.3171 23.0084 45.0394 21.2298 43.2096C20.263 43.4686 19.441 43.8058 18.6126 44.3521C19.9988 46.3705 20.9041 48.3863 21.5543 50.6471C22.5147 53.9863 22.8853 57.2306 22.5866 60.8647C24.3062 58.7643 24.3844 56.86 24.4652 54.3184L24.4639 54.3197ZM12.1266 60.4903C13.3409 59.994 14.0667 58.6989 13.9962 57.4422L13.8051 54.0273C13.7026 52.2103 12.8498 50.0752 11.0289 49.87C9.83632 49.534 8.63093 49.4879 7.66918 50.2727C7.20882 51.319 6.93825 52.4116 6.74205 53.5413L6.14833 58.9399C6.11499 59.2477 6.19706 59.8004 6.47019 59.9876C8.12312 61.1225 10.1813 61.2866 12.1291 60.4903H12.1266ZM6.53688 66.2544C8.62323 67.2059 10.7622 67.6765 12.9614 67.9201C14.2399 68.0612 15.3709 67.8316 16.5955 67.5854C17.8868 67.3264 19.0383 66.7237 20.0283 65.8697L20.1694 64.3347C16.4198 66.6968 12.3074 67.7778 8.30393 66.0107C7.62173 65.7094 6.97543 65.4927 6.35735 64.8746C6.25348 65.2811 6.21373 65.9402 6.53688 66.2531V66.2544Z" fill="#1A1A1A"/>
<path d="M9.23722 57.1961C8.72685 57.0653 8.40242 56.5177 8.01772 56.133C8.35369 55.0943 8.5127 54.0274 9.16156 53.1439C9.47445 52.7182 10.4965 52.6464 10.9632 52.822C11.8109 53.1426 12.5726 53.6735 13.0958 54.2916C13.5484 54.825 13.51 55.2303 13.3471 55.7932C13.0983 56.6536 12.9444 57.541 12.4892 58.3168C12.0006 59.1478 11.0799 59.3414 10.3618 59.8223C9.37571 60.4814 8.4255 60.5827 7.44067 59.8146C7.02904 59.4927 6.69307 59.2363 6.71487 58.5874C6.80207 55.9676 7.16112 53.3978 7.99464 50.8729C8.13954 50.4343 9.04872 50.1022 9.41803 50.2843C10.3259 50.7344 11.0299 51.3256 11.7147 52.0937C10.9145 52.2181 10.5516 51.868 9.81812 51.7179L8.2447 53.4953C7.83178 54.3852 7.65739 55.5829 7.64328 56.5806C7.84204 57.0781 8.61401 57.9103 9.20516 57.9155C10.0041 57.9219 10.8504 57.2051 11.3582 56.6177C11.6929 56.2305 11.3018 55.0751 10.8517 54.9328C10.2618 54.7481 9.41546 55.6278 9.65654 56.0497C9.87454 56.4305 10.4824 55.924 10.7991 55.7765C10.9004 56.5434 9.96302 57.2166 9.23722 57.1974V57.1961Z" fill="#1A1A1A"/>
<path d="M31.1991 5.88396C29.7877 6.0687 28.5586 6.63029 27.3184 7.2436C25.5524 8.11678 23.8738 9.01827 22.2136 10.0651C20.2321 11.3151 19.8417 13.3829 19.4636 15.5726C19.3429 16.2734 19.253 16.9975 18.7444 17.5653C18.3589 17.1256 18.2653 16.6367 18.1926 16.1379C17.9118 14.2056 17.4561 10.5183 18.3453 9.56262L19.8872 7.90248C21.604 6.41723 23.4661 5.26326 25.4613 4.20782L28.6744 2.74966C29.8037 2.23733 31.2533 2.02673 32.4787 2.41221C33.4676 2.72256 34.124 3.70657 34.7866 4.45905C36.0268 5.87042 37.1241 7.34459 37.7891 9.08847C37.9074 9.39759 38.0133 9.75228 37.9037 9.99859C37.7941 10.2449 37.6069 10.5553 37.2337 10.5676C36.0588 10.6057 34.8346 10.341 33.6536 10.6267C30.4109 11.4136 27.4133 12.9038 24.7617 14.8805C23.6656 15.697 22.7161 16.4716 21.8885 17.5345C21.6373 17.8571 20.3084 17.1773 23.242 14.5677C26.3431 11.8102 30.05 9.85204 34.1597 8.75226C33.2102 7.72883 32.3173 6.8298 31.1991 5.88273V5.88396Z" fill="#1A1A1A"/>
<path d="M17.7532 21.2296C17.1152 21.4489 16.7531 21.8787 16.5623 22.4489L15.6534 25.1595C16.8591 25.3418 17.88 24.9034 17.912 25.3098C17.9428 25.6916 15.4699 26.6362 14.6496 26.444C13.7075 26.2224 13.5449 24.731 13.8196 23.9846C14.3528 22.5339 14.6804 21.0683 15.678 19.8934C16.3307 19.1249 17.6152 19.0362 18.5709 18.8626C20.1769 18.5695 21.5907 18.0264 23.1363 17.6236C24.3358 17.3108 25.3001 16.8059 26.1585 15.8748C27.2571 14.6827 28.4172 13.4548 29.8778 12.6691C32.4124 11.307 35.6218 12.2996 37.7832 11.8612C40.7081 11.2676 42.2808 10.0102 44.4619 9.38454C45.1097 9.19857 45.7243 9.38454 45.9275 10.1222C46.0876 10.7023 46.1849 11.4055 46.0211 12.0619C45.723 13.2615 45.3018 14.594 44.4558 15.5078C44.0875 15.9056 40.9803 17.2911 40.5148 17.0879C40.4089 17.0424 40.2106 16.8638 40.2623 16.6569C42.6983 15.3428 43.7254 14.36 44.3511 11.5176C43.3732 11.5065 42.8375 12.0447 42.1281 12.3834L39.8497 13.4684C36.4088 15.1063 34.5885 14.4462 31.5959 14.4659C30.0576 14.477 27.2546 17.9599 22.6043 19.5597L17.7532 21.2284V21.2296Z" fill="#1A1A1A"/>
<path d="M29.0832 8.60356C28.8098 8.7846 29.0229 9.10111 29.2704 9.14175C29.4342 9.16884 29.6411 9.13929 29.9736 8.96933C30.1818 9.37451 29.8123 9.8425 29.4699 10.0211C29.0389 10.2465 28.5487 10.0051 28.2285 9.69964C27.7482 9.24274 27.6534 8.64543 28.029 8.08754C28.2519 7.75625 28.5512 7.54073 28.9391 7.61093C29.2359 7.66388 29.6657 7.87694 29.667 8.30552C29.667 8.42375 29.3 8.457 29.082 8.60233L29.0832 8.60356Z" fill="#1A1A1A"/>
<path d="M22.5404 13.5011C22.5305 13.8336 22.3138 14.2844 21.9615 14.3213C21.411 14.378 20.9763 14.1674 20.7595 13.7536C20.5428 13.3398 20.7361 12.8878 21.0551 12.5996C21.4221 12.2696 22.0933 12.2573 22.3101 12.7622C22.3507 12.857 22.1303 13.1378 22.1586 13.2363C22.1894 13.3398 22.3409 13.458 22.5404 13.5011ZM21.7386 13.1575L21.6709 13.2253L21.7386 13.293L21.8064 13.2253L21.7386 13.1575Z" fill="#1A1A1A"/>
</g>
<defs>
<clipPath id="clip0_4765_7527">
<rect width="54.3042" height="70" fill="white"/>
</clipPath>
</defs>
</svg>
