<svg width="24" height="24" viewBox="0 0 24 24" fill="none" xmlns="http://www.w3.org/2000/svg">
<g clip-path="url(#clip0_4302_2258)">
<path d="M14.8422 4.92937C15.8056 5.11732 16.6909 5.58844 17.3849 6.28245C18.0789 6.97645 18.55 7.86176 18.7379 8.82506M14.8422 0.984375C16.8436 1.20671 18.7099 2.10295 20.1347 3.52595C21.5595 4.94894 22.4581 6.81411 22.6829 8.8152M21.6967 16.6855V19.6442C21.6978 19.9189 21.6415 20.1908 21.5315 20.4424C21.4215 20.6941 21.2601 20.92 21.0577 21.1057C20.8553 21.2914 20.6163 21.4328 20.3561 21.5208C20.0959 21.6088 19.8202 21.6414 19.5467 21.6167C16.5118 21.287 13.5966 20.2499 11.0353 18.5889C8.65237 17.0747 6.63205 15.0544 5.11782 12.6714C3.45104 10.0985 2.41377 7.16914 2.09004 4.12065C2.06539 3.84792 2.0978 3.57304 2.18521 3.31353C2.27262 3.05401 2.4131 2.81553 2.59772 2.61329C2.78235 2.41104 3.00706 2.24945 3.25755 2.1388C3.50804 2.02816 3.77883 1.97088 4.05267 1.97062H7.01142C7.49006 1.96591 7.95407 2.13541 8.31698 2.44751C8.67989 2.75961 8.91693 3.19303 8.98392 3.66697C9.10881 4.61384 9.3404 5.54354 9.6743 6.43834C9.80699 6.79134 9.83571 7.17498 9.75705 7.54381C9.67839 7.91263 9.49565 8.25117 9.23049 8.51932L7.97795 9.77186C9.38193 12.241 11.4263 14.2854 13.8954 15.6894L15.148 14.4368C15.4161 14.1717 15.7547 13.9889 16.1235 13.9103C16.4923 13.8316 16.876 13.8603 17.229 13.993C18.1238 14.3269 19.0535 14.5585 20.0003 14.6834C20.4794 14.751 20.917 14.9923 21.2297 15.3614C21.5425 15.7306 21.7087 16.2018 21.6967 16.6855Z" stroke="#2F3D44" stroke-width="1.578" stroke-linecap="round" stroke-linejoin="round"/>
</g>
<defs>
<clipPath id="clip0_4302_2258">
<rect width="23.67" height="23.67" fill="white"/>
</clipPath>
</defs>
</svg>
