<?xml version="1.0" encoding="UTF-8"?>
<svg version="1.1" xmlns="http://www.w3.org/2000/svg" width="526" height="446">
<path d="M0 0 C173.58 0 347.16 0 526 0 C526 147.18 526 294.36 526 446 C352.42 446 178.84 446 0 446 C0 298.82 0 151.64 0 0 Z " fill="#FEFEFE" transform="translate(0,0)"/>
<path d="M0 0 C173.58 0 347.16 0 526 0 C526 147.18 526 294.36 526 446 C352.42 446 178.84 446 0 446 C0 298.82 0 151.64 0 0 Z M208 43 C207.17854492 43.19867676 206.35708984 43.39735352 205.51074219 43.60205078 C173.60577517 51.56338367 144.15311891 66.3017593 120.57373047 89.45703125 C118.94994963 91.04907204 117.30608971 92.61839903 115.66015625 94.1875 C91.73631046 117.24164077 76.76334481 146.2078679 67.8125 177.9375 C67.56226074 178.80656982 67.31202148 179.67563965 67.05419922 180.57104492 C63.42136888 193.8705445 62.6482396 207.10454994 62.68432617 220.80541992 C62.68748388 223.29976297 62.66392523 225.79291175 62.63867188 228.28710938 C62.45230962 276.15423972 84.6158901 321.21382196 117.625 355 C129.25953303 366.60714629 142.59638586 376.13904449 157 384 C157.94045166 384.51554443 157.94045166 384.51554443 158.89990234 385.04150391 C192.83256853 403.38976872 232.64919715 411.4855636 270.89013672 405.20141602 C276.68109226 404.26744296 282.39761424 403.72305545 288.25292969 403.38037109 C341.0455709 400.24456759 387.64207494 376.99509592 423 338 C430.95588269 328.66277087 437.95555751 318.6712119 444 308 C444.50007568 307.12311523 444.50007568 307.12311523 445.01025391 306.22851562 C460.05762415 279.65024176 466.66152636 251.8324663 466.5 221.375 C466.49790527 220.4610144 466.49581055 219.54702881 466.49365234 218.60534668 C466.42295014 203.58047274 465.36820232 189.47112324 461 175 C460.71592285 174.05866211 460.4318457 173.11732422 460.13916016 172.14746094 C454.49929158 154.15490461 446.08355473 137.26642883 435 122 C434.26523437 120.98035156 433.53046875 119.96070312 432.7734375 118.91015625 C409.2597625 86.99734983 376.69582197 63.25924296 339 51 C338.25814453 50.75217773 337.51628906 50.50435547 336.75195312 50.24902344 C316.54759777 43.59395618 295.94245743 41.8748524 274.77734375 41.2109375 C271.78494719 41.1085723 268.86982216 40.88390592 265.90234375 40.4921875 C247.27141029 38.27630822 226.23245592 38.54397816 208 43 Z " fill="#FEFEFE" transform="translate(0,0)"/>
<path d="M0 0 C3.10445395 0.35946309 6.20856775 0.42824297 9.33056641 0.52563477 C39.60183506 1.50527844 68.84695478 6.27215256 96.04101562 20.23632812 C96.77964844 20.60983398 97.51828125 20.98333984 98.27929688 21.36816406 C122.50977401 33.76203248 144.30717972 51.79102386 161.04101562 73.23632812 C161.47317383 73.78675781 161.90533203 74.3371875 162.35058594 74.90429688 C185.39768444 104.48168356 198.69841617 139.84561781 198.43212891 177.41943359 C198.41606902 180.10240819 198.43206758 182.78386788 198.45117188 185.46679688 C198.47181268 201.09188885 196.89309693 216.42994457 191.85351562 231.29882812 C191.5530835 232.21019531 191.25265137 233.1215625 190.94311523 234.06054688 C178.54235431 270.71090486 154.20785224 305.24690999 122.04101562 327.23632812 C121.3573291 327.70490234 120.67364258 328.17347656 119.96923828 328.65625 C107.90853585 336.81160737 95.36322594 343.39473662 82.04101562 349.23632812 C81.04400635 349.68830566 81.04400635 349.68830566 80.02685547 350.14941406 C60.43459567 358.9341136 38.33682545 361.55507617 17.11523438 362.80273438 C11.45703532 363.15341601 5.94326981 363.94389947 0.35351562 364.86132812 C-16.63224134 367.52914574 -34.00635533 366.94422304 -50.95898438 364.23632812 C-52.07055908 364.0589209 -52.07055908 364.0589209 -53.20458984 363.87792969 C-72.83108563 360.57674722 -91.53499571 353.78605986 -108.95898438 344.23632812 C-110.70501953 343.3159375 -110.70501953 343.3159375 -112.48632812 342.37695312 C-126.78406467 334.59280859 -139.28007127 324.51482135 -150.95898438 313.23632812 C-151.82007813 312.42679687 -152.68117187 311.61726563 -153.56835938 310.78320312 C-178.83223895 286.46083459 -197.02968511 250.64022379 -202.95898438 216.23632812 C-203.13413574 215.27235107 -203.30928711 214.30837402 -203.48974609 213.31518555 C-205.02637375 203.95999492 -205.26714264 194.80379553 -205.21972656 185.34155273 C-205.20901291 182.80558289 -205.21968211 180.27032343 -205.23242188 177.734375 C-205.24637465 163.83157859 -204.01281514 150.59959016 -200.14648438 137.17382812 C-199.88005127 136.23047607 -199.61361816 135.28712402 -199.33911133 134.31518555 C-185.7143136 86.78502376 -155.00542321 46.83136763 -111.95898438 22.23632812 C-77.65289872 3.33331173 -39.02376411 -5.1512851 0 0 Z M-150.73779297 66.16259766 C-178.3266913 97.31390753 -194.14844612 136.22435276 -194.14428711 177.78955078 C-194.14645443 180.20298427 -194.16460457 182.61594504 -194.18359375 185.02929688 C-194.24059338 200.59865221 -192.94198415 215.38164426 -187.95898438 230.23632812 C-187.62519775 231.26717529 -187.62519775 231.26717529 -187.28466797 232.31884766 C-172.35221296 277.98685074 -139.88590345 315.38900977 -97.11083984 337.17773438 C-82.98222693 344.2144387 -68.43292124 349.15336044 -52.95898438 352.23632812 C-52.07452637 352.41728027 -51.19006836 352.59823242 -50.27880859 352.78466797 C-42.26586459 354.28734542 -34.47323496 354.5457007 -26.33398438 354.48632812 C-24.36026855 354.47835205 -24.36026855 354.47835205 -22.34667969 354.47021484 C5.17085772 354.20308712 31.33078493 348.41922739 56.04101562 336.23632812 C56.76804687 335.8816748 57.49507812 335.52702148 58.24414062 335.16162109 C74.21940576 327.2908289 87.89360147 317.20012689 101.04101562 305.23632812 C101.55905762 304.76501465 102.07709961 304.29370117 102.61083984 303.80810547 C134.41520212 274.4353006 154.98862497 230.11844261 157.33398438 186.89257812 C158.71830288 141.76792728 141.22004467 98.08684202 110.72851562 65.17382812 C108.84593215 63.18131059 106.9455822 61.20801599 105.04101562 59.23632812 C104.14189453 58.25986328 104.14189453 58.25986328 103.22460938 57.26367188 C74.70100598 27.02436301 29.91216086 8.75465101 -11.14990234 7.10839844 C-65.44020725 5.87325189 -113.74303078 26.10101741 -150.73779297 66.16259766 Z " fill="#070707" transform="translate(267.958984375,40.763671875)"/>
<path d="M0 0 C4.70415474 2.29470963 5.80985109 8.16923486 7.51739502 12.88989258 C8.49982156 15.76204434 9.44721109 18.6435114 10.3828125 21.53125 C10.89991287 23.11153992 10.89991287 23.11153992 11.42745972 24.72375488 C12.15075574 26.93828377 12.87167762 29.15358938 13.59033203 31.36962891 C14.68495566 34.7421609 15.78919714 38.11143395 16.89453125 41.48046875 C17.59953588 43.64304097 18.30398181 45.80579543 19.0078125 47.96875 C19.33492218 48.96588013 19.66203186 49.96301025 19.99905396 50.99035645 C21.84456192 56.70392476 23.35672141 62.36719322 24.5625 68.25 C25.4328035 68.24555878 26.30310699 68.24111755 27.19978333 68.23654175 C35.3957292 68.19649189 43.59164228 68.16602928 51.78766346 68.14637566 C56.00146975 68.13593192 60.21519527 68.12176201 64.42895508 68.09912109 C68.49435407 68.07741367 72.55967532 68.06543581 76.62512779 68.06024551 C78.17729606 68.05654597 79.72946 68.04932181 81.28159523 68.03853989 C83.45320506 68.02405274 85.62449231 68.02202087 87.79614258 68.02294922 C89.03302322 68.018508 90.26990387 68.01406677 91.54426575 68.00949097 C94.5625 68.25 94.5625 68.25 97.5625 70.25 C98.0859375 73.08984375 98.0859375 73.08984375 97.5625 76.25 C95.3515625 78.56640625 95.3515625 78.56640625 92.1875 80.8125 C91.6102417 81.23104248 91.0329834 81.64958496 90.43823242 82.08081055 C89.16885121 82.99791051 87.89302754 83.9061413 86.61181641 84.80664062 C84.50063286 86.2935738 82.41084644 87.80695205 80.32421875 89.328125 C76.54386243 92.07991269 72.74959564 94.81169402 68.95019531 97.53710938 C64.8797899 100.45714663 60.81429078 103.3839608 56.75 106.3125 C56.00339111 106.8485083 55.25678223 107.3845166 54.48754883 107.93676758 C51.48213178 110.10178288 48.53960293 112.2688072 45.67578125 114.62109375 C43.5625 116.25 43.5625 116.25 41.5625 116.25 C44.27029144 125.80515437 47.18540641 135.271189 50.33203125 144.69140625 C50.66049042 145.67845551 50.98894958 146.66550476 51.32736206 147.6824646 C52.68742376 151.76636064 54.04927617 155.84951994 55.4284668 159.92700195 C56.44885922 162.9491257 57.45409857 165.97595079 58.45703125 169.00390625 C58.76945267 169.91547989 59.08187408 170.82705353 59.40376282 171.76625061 C61.17037471 177.14666145 61.98753793 181.5813447 61.5625 187.25 C60.5625 188.25 60.5625 188.25 58.015625 188.66796875 C53.04786893 188.06666796 50.20732387 185.56688421 46.3125 182.5625 C44.70340483 181.36030246 43.0940218 180.15849011 41.484375 178.95703125 C40.66646484 178.33908691 39.84855469 177.72114258 39.00585938 177.08447266 C35.23139654 174.25060837 31.39723573 171.50144608 27.5625 168.75 C22.86553372 165.37809768 18.19236185 161.98197222 13.5703125 158.5078125 C12.34441406 157.59612305 12.34441406 157.59612305 11.09375 156.66601562 C9.52092253 155.49533155 7.95543301 154.31470641 6.3984375 153.12304688 C5.69203125 152.60033203 4.985625 152.07761719 4.2578125 151.5390625 C3.63922363 151.07193848 3.02063477 150.60481445 2.38330078 150.12353516 C0.59532478 149.07131899 0.59532478 149.07131899 -1.4375 149.45166016 C-3.61026568 150.31896286 -5.25082936 151.34507044 -7.1328125 152.734375 C-7.83929932 153.2507251 -8.54578613 153.7670752 -9.27368164 154.29907227 C-10.40664673 155.14103149 -10.40664673 155.14103149 -11.5625 156 C-13.18870563 157.19153789 -14.81501048 158.3829404 -16.44140625 159.57421875 C-17.27172363 160.18571777 -18.10204102 160.7972168 -18.95751953 161.42724609 C-24.99879614 165.86750709 -31.0905642 170.2382437 -37.17773438 174.61523438 C-39.51874873 176.30877717 -41.8455404 178.02073758 -44.171875 179.734375 C-45.69765687 180.84410728 -47.22368957 181.9534948 -48.75 183.0625 C-49.44939697 183.58465088 -50.14879395 184.10680176 -50.86938477 184.64477539 C-53.76396834 186.73127147 -55.72896951 188.13853488 -59.29296875 188.69921875 C-61.4375 188.25 -61.4375 188.25 -63.4375 186.25 C-63.12435794 179.43696535 -61.0503924 173.26003012 -58.9453125 166.8125 C-58.59870575 165.73299072 -58.252099 164.65348145 -57.89498901 163.54125977 C-57.16360245 161.26765202 -56.42884686 158.99512559 -55.69091797 156.72363281 C-54.56682286 153.26330716 -53.45240974 149.79998521 -52.33984375 146.3359375 C-51.62556177 144.11961054 -50.91073607 141.90345872 -50.1953125 139.6875 C-49.86395294 138.66019775 -49.53259338 137.63289551 -49.19119263 136.57446289 C-47.78628705 132.25343502 -46.35299389 127.99432775 -44.64013672 123.78515625 C-43.44726053 120.27869112 -43.26696246 119.52684704 -44.4375 116.25 C-45.91455018 114.73320557 -45.91455018 114.73320557 -47.83984375 113.47265625 C-48.55591797 112.96605469 -49.27199219 112.45945312 -50.00976562 111.9375 C-50.79029297 111.40125 -51.57082031 110.865 -52.375 110.3125 C-54.03014995 109.14742238 -55.68509223 107.98204968 -57.33984375 106.81640625 C-58.1891748 106.22359863 -59.03850586 105.63079102 -59.91357422 105.02001953 C-64.53038437 101.78226817 -69.08688297 98.46086254 -73.64599609 95.14257812 C-77.57370602 92.29138997 -81.52748415 89.49183591 -85.53515625 86.75390625 C-86.36595703 86.17769531 -87.19675781 85.60148437 -88.05273438 85.0078125 C-89.64693883 83.90344741 -91.2507709 82.81281268 -92.86523438 81.73828125 C-98.13907576 78.05466207 -98.13907576 78.05466207 -99.62109375 74.05859375 C-99.4375 71.25 -99.4375 71.25 -98.34892273 69.60148621 C-95.49334858 67.58243045 -93.14229592 67.84878632 -89.67114258 67.81762695 C-88.98795456 67.8074353 -88.30476654 67.79724365 -87.60087585 67.78674316 C-85.34451139 67.75656822 -83.08857113 67.7473408 -80.83203125 67.73828125 C-79.26688725 67.72143781 -77.7017568 67.70328802 -76.13664246 67.68388367 C-72.01852657 67.63634073 -67.90046562 67.60655936 -63.78216553 67.58044434 C-59.57927598 67.55066032 -55.37657586 67.50412264 -51.17382812 67.45898438 C-42.92847838 67.37290249 -34.68311149 67.30557917 -26.4375 67.25 C-26.23340515 66.62518738 -26.0293103 66.00037476 -25.81903076 65.35662842 C-23.67779957 58.80173888 -21.53606242 52.24701481 -19.39404297 45.69238281 C-18.59671495 43.2523203 -17.79951216 40.81221687 -17.00244141 38.37207031 C-15.8509226 34.8468951 -14.69894037 31.32187162 -13.546875 27.796875 C-13.19566589 26.7213739 -12.84445679 25.6458728 -12.48260498 24.53778076 C-11.80575475 22.46737998 -11.12605331 20.39790872 -10.4432373 18.32946777 C-9.7455947 16.19335537 -9.06485827 14.05167622 -8.39758301 11.90588379 C-7.88802063 10.29586487 -7.88802063 10.29586487 -7.36816406 8.65332031 C-7.06879944 7.68759094 -6.76943481 6.72186157 -6.46099854 5.72686768 C-5.02165066 2.2436441 -3.84636308 0.39449878 0 0 Z " fill="#E3D3F9" transform="translate(244.4375,122.75)"/>
<path d="M0 0 C7.27660828 0.50336961 14.08620817 1.80150222 21.125 3.6875 C22.13054932 3.9551416 23.13609863 4.2227832 24.17211914 4.49853516 C70.55378174 17.13899146 110.32809224 47.60513359 134.68212891 89.07788086 C141.49270604 101.03537148 147.2710699 113.73992458 151 127 C151.21430664 127.68594238 151.42861328 128.37188477 151.64941406 129.07861328 C159.39629846 154.45800993 159.54649911 187.51420748 152 213 C151.76925781 213.83047852 151.53851563 214.66095703 151.30078125 215.51660156 C145.49624475 236.08585195 135.85311483 254.9626157 123 272 C122.3090625 272.93328125 121.618125 273.8665625 120.90625 274.828125 C102.66221702 298.26469045 79.38182646 315.19174906 52.875 328 C51.38009033 328.72243896 51.38009033 328.72243896 49.85498047 329.45947266 C48.91025879 329.90597168 47.96553711 330.3524707 46.9921875 330.8125 C46.15026855 331.21082031 45.30834961 331.60914063 44.44091797 332.01953125 C41.96482425 333.01412941 39.62724025 333.56378783 37 334 C39.47346166 331.28663738 42.22575494 329.471507 45.3125 327.5 C79.3635446 304.92178938 103.00546405 273.19591294 117 235 C117.44214844 233.80632812 117.88429688 232.61265625 118.33984375 231.3828125 C124.80297165 212.48454794 126.37554602 193.3933002 126.4375 173.5625 C126.4467601 172.30699341 126.4467601 172.30699341 126.45620728 171.02612305 C126.52987034 155.50168058 124.73524724 140.48346881 120.3125 125.5625 C120.05903809 124.69544434 119.80557617 123.82838867 119.54443359 122.93505859 C111.85897829 97.54585503 98.89231563 74.29725432 81.30957031 54.47705078 C80.05800739 53.06542593 78.82157691 51.64042773 77.5859375 50.21484375 C73.03933034 45.03546136 68.35842392 40.33293244 63 36 C62.06671875 35.24074219 61.1334375 34.48148438 60.171875 33.69921875 C43.47372887 20.36278031 25.05412784 10.29755287 5 3 C3.33083243 2.33961992 1.66329025 1.6750465 0 1 C0 0.67 0 0.34 0 0 Z " fill="#FBFBFB" transform="translate(302,48)"/>
<path d="M0 0 C4.70415474 2.29470963 5.80985109 8.16923486 7.51739502 12.88989258 C8.49982156 15.76204434 9.44721109 18.6435114 10.3828125 21.53125 C10.89991287 23.11153992 10.89991287 23.11153992 11.42745972 24.72375488 C12.15075574 26.93828377 12.87167762 29.15358938 13.59033203 31.36962891 C14.68495566 34.7421609 15.78919714 38.11143395 16.89453125 41.48046875 C17.59953588 43.64304097 18.30398181 45.80579543 19.0078125 47.96875 C19.33492218 48.96588013 19.66203186 49.96301025 19.99905396 50.99035645 C21.84456192 56.70392476 23.35672141 62.36719322 24.5625 68.25 C25.4328035 68.24555878 26.30310699 68.24111755 27.19978333 68.23654175 C35.3957292 68.19649189 43.59164228 68.16602928 51.78766346 68.14637566 C56.00146975 68.13593192 60.21519527 68.12176201 64.42895508 68.09912109 C68.49435407 68.07741367 72.55967532 68.06543581 76.62512779 68.06024551 C78.17729606 68.05654597 79.72946 68.04932181 81.28159523 68.03853989 C83.45320506 68.02405274 85.62449231 68.02202087 87.79614258 68.02294922 C89.03302322 68.018508 90.26990387 68.01406677 91.54426575 68.00949097 C94.5625 68.25 94.5625 68.25 97.5625 70.25 C98.0859375 73.08984375 98.0859375 73.08984375 97.5625 76.25 C95.3515625 78.56640625 95.3515625 78.56640625 92.1875 80.8125 C91.6102417 81.23104248 91.0329834 81.64958496 90.43823242 82.08081055 C89.16885121 82.99791051 87.89302754 83.9061413 86.61181641 84.80664062 C84.50063286 86.2935738 82.41084644 87.80695205 80.32421875 89.328125 C76.54386243 92.07991269 72.74959564 94.81169402 68.95019531 97.53710938 C64.8797899 100.45714663 60.81429078 103.3839608 56.75 106.3125 C56.00339111 106.8485083 55.25678223 107.3845166 54.48754883 107.93676758 C51.48213178 110.10178288 48.53960293 112.2688072 45.67578125 114.62109375 C43.5625 116.25 43.5625 116.25 41.5625 116.25 C44.27029144 125.80515437 47.18540641 135.271189 50.33203125 144.69140625 C50.66049042 145.67845551 50.98894958 146.66550476 51.32736206 147.6824646 C52.68742376 151.76636064 54.04927617 155.84951994 55.4284668 159.92700195 C56.44885922 162.9491257 57.45409857 165.97595079 58.45703125 169.00390625 C58.76945267 169.91547989 59.08187408 170.82705353 59.40376282 171.76625061 C61.17037471 177.14666145 61.98753793 181.5813447 61.5625 187.25 C60.5625 188.25 60.5625 188.25 58.015625 188.66796875 C53.04786893 188.06666796 50.20732387 185.56688421 46.3125 182.5625 C44.70340483 181.36030246 43.0940218 180.15849011 41.484375 178.95703125 C40.66646484 178.33908691 39.84855469 177.72114258 39.00585938 177.08447266 C35.23139654 174.25060837 31.39723573 171.50144608 27.5625 168.75 C22.86553372 165.37809768 18.19236185 161.98197222 13.5703125 158.5078125 C12.34441406 157.59612305 12.34441406 157.59612305 11.09375 156.66601562 C9.52092253 155.49533155 7.95543301 154.31470641 6.3984375 153.12304688 C5.69203125 152.60033203 4.985625 152.07761719 4.2578125 151.5390625 C3.63922363 151.07193848 3.02063477 150.60481445 2.38330078 150.12353516 C0.59532478 149.07131899 0.59532478 149.07131899 -1.4375 149.45166016 C-3.61026568 150.31896286 -5.25082936 151.34507044 -7.1328125 152.734375 C-7.83929932 153.2507251 -8.54578613 153.7670752 -9.27368164 154.29907227 C-10.40664673 155.14103149 -10.40664673 155.14103149 -11.5625 156 C-13.18870563 157.19153789 -14.81501048 158.3829404 -16.44140625 159.57421875 C-17.27172363 160.18571777 -18.10204102 160.7972168 -18.95751953 161.42724609 C-24.99879614 165.86750709 -31.0905642 170.2382437 -37.17773438 174.61523438 C-39.51874873 176.30877717 -41.8455404 178.02073758 -44.171875 179.734375 C-45.69765687 180.84410728 -47.22368957 181.9534948 -48.75 183.0625 C-49.44939697 183.58465088 -50.14879395 184.10680176 -50.86938477 184.64477539 C-53.76396834 186.73127147 -55.72896951 188.13853488 -59.29296875 188.69921875 C-61.4375 188.25 -61.4375 188.25 -63.4375 186.25 C-63.12435794 179.43696535 -61.0503924 173.26003012 -58.9453125 166.8125 C-58.59870575 165.73299072 -58.252099 164.65348145 -57.89498901 163.54125977 C-57.16360245 161.26765202 -56.42884686 158.99512559 -55.69091797 156.72363281 C-54.56682286 153.26330716 -53.45240974 149.79998521 -52.33984375 146.3359375 C-51.62556177 144.11961054 -50.91073607 141.90345872 -50.1953125 139.6875 C-49.86395294 138.66019775 -49.53259338 137.63289551 -49.19119263 136.57446289 C-47.78628705 132.25343502 -46.35299389 127.99432775 -44.64013672 123.78515625 C-43.44726053 120.27869112 -43.26696246 119.52684704 -44.4375 116.25 C-45.91455018 114.73320557 -45.91455018 114.73320557 -47.83984375 113.47265625 C-48.55591797 112.96605469 -49.27199219 112.45945312 -50.00976562 111.9375 C-50.79029297 111.40125 -51.57082031 110.865 -52.375 110.3125 C-54.03014995 109.14742238 -55.68509223 107.98204968 -57.33984375 106.81640625 C-58.1891748 106.22359863 -59.03850586 105.63079102 -59.91357422 105.02001953 C-64.53038437 101.78226817 -69.08688297 98.46086254 -73.64599609 95.14257812 C-77.57370602 92.29138997 -81.52748415 89.49183591 -85.53515625 86.75390625 C-86.36595703 86.17769531 -87.19675781 85.60148437 -88.05273438 85.0078125 C-89.64693883 83.90344741 -91.2507709 82.81281268 -92.86523438 81.73828125 C-98.13907576 78.05466207 -98.13907576 78.05466207 -99.62109375 74.05859375 C-99.4375 71.25 -99.4375 71.25 -98.34892273 69.60148621 C-95.49334858 67.58243045 -93.14229592 67.84878632 -89.67114258 67.81762695 C-88.98795456 67.8074353 -88.30476654 67.79724365 -87.60087585 67.78674316 C-85.34451139 67.75656822 -83.08857113 67.7473408 -80.83203125 67.73828125 C-79.26688725 67.72143781 -77.7017568 67.70328802 -76.13664246 67.68388367 C-72.01852657 67.63634073 -67.90046562 67.60655936 -63.78216553 67.58044434 C-59.57927598 67.55066032 -55.37657586 67.50412264 -51.17382812 67.45898438 C-42.92847838 67.37290249 -34.68311149 67.30557917 -26.4375 67.25 C-26.23340515 66.62518738 -26.0293103 66.00037476 -25.81903076 65.35662842 C-23.67779957 58.80173888 -21.53606242 52.24701481 -19.39404297 45.69238281 C-18.59671495 43.2523203 -17.79951216 40.81221687 -17.00244141 38.37207031 C-15.8509226 34.8468951 -14.69894037 31.32187162 -13.546875 27.796875 C-13.19566589 26.7213739 -12.84445679 25.6458728 -12.48260498 24.53778076 C-11.80575475 22.46737998 -11.12605331 20.39790872 -10.4432373 18.32946777 C-9.7455947 16.19335537 -9.06485827 14.05167622 -8.39758301 11.90588379 C-7.88802063 10.29586487 -7.88802063 10.29586487 -7.36816406 8.65332031 C-7.06879944 7.68759094 -6.76943481 6.72186157 -6.46099854 5.72686768 C-5.02165066 2.2436441 -3.84636308 0.39449878 0 0 Z M-1.4375 5.25 C-4.79983376 15.07946082 -7.86664466 24.95747187 -10.76074219 34.93310547 C-11.98615792 39.12834186 -13.2433065 43.31404669 -14.5 47.5 C-14.87813843 48.76179077 -14.87813843 48.76179077 -15.26391602 50.04907227 C-17.05657133 56.01815212 -18.89443763 61.97153446 -20.7734375 67.9140625 C-21.52864874 70.1658801 -21.52864874 70.1658801 -21.4375 72.25 C-25.48164038 73.59804679 -29.46237906 73.58742413 -33.6875 73.75 C-34.65373291 73.78988037 -35.61996582 73.82976074 -36.61547852 73.87084961 C-53.21615272 74.51723639 -69.82929235 74.85777944 -86.4375 75.25 C-86.4375 75.91 -86.4375 76.57 -86.4375 77.25 C-84.33094691 78.79812251 -84.33094691 78.79812251 -81.625 80.375 C-76.68358 83.35553905 -72.0678883 86.67506522 -67.41430664 90.08740234 C-61.52407938 94.36654883 -55.50846272 98.4680411 -49.515625 102.6015625 C-48.54367188 103.27445312 -47.57171875 103.94734375 -46.5703125 104.640625 C-45.70293457 105.23907227 -44.83555664 105.83751953 -43.94189453 106.45410156 C-36.7606003 111.60379939 -36.7606003 111.60379939 -35.4375 114.25 C-34.83260557 120.833746 -36.74375546 126.41816863 -38.71875 132.65234375 C-39.21816101 134.2688961 -39.21816101 134.2688961 -39.72766113 135.91810608 C-40.78840852 139.3441741 -41.86273571 142.76580635 -42.9375 146.1875 C-43.66105771 148.51599611 -44.38372404 150.84476941 -45.10546875 153.17382812 C-46.87249916 158.86913691 -48.65068451 164.56086948 -50.4375 170.25 C-46.97274401 170.25 -46.34463061 169.70779868 -43.65625 167.6796875 C-42.90553223 167.11934814 -42.15481445 166.55900879 -41.38134766 165.98168945 C-40.57487793 165.36898193 -39.7684082 164.75627441 -38.9375 164.125 C-37.22665643 162.84492653 -35.51571601 161.5649825 -33.8046875 160.28515625 C-32.92264648 159.6214502 -32.04060547 158.95774414 -31.13183594 158.27392578 C-26.79215899 155.01405609 -22.42828664 151.78726762 -18.0625 148.5625 C-17.27294922 147.9751709 -16.48339844 147.3878418 -15.66992188 146.78271484 C-4.36190862 138.41429551 -4.36190862 138.41429551 2.5625 139.25 C8.06131038 142.08658145 12.96222572 145.58939298 17.9375 149.25 C19.51503254 150.40055235 21.09317414 151.55027 22.671875 152.69921875 C23.47431641 153.28364746 24.27675781 153.86807617 25.10351562 154.47021484 C29.10754215 157.36828408 33.1458405 160.21725428 37.1875 163.0625 C38.29810791 163.84463867 38.29810791 163.84463867 39.43115234 164.64257812 C41.14101293 165.84588894 42.85166063 167.0480812 44.5625 168.25 C45.63417654 165.01409614 45.49123557 163.1908272 44.375 159.99145508 C43.94960938 158.7441436 43.94960938 158.7441436 43.515625 157.47163391 C43.20109375 156.57994003 42.8865625 155.68824615 42.5625 154.76953125 C41.91627173 152.86406619 41.27045136 150.95846275 40.625 149.05273438 C39.59768984 146.05976229 38.56474506 143.06894242 37.5234375 140.08081055 C36.52069515 137.19051097 35.54054529 134.29326497 34.5625 131.39453125 C34.24796875 130.51295853 33.9334375 129.6313858 33.609375 128.72309875 C31.71077575 123.05059525 30.9295496 118.11085504 32.5625 112.25 C36.15710839 107.5220818 41.45798735 104.22111865 46.25 100.75 C47.07419434 100.14704102 47.89838867 99.54408203 48.74755859 98.92285156 C53.07393681 95.76338661 57.41973575 92.63184533 61.77734375 89.515625 C62.60210205 88.92458984 63.42686035 88.33355469 64.27661133 87.72460938 C65.86066717 86.59146806 67.44766603 85.46242751 69.0378418 84.33789062 C69.74980713 83.82935547 70.46177246 83.32082031 71.1953125 82.796875 C71.82324707 82.35182617 72.45118164 81.90677734 73.09814453 81.44824219 C74.70989364 80.29605122 74.70989364 80.29605122 75.5625 78.25 C74.9221431 78.23382629 74.28178619 78.21765259 73.62202454 78.20098877 C66.95399861 78.02880198 60.28715548 77.82979584 53.62036133 77.61523438 C51.13260775 77.5386931 48.64463428 77.46898034 46.15649414 77.40625 C42.57879072 77.31486185 39.0025985 77.19889563 35.42578125 77.078125 C34.31415115 77.05502258 33.20252106 77.03192017 32.0572052 77.00811768 C24.41097675 76.71614501 24.41097675 76.71614501 20.43847656 74.53369141 C18.33220032 71.9696482 17.50998691 70.08863378 16.68359375 66.8828125 C16.2649707 65.31889771 16.2649707 65.31889771 15.83789062 63.72338867 C15.56138672 62.61842041 15.28488281 61.51345215 15 60.375 C14.39478743 58.08196362 13.78932111 55.7889942 13.18359375 53.49609375 C12.90112793 52.40151855 12.61866211 51.30694336 12.32763672 50.17919922 C11.47377094 46.91031547 10.53289909 43.67355191 9.5625 40.4375 C8.22418879 35.70273548 6.96209238 30.95608944 5.765625 26.18359375 C5.44464844 24.90395752 5.12367188 23.62432129 4.79296875 22.3059082 C3.37385229 16.62282335 1.96507974 10.93718886 0.5625 5.25 C-0.0975 5.25 -0.7575 5.25 -1.4375 5.25 Z " fill="#09090A" transform="translate(244.4375,122.75)"/>
<path d="M0 0 C2.5625 0.375 2.5625 0.375 4.1875 1.8125 C4.868125 3.0809375 4.868125 3.0809375 5.5625 4.375 C5.87268066 4.94049561 6.18286133 5.50599121 6.50244141 6.08862305 C9.95184045 13.83822364 7.04032424 20.18022084 4.3125 27.75 C3.84451975 29.1093078 3.37913912 30.46951317 2.91625977 31.83056641 C1.9618423 34.62610822 0.9934785 37.41621255 0.01416016 40.203125 C-1.40070474 44.24458678 -2.75104745 48.30525006 -4.08203125 52.375 C-7.36275587 62.38185844 -7.36275587 62.38185844 -8.72265625 66.4609375 C-9.03082275 67.3895459 -9.33898926 68.3181543 -9.65649414 69.27490234 C-10.4375 71.375 -10.4375 71.375 -11.4375 72.375 C-13.60449162 72.4884818 -15.77517167 72.53187553 -17.94506836 72.54858398 C-18.62475174 72.555271 -19.30443512 72.56195801 -20.00471497 72.56884766 C-21.48506289 72.58292765 -22.96543291 72.59481224 -24.44581413 72.60479546 C-26.78626901 72.62115614 -29.12655998 72.64439107 -31.4669342 72.66969299 C-38.122649 72.74060902 -44.77843079 72.80064828 -51.43432617 72.85180664 C-55.50097826 72.88354657 -59.56744286 72.92480952 -63.63394356 72.97200203 C-65.18689167 72.98805299 -66.73988302 73.0003602 -68.29289055 73.00890923 C-70.46230038 73.02102356 -72.63126713 73.04515587 -74.80053711 73.07202148 C-76.65466469 73.08748268 -76.65466469 73.08748268 -78.54624939 73.10325623 C-81.56459722 73.07687326 -81.56459722 73.07687326 -83.4375 75.375 C-83.60431109 78.45847826 -83.60431109 78.45847826 -83.4375 81.375 C-82.90382812 81.61605469 -82.37015625 81.85710937 -81.8203125 82.10546875 C-78.79673042 83.71639363 -76.0785378 85.67913489 -73.3125 87.6875 C-72.70559326 88.12481445 -72.09868652 88.56212891 -71.47338867 89.01269531 C-70.15339484 89.96440771 -68.83433919 90.91742238 -67.51611328 91.87158203 C-65.4081226 93.39624807 -63.29629582 94.91546434 -61.18359375 96.43359375 C-57.40581859 99.14980025 -53.63911797 101.88100111 -49.87402344 104.61474609 C-47.29160852 106.48039855 -44.69692657 108.32819412 -42.1015625 110.17578125 C-40.35909113 111.429293 -38.61689649 112.68318952 -36.875 113.9375 C-36.04718018 114.52112305 -35.21936035 115.10474609 -34.36645508 115.70605469 C-33.60486084 116.2580957 -32.8432666 116.81013672 -32.05859375 117.37890625 C-31.04430298 118.10315796 -31.04430298 118.10315796 -30.00952148 118.84204102 C-28.02047522 120.78166231 -27.59762923 121.58898997 -27.4375 124.375 C-28.10049095 126.95276492 -28.83791828 129.36545264 -29.71875 131.8671875 C-29.96760452 132.60188263 -30.21645905 133.33657776 -30.47285461 134.09353638 C-31.28427181 136.48262283 -32.11019905 138.86637175 -32.9375 141.25 C-34.05981374 144.51692582 -35.1768578 147.7856381 -36.29296875 151.0546875 C-36.56888351 151.85952576 -36.84479828 152.66436401 -37.1290741 153.49359131 C-38.71142307 158.13730031 -40.19096838 162.79278677 -41.55078125 167.5078125 C-41.84597656 168.51859863 -42.14117187 169.52938477 -42.4453125 170.57080078 C-42.96547091 172.38346445 -43.46563038 174.20203995 -43.94140625 176.02685547 C-45.16243811 180.21312928 -46.07807898 182.58707687 -49.94921875 184.8125 C-51.10035156 185.328125 -52.25148437 185.84375 -53.4375 186.375 C-54.4275 187.035 -55.4175 187.695 -56.4375 188.375 C-59.125 188 -59.125 188 -61.4375 187.375 C-63.47862039 180.10243101 -60.79959402 174.14780732 -58.4140625 167.21484375 C-57.98761124 165.93932605 -57.56261672 164.66332048 -57.13900757 163.38685608 C-56.02442721 160.03931323 -54.89287236 156.69777544 -53.7567749 153.35748291 C-51.94138376 148.01025829 -50.15245413 142.65412161 -48.3627739 137.2982502 C-47.73803576 135.43653401 -47.10573532 133.57736099 -46.47329712 131.71824646 C-46.08975067 130.58008987 -45.70620422 129.44193329 -45.31103516 128.26928711 C-44.9727066 127.27336044 -44.63437805 126.27743378 -44.28579712 125.25132751 C-43.41655271 122.30397385 -42.87958347 119.4133329 -42.4375 116.375 C-43.11401611 115.88640503 -43.11401611 115.88640503 -43.80419922 115.38793945 C-44.76350342 114.69510864 -44.76350342 114.69510864 -45.7421875 113.98828125 C-46.82101196 113.20916382 -46.82101196 113.20916382 -47.92163086 112.41430664 C-49.53971768 111.24564248 -51.15771647 110.07685644 -52.77563477 108.90795898 C-56.83931394 105.97231798 -60.90402314 103.03814716 -64.97265625 100.109375 C-73.01063311 94.32021838 -81.02218267 88.49686008 -89 82.625 C-89.82814209 82.01599854 -90.65628418 81.40699707 -91.50952148 80.77954102 C-92.27079346 80.21807373 -93.03206543 79.65660645 -93.81640625 79.078125 C-94.4926001 78.57958008 -95.16879395 78.08103516 -95.86547852 77.56738281 C-97.4375 76.375 -97.4375 76.375 -98.4375 75.375 C-98.625 72.9375 -98.625 72.9375 -98.4375 70.375 C-95.61175804 67.54925804 -93.74461157 68.09873238 -89.78466797 68.05615234 C-89.10162598 68.04610672 -88.41858398 68.0360611 -87.71484375 68.02571106 C-85.45313371 67.9947763 -83.19154256 67.97781577 -80.9296875 67.9609375 C-79.36311818 67.94223408 -77.79655901 67.9226613 -76.23001099 67.9022522 C-72.10367817 67.85083748 -67.97731266 67.81126197 -63.85083008 67.77410889 C-59.6413559 67.73412759 -55.43201882 67.68300854 -51.22265625 67.6328125 C-42.96103101 67.53594272 -34.69933815 67.45157355 -26.4375 67.375 C-23.83121103 61.04465639 -21.4622201 54.69615561 -19.37890625 48.17578125 C-19.10787582 47.33766403 -18.8368454 46.49954681 -18.55760193 45.6360321 C-17.70180897 42.98755946 -16.85070387 40.33761114 -16 37.6875 C-15.43458072 35.93283442 -14.86882764 34.17827638 -14.30273438 32.42382812 C-13.88645279 31.13362259 -13.88645279 31.13362259 -13.46176147 29.81735229 C-12.37822162 26.4619957 -11.29250781 23.10734574 -10.20587158 19.75299072 C-9.70058028 18.18919261 -9.19738589 16.62471511 -8.69647217 15.05950928 C-8.02054821 12.94802126 -7.33733559 10.83902914 -6.65234375 8.73046875 C-6.27070068 7.54477295 -5.88905762 6.35907715 -5.49584961 5.13745117 C-4.22795996 1.82806908 -3.5806971 0.55087648 0 0 Z " fill="#E3D2FA" transform="translate(229.4375,118.625)"/>
<path d="M0 0 C0.66 0 1.32 0 2 0 C2.23074219 1.01835937 2.46148437 2.03671875 2.69921875 3.0859375 C4.45666013 10.74852846 6.31662898 18.36677472 8.4375 25.9375 C8.64358887 26.67371582 8.84967773 27.40993164 9.06201172 28.16845703 C10.16682855 32.09281413 11.2925698 36.01067111 12.4296875 39.92578125 C12.66115479 40.73345947 12.89262207 41.5411377 13.13110352 42.37329102 C13.5726814 43.91351341 14.02069224 45.45191182 14.47631836 46.98803711 C15.65096816 51.10191545 16.23536893 54.72301023 16 59 C14.35 58.67 12.7 58.34 11 58 C10.69707031 56.9584375 10.39414063 55.916875 10.08203125 54.84375 C7.9216303 47.44126372 5.73153767 40.0497813 3.4375 32.6875 C3.23415039 32.02596924 3.03080078 31.36443848 2.82128906 30.68286133 C1.87935583 27.65172017 0.87520632 24.67844573 -0.2734375 21.71875 C-3.0338951 14.5304443 -3.29438791 9.40039567 -1 2 C-0.67 1.34 -0.34 0.68 0 0 Z " fill="#F7F6F7" transform="translate(243,128)"/>
<path d="M0 0 C3.49849216 1.17634889 5.75120789 3.02004951 8.62109375 5.33984375 C9.78091231 6.26118258 10.94242532 7.18039167 12.10546875 8.09765625 C12.69908203 8.56719727 13.29269531 9.03673828 13.90429688 9.52050781 C16.66881821 11.66748788 19.51289453 13.69512681 22.37109375 15.71484375 C23.52351753 16.53113702 24.67585846 17.34754728 25.828125 18.1640625 C26.73812256 18.80867432 26.73812256 18.80867432 27.66650391 19.46630859 C31.64553474 22.29911655 35.6005954 25.16526268 39.55859375 28.02734375 C40.36256592 28.60846924 41.16653809 29.18959473 41.99487305 29.78833008 C43.89134607 31.15934654 45.78759393 32.530673 47.68359375 33.90234375 C44.68359375 35.90234375 44.68359375 35.90234375 42.87890625 35.79296875 C39.77624164 34.53423649 37.23033146 32.63183251 34.55859375 30.65234375 C33.95748779 30.21486816 33.35638184 29.77739258 32.73706055 29.32666016 C31.42212424 28.36952397 30.10896866 27.40993782 28.79736328 26.44824219 C25.81739686 24.26885349 22.82060937 22.11306493 19.82495117 19.95532227 C13.11731343 15.12236344 6.424834 10.26879007 -0.25 5.390625 C-1.91377601 4.19232886 -3.61038573 3.03969077 -5.31640625 1.90234375 C-2.31640625 -0.09765625 -2.31640625 -0.09765625 0 0 Z " fill="#E0D0F5" transform="translate(244.31640625,271.09765625)"/>
<path d="M0 0 C19.14 0 38.28 0 58 0 C58.66 1.32 59.32 2.64 60 4 C40.53 4 21.06 4 1 4 C0.67 2.68 0.34 1.36 0 0 Z " fill="#E4D3FB" transform="translate(268,187)"/>
<path d="M0 0 C-1.28976862 3.86930587 -3.57719493 5.06112093 -6.8125 7.25 C-13.27473055 11.73530388 -19.59181102 16.39231011 -25.875 21.125 C-26.77323486 21.80079102 -27.67146973 22.47658203 -28.59692383 23.17285156 C-30.73231011 24.78054527 -32.8667017 26.38953729 -35 28 C-35.66 27.67 -36.32 27.34 -37 27 C-35.90449272 23.71347817 -35.47272885 23.35421368 -32.74609375 21.50390625 C-32.06369629 21.03307617 -31.38129883 20.56224609 -30.67822266 20.07714844 C-29.93878418 19.57731445 -29.1993457 19.07748047 -28.4375 18.5625 C-21.49618099 13.78876897 -14.72609984 8.85122102 -8.09155273 3.65844727 C-3.32470826 0 -3.32470826 0 0 0 Z " fill="#F2F1F3" transform="translate(231,266)"/>
<path d="M0 0 C-0.28144987 3.20419855 -1.00288207 4.00246392 -3.50390625 6.140625 C-4.51324219 6.83671875 -5.52257812 7.5328125 -6.5625 8.25 C-7.57441406 8.95640625 -8.58632812 9.6628125 -9.62890625 10.390625 C-10.41136719 10.92171875 -11.19382813 11.4528125 -12 12 C-12.66 11.67 -13.32 11.34 -14 11 C-12.69876154 7.09628463 -10.88284282 6.1829398 -7.5625 3.8125 C-6.57378906 3.09707031 -5.58507812 2.38164062 -4.56640625 1.64453125 C-2 0 -2 0 0 0 Z " fill="#EFEEF0" transform="translate(208,282)"/>
<path d="M0 0 C0.66 0.33 1.32 0.66 2 1 C1.54625 1.495 1.0925 1.99 0.625 2.5 C-1.58159367 5.89475949 -2.14391425 9.04883498 -3 13 C-3.66 13 -4.32 13 -5 13 C-5.33 10.03 -5.66 7.06 -6 4 C-4.02 2.68 -2.04 1.36 0 0 Z " fill="#F9F8FA" transform="translate(278,230)"/>
<path d="M0 0 C-1.4638611 4.39158329 -3.97831338 4.87947433 -8 7 C-7.62005832 4.24542282 -7.1926367 3.17979426 -5.125 1.25 C-3 0 -3 0 0 0 Z " fill="#EAE9EC" transform="translate(231,266)"/>
<path d="M0 0 C0.66 0.33 1.32 0.66 2 1 C-1.222107 4.8665284 -4.14922412 5.88059018 -9 7 C-6.3765992 4.08511023 -3.28183606 2.11496102 0 0 Z " fill="#D2D2D2" transform="translate(348,375)"/>
<path d="M0 0 C-0.1875 1.875 -0.1875 1.875 -1 4 C-3.5625 5.25 -3.5625 5.25 -6 6 C-5.6875 4.125 -5.6875 4.125 -5 2 C-2 0 -2 0 0 0 Z " fill="#E5E5E6" transform="translate(200,288)"/>
</svg>
