<svg width="220" height="216" viewBox="0 0 220 216" fill="none" xmlns="http://www.w3.org/2000/svg">
<g clip-path="url(#clip0_4302_2933)">
<path d="M99.7968 23.1826C99.3509 23.3852 98.7578 23.4826 98.3876 23.2138C98.3319 23.1787 98.1328 23.3813 98.0691 23.3696C98.0054 23.3579 97.9418 23.2177 97.7905 23.2099L96.7356 23.1514C96.3176 23.1281 96.0788 22.98 95.7563 23.2722C95.0517 22.7463 93.9132 23.1709 93.2883 23.0385C92.516 22.8748 91.9587 23.1631 91.3377 23.1631H84.6899C84.1923 23.1631 83.8499 23.0969 83.4638 23.393C83.2687 23.1203 82.9224 23.3462 82.7154 23.3501C80.6574 23.3657 78.6471 23.3891 76.6289 23.8059L74.125 30.9898C73.9339 31.5352 74.0095 31.8858 73.9418 32.3806C73.6871 34.1688 73.496 35.6063 73.6751 37.5036L73.9299 40.1956L76.4059 38.1113C77.1344 37.4997 77.7395 36.8763 78.671 36.44L76.601 33.7753C76.3661 33.4714 76.8916 32.9143 77.1304 32.7507C77.421 32.552 78.0062 32.4156 78.4918 32.5598L83.4797 34.0363C84.1127 34.2233 84.2639 34.5272 84.5545 34.9596C84.7575 35.2596 85.1317 35.4193 85.2591 35.8751C85.3706 36.2764 85.0043 36.4673 84.7376 36.9075C83.7385 38.5554 82.0466 39.5138 80.737 40.8423L78.8103 42.798C78.042 43.5771 77.2698 44.2745 76.3621 44.8939C75.8208 45.264 75.566 45.7627 74.8216 45.9497L69.8576 47.1807L66.6372 43.3551C65.6181 40.628 65.3594 37.6984 64.9056 34.7687C64.8459 34.383 65.2638 33.8571 64.8379 33.5026C66.5815 29.0692 68.5519 24.7448 70.6697 20.3776C71.7445 19.7582 72.7994 19.1115 74.0374 18.8154L76.2069 18.2973L80.9718 17.4558C81.4655 17.3701 81.8078 17.3545 82.2855 17.3272L88.9731 16.9844L90.4898 17.1909C91.7756 17.0039 92.8782 17.2493 94.1123 17.4129L97.0381 17.8025C99.3032 18.1025 104.932 20.2646 105.131 20.9347C105.382 21.7684 106.25 21.9204 106.679 22.4112C107.289 23.2995 108.021 23.9734 108.773 25.15L110.063 27.168L111.042 28.5043L111.723 29.6107C112.834 31.4183 113.889 33.2883 114.565 35.2206C114.792 35.8751 115.095 36.4907 115.501 37.0322C115.389 37.2348 115.346 37.488 115.385 37.601C115.441 37.7646 115.716 37.9438 115.911 38.049C115.827 38.5165 116.118 38.7385 116.321 39.1125L118.514 43.172C119.434 43.281 120.345 43.0473 121.042 42.5175C120.536 42.159 120.142 42.1552 119.613 42.0422C119.557 41.5124 119.501 41.0643 119.716 40.5774L122.415 40.8267C122.774 40.8618 123.128 41.3604 123.391 41.5708C123.279 43.2927 122.184 44.9757 120.923 46.2146C119.947 47.173 119.091 47.3288 117.455 47.5392C116.269 47.1729 115.564 45.6653 114.975 44.516L113.367 41.3799C112.893 40.4566 112.424 39.5333 111.683 38.7775C111.074 38.1581 110.485 37.5932 110.159 36.6231C110.051 36.327 109.506 36.0855 109.207 35.8868C109.159 34.8778 108.479 34.2311 108.013 33.4909L107.089 32.0339L104.717 28.5861L100.804 23.728C100.378 23.7475 100.004 23.4397 99.7928 23.1865L99.7968 23.1826Z" fill="#3A1C36"/>
<path d="M107.676 63.6318C106.605 64.333 105.331 64.7732 105.777 65.5446C105.267 65.342 105.052 65.9069 104.774 66.0277C104.228 66.2653 104.185 66.7367 103.922 67.0445C103.381 67.6951 102.704 68.2912 102.274 68.9729L100.936 71.0883C100.733 71.4117 100.853 71.4156 100.498 71.7234C99.4077 72.6778 99.6983 74.7543 98.2294 74.5517L96.0241 74.2478C96.2868 73.8622 95.9047 73.5193 95.6579 73.3167C95.4389 70.6793 95.7295 67.9834 96.4859 65.4083L96.8561 63.2266L98.5439 56.8336C98.5678 56.744 98.8425 56.6232 98.8226 56.557C98.8027 56.4908 98.6713 56.37 98.5121 56.2064C97.4811 56.7128 96.5774 57.4258 95.7534 58.3296L94.2885 57.679C94.2089 56.4128 94.8697 55.3649 95.224 54.2039L96.3386 50.5224C95.6181 50.4094 95.4588 50.9353 95.2041 51.3016C95.0249 51.2431 94.5871 51.0873 94.5393 51.3912C94.5154 51.5392 94.4915 51.6833 94.4 51.7729C94.3442 51.8275 94.1253 51.8119 94.1253 51.7028V51.3016C91.9399 53.0897 90.4232 52.0262 90.3555 52.0651C90.0888 52.2171 89.854 52.4508 89.6828 52.8716C89.0021 52.2677 88.2776 52.4859 87.5093 52.5209C86.5579 52.5677 85.6463 52.3495 84.667 52.6144L82.9235 52.2755L76.9922 51.3834C76.61 51.3249 75.8696 50.4912 75.5392 51.0327L74.333 53.0196C73.9668 53.6235 73.517 53.752 72.8761 53.5261C71.5624 53.0625 73.3179 51.0094 73.5369 48.7264L74.7908 47.8304C75.7581 47.6122 76.7175 47.8304 77.6689 47.8538L80.8097 47.9239C84.6193 48.4381 90.268 48.0369 94.0337 47.0512L95.7017 46.8331C96.9636 46.6694 97.6045 46.4863 98.52 47.0785C99.2167 47.5304 98.4125 51.4613 97.7 53.1326C97.5726 53.4326 97.5846 53.9234 97.5567 54.3247C99.3321 53.23 100.299 52.2833 101.983 53.3663C102.656 54.2546 102.572 55.3766 102.381 56.3934L101.772 59.6814C101.605 60.5891 101.235 61.4034 101.223 62.4007C101.215 63.1565 101.008 63.7837 100.741 64.5746C101.597 64.3564 101.836 63.5655 102.373 63.1292L104.308 61.567C106.903 59.4711 109.885 57.9244 113.193 57.1686C113.687 57.0557 114.614 57.0829 115.02 57.2933C117.819 58.7309 118.611 61.902 119.009 65.1005L119.491 68.9651C119.678 70.4611 119.793 72.0116 119.451 73.4843C119.347 73.9362 119.518 74.2167 119.423 74.7582L119.172 76.149C118.32 76.3555 118.209 77.3294 117.807 77.8553C117.218 78.6306 115.868 78.8293 115.47 79.85L115.028 79.2306C114.109 80.1617 112.528 79.5189 111.258 80.3487C110.777 80.2123 109.945 80.0993 109.284 80.1266C108.695 79.7136 108.611 78.2644 109.005 77.7541C109.897 76.8736 111.386 76.636 112.333 76.1022L113.794 75.2802C114.081 70.8156 113.965 66.4679 113.117 62.0773C113.046 61.7111 112.902 61.4579 112.636 61.3255C112.401 61.2086 112.17 61.1618 111.848 61.3177L109.626 62.3851C109.296 62.5448 109.113 62.6812 108.655 62.9812L107.664 63.6318H107.676Z" fill="#3A1C36"/>
<path d="M80.6334 106.076C79.057 106.119 78.3205 105 77.0626 104.401C76.9193 104.334 76.569 104.467 76.4854 104.365C76.3421 104.202 76.4018 103.847 76.4337 103.656C76.2585 103.61 75.9759 103.765 75.8724 103.808C75.5977 103.917 75.6216 103.403 75.5261 103.263C74.7578 102.176 74.4791 100.735 74.2761 99.4178L73.2093 92.569C73.0978 91.8638 73.3765 90.9522 74.101 90.6172C74.5309 90.4185 75.6136 90.9834 75.6375 91.4548C75.6654 91.9651 75.9918 92.0469 76.2386 92.4014C77.2856 93.913 77.4328 95.448 78.0379 96.6011L78.8261 98.0971C79.2401 98.8841 79.7695 99.71 80.9717 99.4684C81.3539 99.9905 82.0306 100.15 82.6596 99.7645C83.4318 100.294 84.2797 100.228 85.1197 100.325L90.1354 100.914C91.0589 101.023 92.2531 101.455 93.0971 100.957L97.1375 98.549C99.0124 97.4309 100.605 96.0557 102.129 94.5052L104.892 91.7002L108.761 87.4265C109.299 86.8304 109.681 86.3162 110.397 85.7357C111.114 85.1552 112.519 82.0581 115.111 81.8672C115.433 82.1048 115.907 82.5139 116.468 82.623C116.802 82.7048 117.344 83.2892 117.543 83.5969C117.678 84.0177 117.563 84.8085 117.384 85.2176L116.743 86.7058L115.771 88.3849C115.521 88.8173 114.617 89.1601 114.713 90.0055C114.482 89.8809 114.47 89.8341 114.342 89.6159L113.769 91.0418C113.104 91.0925 112.861 91.7002 112.846 92.2144C112.694 92.3001 112.412 92.23 112.324 92.1872C112.197 92.1248 112.117 92.6313 111.998 92.7014C111.15 93.2118 110.728 94.2052 110.127 94.9025L108.936 96.2895L103.264 101.58C102.965 101.857 102.738 102.133 102.281 102.075C101.325 103.275 99.9837 103.949 98.7855 104.841L97.8859 105.254C95.999 106.119 93.1209 108.277 90.5972 107.455C89.8846 108.039 88.8178 107.989 88.0256 107.556C87.6952 107.603 87.2095 107.907 86.8553 107.763L85.0122 107.003C84.5066 107.587 84.021 107.124 83.4517 106.987L82.3212 106.711C82.2456 106.785 82.0823 106.968 82.0226 106.991C81.9669 107.011 81.8316 106.886 81.8316 106.824V106.438C81.2663 106.438 81.0195 106.66 80.6373 106.072L80.6334 106.076Z" fill="#3A1C36"/>
<path d="M134.821 67.0013C135.776 66.3858 136.541 65.6183 137.285 64.7496C137.942 63.986 137.97 63.425 138.205 62.3692L138.507 61.0135L138.786 58.9604C138.861 58.3916 139.462 57.4722 138.961 56.8801C138.38 56.7476 137.667 56.5372 137.416 55.9178C137.054 55.984 136.513 55.949 136.286 55.4892C136.111 55.5087 135.768 55.6139 135.685 55.5048C135.601 55.3958 135.522 55.0218 135.287 54.9711C135.088 54.9283 134.733 55.1153 134.546 55.1659C134.307 55.2282 134.073 54.827 133.917 54.6166C132.958 54.6049 132.775 53.5063 130.765 53.5881L129.706 52.5947L129.156 52.9959L127.508 52.5284C127.723 52.4427 127.859 52.3492 127.863 52.283C127.902 51.9129 127.138 52.1038 126.481 51.7727L126.139 54.3867C126.063 54.9711 125.697 56.0035 125.004 55.8594C123.842 55.6178 123.46 54.34 123.205 53.4128L122.648 51.3792L122.397 50.1053L121.744 48.5742L122.035 47.0393C122.059 46.9029 122.254 46.6536 122.341 46.5796C122.465 46.4744 122.743 46.4159 123.046 46.6302C123.488 45.703 124.495 45.5277 125.363 45.6991L127.556 46.1237L128.981 46.4471C129.809 46.638 130.514 47.0003 131.302 47.2263L133.097 47.7405L138.006 49.9806C138.714 50.3039 138.806 50.7091 139.745 50.974C140.489 51.1844 141.62 52.0648 142.193 52.6804C142.794 53.3271 142.874 54.3828 143.75 54.8815L141.13 67.8701C140.971 68.6571 140.267 69.2765 140.816 70.2271C138.865 70.7998 137.377 71.6218 135.733 72.5607L134.371 73.3437C133.555 73.2931 132.325 73.8891 132.341 74.3566C132.122 74.1657 132.034 73.9632 131.947 73.9242C131.859 73.8852 131.784 74.2787 131.684 74.3566C129.264 75.3734 127.015 76.5578 125.076 78.2914C122.859 78.9186 121.816 80.7925 120.944 80.2393C120.482 79.9471 119.833 78.4083 120.407 77.7577L122.493 75.3734C122.731 75.0968 122.835 74.8787 123.241 74.5592L126.437 72.0698L129.188 70.3868L131.939 68.8558L134.817 66.9975L134.821 67.0013Z" fill="#3A1C36"/>
<path d="M72.1512 86.8455L71.1521 87.2506L69.9419 87.6324C69.309 87.8311 69.0064 88.3025 68.6163 88.5479C67.6808 88.5245 66.825 89.2297 65.9652 89.4985C65.6109 89.6076 65.1172 89.4323 64.7988 89.7556C64.6157 89.6543 64.3609 89.4518 64.1659 89.4089C63.9708 89.366 63.716 89.5219 63.5369 89.7361C63.0154 89.3076 62.4979 89.4634 61.8928 89.4673L61.5425 89.2453C61.4629 89.1946 61.244 89.3621 61.0967 89.5803C59.9423 88.1817 57.0523 88.6453 55.9974 86.5182C55.8103 85.4391 55.874 84.2119 56.479 83.4327L58.3579 81.0095C60.0378 79.3032 61.3196 77.4254 62.8522 75.61L63.7519 74.5464L65.1889 72.805L66.1602 71.4259L69.7309 66.4198L70.9849 64.6472C72.1074 63.0655 73.1942 61.5695 74.054 59.7969C75.0094 57.8256 73.7316 55.7959 75.6025 55.4375L76.8127 56.3296C77.2864 57.7088 77.1232 59.0489 77.0834 60.4514L77.0436 61.9435C77.0197 62.8863 76.5579 63.3616 76.3071 64.0745C75.9966 64.9549 75.6821 65.4926 75.2244 66.2328L73.4888 69.0494L69.0343 75.7229L68.0152 76.8566L66.3155 79.0461C66.0885 79.3343 65.9572 79.8213 65.4596 79.9304C65.2566 81.0836 64.3529 81.7186 63.3657 82.3069C63.2383 83.3587 62.3785 84.282 61.4311 84.8742C64.7869 85.6611 67.9117 84.8937 70.8137 83.4366L72.808 82.4354C73.7316 81.9718 74.4521 81.703 75.0811 80.7875C75.3 80.4641 75.8533 80.2538 76.1558 80.2187C76.7569 80.1447 77.7681 81.1225 77.8676 81.5666C78.0586 82.451 77.1789 82.7237 76.8366 83.7444C76.5261 83.5886 76.2872 84.0366 76.1081 84.0872C75.6742 84.1963 75.2403 84.73 74.8263 85.0144L72.1512 86.8533V86.8455Z" fill="#3A1C36"/>
<path d="M87.6244 69.3193C87.2223 69.218 87.0591 68.5323 86.8322 68.2947C85.7176 67.7921 84.5553 67.2311 84.0338 65.9883L83.3013 66.7324C82.6047 67.0714 82.0315 67.5038 81.8483 68.2401C81.4662 68.1193 81.3348 68.4232 81.1398 68.5674C80.479 69.0543 79.5515 68.8479 78.7672 68.6492C77.983 66.9233 79.2927 65.4351 80.8691 63.9586L82.4295 62.4977C83.6835 61.3251 85.1285 60.2732 86.4819 60.8809C86.7407 60.9978 87.4811 60.8225 87.7598 61.1692C87.9269 61.3835 88.1618 61.5549 88.0901 62.0886L88.5599 62.077C88.9381 62.0653 88.8146 63.1366 89.0654 63.1639L89.7262 63.2379C90.6856 63.7171 91.2548 64.5586 91.8957 65.4273C92.3456 66.0351 92.2182 67.0168 92.2062 67.7454L91.5813 68.2947L88.8783 69.6972C88.6833 69.4517 88.5559 69.0621 88.321 69.0466C88.0503 69.031 87.7956 69.2297 87.6204 69.3193H87.6244Z" fill="#3A1C36"/>
<path d="M85.5222 95.0467C84.8534 94.5947 84.2284 94.9376 83.707 94.9103C82.051 94.8246 79.1968 93.1728 80.1641 91.2327C80.4905 90.5782 81.625 90.3055 82.2221 90.6054C83.492 91.2444 84.4235 90.5665 85.5421 89.9782L87.3692 89.016L88.6988 88.155L91.3699 86.2772C91.8436 85.9461 92.5442 85.124 93.1174 85.2565C93.5434 85.5643 93.9056 85.724 94.5147 85.872C94.9924 85.985 94.8889 87.1187 94.6142 87.5239L93.205 89.5964L90.6613 91.9612C90.2831 92.3157 90.2911 92.4637 89.7378 92.5105C89.2481 92.5533 88.8461 93.2702 88.4918 93.5585L87.9544 93.4844C87.7713 93.4572 87.5484 93.7571 87.4807 93.9441C87.1702 94.7817 86.4258 93.913 85.5262 95.0467H85.5222Z" fill="#3A1C36"/>
<path d="M169.639 93.6928L167.461 95.368C167.246 95.5316 166.693 95.4186 166.57 95.7497C166.112 95.703 165.363 95.6679 165.021 95.1459L164.858 93.8681C164.79 93.3227 165.037 93.1668 165.268 92.9681C165.252 93.3382 165.551 93.5175 165.881 93.6226C166.291 93.759 166.418 93.3733 166.689 93.1123L168.118 91.7176L168.349 91.6124C168.413 91.5851 168.604 91.4215 168.56 91.3748C168.508 91.3202 168.234 91.3592 168.09 91.3397C163.393 90.6891 158.831 90.2294 154.07 90.4047L151.112 90.8956C150.973 92.224 151.566 93.272 151.932 94.507C152.016 94.7914 151.729 95.3017 152.382 95.4693C152.362 95.7887 152.382 96.0302 152.526 96.4198C153.561 96.1549 154.44 96.5328 155.443 96.6808L158.672 97.1561C159.372 97.2574 159.838 97.3276 160.459 97.3743L163.174 97.5925L164.81 97.795L167.66 97.9392L169.249 97.9859L171.108 98.2431C172.29 98.1457 173.492 98.1963 174.643 98.3054L176.346 98.4651L180.363 99.0183C180.817 99.0807 181.195 99.2443 181.497 99.5209C181.708 99.7118 181.641 100.269 181.724 100.553C182.174 100.97 182.361 101.399 182.333 101.843C182.282 102.719 181.768 102.661 181.239 103.012L180.9 104.589C180.606 105.968 180.136 107.176 179.638 108.497L179.033 110.098C179.957 110.25 180.857 110.343 181.577 110.02C181.641 109.993 181.716 109.973 181.788 109.969C182.043 110.445 182.564 109.997 182.863 109.958L185.096 109.673C186.223 109.529 187.54 109.63 188.571 108.337L189.718 106.896L190.968 105.306C191.258 104.936 192.122 104.363 192.647 104.27C193.213 104.246 194.089 104.659 194.451 105.033C194.785 105.372 195.092 106.459 194.944 106.915C194.574 108.053 194.025 109.108 193.352 110.043L192.178 111.672L191.254 112.58C190.792 112.545 190.581 112.93 190.164 113.16C189.662 113.433 188.611 113.055 188.201 113.744C187.875 113.293 187.62 113.624 187.285 113.639L183.703 113.776C183.345 113.787 182.938 114.426 182.409 114.142C181.609 113.713 180.733 114.029 179.985 114.337C178.556 113.744 177.397 114.831 175.98 113.702C175.614 113.409 175.22 113.487 174.889 113.854C174.818 113.226 174.607 112.802 174.368 112.377C173.799 111.364 175.586 110.191 176.653 107.535L177.855 104.55C176.76 104.184 175.546 103.872 174.559 104.215C173.353 104.636 169.818 103.748 170.073 103.939C169.933 103.834 169.802 103.549 169.73 103.405C169.42 103.713 169.137 103.943 168.819 104.001C168.552 104.048 168.265 103.756 168.09 103.421C167.461 103.978 166.82 103.413 166.207 103.37L162.625 103.109C162.059 103.066 161.494 102.676 161.017 102.404C160.893 102.497 160.634 102.766 160.571 102.731L160.069 102.435C159.512 102.458 158.891 102.657 158.445 102.361C158.429 102.267 158.469 102.045 158.485 101.987C158.469 102.057 156.128 101.87 155.838 101.749C155.288 101.523 155.149 101.48 154.472 101.356L152.979 101.083C152.697 101.032 152.378 100.433 151.845 100.822C151.765 100.499 151.57 100.187 151.335 100.148C149.878 99.9066 148.78 98.7495 148.728 97.2535C148.935 96.5445 148.724 95.9406 148.139 95.5316L147.84 92.2124C147.792 91.6903 147.677 90.9813 147.9 90.4086C148.398 89.1269 149.711 88.3633 151.16 88.3672L155.631 88.3789L163.592 88.8698L167.418 89.3957L169.364 89.8749C170.029 90.0385 171.343 90.3735 171.398 91.2267C171.474 92.337 170.327 93.1551 169.623 93.6967L169.639 93.6928Z" fill="#3A1C36"/>
<path d="M187.583 73.2871L188.821 76.7466L190.127 80.2684C190.302 80.7359 190.246 80.8488 190.481 81.3047C191.094 82.4851 191.731 83.833 192.07 85.1225C192.193 85.5939 192.161 85.8822 192.42 86.4432L192.941 87.5769L195.015 93.4557C194.983 93.6504 194.709 93.9037 195.015 94.1842L197.85 92.5596C199.323 91.7142 201.058 91.0403 202.232 92.4934C203.407 93.9465 203.347 95.8711 202.782 97.5501L202.611 99.0111C202.479 100.149 201.512 101.255 200.151 101.119C199.561 100.511 199.354 99.1357 199.569 98.2787L199.88 97.0476C200.055 96.3619 200.123 95.7542 199.975 94.7608C198.976 95.6919 197.874 96.0347 196.731 96.5645C195.967 96.919 194.8 97.7099 194.434 97.5463C194.144 97.4138 193.726 97.593 193.658 98.1189C193.121 97.4878 192.555 97.9203 191.946 97.9592C191.238 98.0021 190.708 97.18 190.282 96.8138C189.856 96.4476 189.753 95.91 189.57 95.3568L188.447 91.9753L187.348 88.2002L185.458 81.9669L184.367 77.6854L183.837 76.1388C182.058 79.2204 180.736 82.4539 179.873 85.9718L180.478 85.5511C180.864 85.742 181.226 85.8394 181.815 85.7225C181.505 85.3797 181.608 85.0524 181.576 84.7174C181.692 84.5265 181.827 84.3862 181.97 84.3161C182.154 84.2265 182.583 84.2577 182.679 84.4641L183.575 86.3809C183.841 86.9575 183.499 87.8028 182.783 87.8145L178.961 87.8613C178.551 87.8652 177.918 87.5301 178.002 87.0315C178.746 82.7188 180.143 78.6438 181.962 74.6896C182.241 74.0857 182.711 73.6455 182.651 73.0144L184.156 71.0938L185.899 71.1756C186.962 71.2067 187.074 72.8936 187.587 73.2832L187.583 73.2871Z" fill="#3A1C36"/>
<path d="M189.849 97.3016L192.452 98.5522C192.83 98.7314 193.26 99.3742 193.706 99.3119C194.204 99.2417 194.371 99.6742 194.721 99.8222C196.473 100.566 196.174 101.318 196.986 102.51L195.215 103.613C194.844 103.192 194.096 103.391 193.698 103.254L191.087 102.362L186.23 100.114L184.343 99.2223L179.499 96.3121L175.562 93.3474L174.594 92.3345C174.371 92.1007 174.093 91.4151 174.037 91.0839C174.184 90.0126 175.852 89.1867 175.952 89.2451C176.039 89.2996 176.246 89.5412 176.37 89.5646C177.126 89.7243 177.552 90.2424 178.137 90.597L185.784 95.2252L189.845 97.2977L189.849 97.3016Z" fill="#3A1C36"/>
<path d="M156.788 75.8215C157.178 76.3124 157.736 75.9423 158.329 75.9968L160.721 76.215C163.122 76.028 165.247 77.4071 166.569 79.3823L167.899 80.8471L168.778 82.0899L169.236 83.4027C169.32 83.6404 169.415 83.917 169.292 84.0144L168.977 84.2598C168.277 84.0378 167.341 83.8391 166.728 83.3054L164.901 81.7237L163.273 80.4731L162.477 79.9861C161.967 79.6706 161.724 79.5186 161.02 79.4602L159.256 79.3044C158.588 79.2459 157.923 78.9382 157.294 79.5264C156.53 79.168 155.622 79.2537 154.917 79.4641C154.854 80.4147 156.167 80.8159 156.764 82.1951L158.982 81.5016C159.165 81.5406 159.344 81.4704 159.424 81.3107L159.853 81.3185C160.725 82.6158 159.037 83.2469 158.54 84.2871C158.349 84.6884 157.807 84.9805 157.33 84.9689C156.916 84.9611 156.33 84.8403 155.889 85.0312C155.061 85.3935 154.738 84.8403 154.237 84.5014C152.648 83.43 151.713 81.9418 151.191 80.1848C150.945 79.3589 150.614 78.8797 150.937 77.8434C151.06 77.4422 150.757 76.9123 151.41 76.5461C152.425 75.9812 154.774 76.2033 156.577 75.8254C156.649 75.8098 156.717 75.8098 156.78 75.8176L156.788 75.8215Z" fill="#3A1C36"/>
<path d="M171.824 62.8477C172.198 62.984 172.799 63.0113 172.859 63.3736L173.01 64.2619L174.3 66.5253C174.551 66.9694 175.144 67.4214 175.291 67.7681L175.741 68.82C176.74 71.1652 170.769 75.8636 170.745 73.717C170.745 73.5105 170.729 73.0625 170.996 72.856C171.971 72.0924 172.684 71.2237 173.4 70.312C174.221 69.268 172.537 67.9824 172.369 67.9746C172.194 67.9668 171.748 68.2122 171.756 68.407C171.808 69.5407 171.295 70.3004 170.984 71.3366L170.311 73.5845C169.941 74.8195 169.197 76.3233 169.921 77.6284C170.761 79.1399 171.681 80.6788 171.414 82.428C171.358 82.7981 170.753 82.8526 170.558 82.6656L170.037 82.167C169.953 81.4034 169.571 80.5268 168.663 80.3048C167.744 79.2412 166.673 77.3479 166.649 76.3466C166.601 74.4338 166.928 72.7469 167.425 70.9081L168.982 65.1618C169.157 64.519 168.998 62.9685 170.483 62.4269C170.96 62.2516 171.259 62.6412 171.828 62.8516L171.824 62.8477Z" fill="#3A1C36"/>
<path d="M168.114 91.7216L165.113 91.7488C164.452 91.7449 163.517 91.4333 162.848 91.7761C162.513 91.7099 162.004 91.4449 161.554 91.6787C160.993 91.9709 160.583 91.667 160.121 91.6514C159.619 91.6358 159.002 92.1501 158.489 91.5579L157.916 91.8774C157.116 91.7956 156.451 91.8696 155.682 92.041C155.587 91.967 155.436 91.8112 155.38 91.8384L154.986 92.0488C154.253 91.9904 153.405 92.002 152.677 92.3721L152.964 93.8487C153.051 94.3123 153.079 95.4109 153.688 95.6174C155.957 96.3108 158.306 96.3069 160.67 96.4627L167.569 96.9186L172 97.2107L176.561 97.4951L180.371 97.8574L182.103 98.1769C183.81 100.253 182.457 103.09 181.653 105.98L181.088 108.006C180.928 108.575 180.972 109.354 180.359 109.907C180.972 110.075 181.223 109.985 181.573 110.028C180.853 110.351 179.953 110.258 179.029 110.106L179.635 108.505C180.132 107.184 180.602 105.976 180.896 104.597L181.235 103.019C181.764 102.665 182.278 102.723 182.33 101.851C182.357 101.407 182.17 100.982 181.72 100.561C181.633 100.281 181.705 99.7196 181.494 99.5287C181.187 99.2521 180.813 99.0885 180.359 99.0262L176.342 98.473L174.639 98.3132C173.488 98.2042 172.286 98.1535 171.104 98.2509L169.245 97.9938L167.657 97.947L164.806 97.8029L163.17 97.6003L160.455 97.3822C159.83 97.3315 159.369 97.2653 158.668 97.164L155.44 96.6887C154.436 96.5407 153.553 96.1628 152.522 96.4277C152.382 96.0342 152.359 95.7966 152.378 95.4771C151.722 95.3096 152.012 94.7992 151.929 94.5148C151.566 93.2799 150.969 92.2319 151.109 90.9034L154.066 90.4126C158.823 90.2373 163.389 90.697 168.086 91.3476C168.234 91.367 168.508 91.3281 168.556 91.3826C168.6 91.4294 168.409 91.593 168.345 91.6203L168.114 91.7254V91.7216Z" fill="#D3FA33"/>
<path d="M181.577 84.7303C181.533 84.2745 181.581 83.6395 182.13 83.5032C183.348 83.1993 183.738 85.0927 183.925 85.5601C184.327 86.5653 184.785 87.96 183.71 88.7157L183.193 89.082C183.089 89.156 182.811 88.8365 182.703 88.7625C182.341 89.4521 180.343 89.4404 179.853 89.2612L179.483 89.4949C179.435 89.5261 179.224 89.3897 179.069 89.1677C178.32 89.83 177.433 89.4404 176.788 88.9261C176.577 88.7547 175.992 88.8209 175.912 88.3262C176.135 87.7691 176.047 87.1379 176.107 86.5458L176.227 85.3732C176.35 84.1616 176.879 83.059 177.417 81.9643L177.91 80.9514L179.698 77.5815L180.319 76.4635L182.652 73.0312C182.715 73.6624 182.241 74.1026 181.963 74.7064C180.144 78.6568 178.746 82.7357 178.002 87.0483C177.914 87.547 178.551 87.8821 178.961 87.8782L182.783 87.8314C183.499 87.8236 183.846 86.9743 183.575 86.3977L182.679 84.481C182.584 84.2745 182.154 84.2434 181.971 84.333C181.827 84.4031 181.696 84.5433 181.577 84.7342V84.7303Z" fill="#D3FA33"/>
<path d="M176.222 85.3687L176.103 86.5413C176.043 87.1335 176.131 87.7646 175.908 88.3217C175.717 88.8009 174.976 88.2827 173.758 89.4086C170.363 89.132 168.619 85.1388 169.937 83.7324L171.175 83.0078C171.82 83.3467 172.484 83.0701 173.101 83.0624C174.59 83.0429 175.538 84.2662 176.222 85.3648V85.3687Z" fill="#3A1C36"/>
<path d="M156.581 75.8258C154.778 76.2037 152.429 75.9816 151.414 76.5465C150.757 76.9088 151.064 77.4426 150.941 77.8438C150.618 78.8801 150.949 79.3593 151.195 80.1852C151.717 81.9422 152.652 83.4343 154.241 84.5018C154.742 84.8407 155.065 85.3939 155.893 85.0316C156.33 84.8407 156.92 84.9615 157.334 84.9692C157.338 85.0355 157.481 85.3978 157.421 85.4796C157.342 85.5848 156.94 85.4134 156.804 85.4056L155.136 86.251C154.563 86.5432 153.074 86.1886 152.692 85.4601L150.511 81.3306C149.563 79.5346 148.767 77.9802 150.069 76.5738C150.443 76.1686 151.028 76.0245 151.788 75.9699L156.402 75.6388C156.541 75.6115 156.629 75.6778 156.581 75.8297V75.8258Z" fill="#D3FA33"/>
<path d="M171.825 62.8488C171.255 62.6384 170.953 62.2488 170.479 62.4242C168.998 62.9657 169.154 64.5162 168.978 65.159L167.422 70.9053C166.924 72.7441 166.602 74.431 166.646 76.3439C166.152 76.4802 166.16 76.1023 165.977 75.7283C165.495 74.7466 164.683 73.5739 165.153 72.4636L168.648 64.2318L169.432 62.2333C169.695 61.5593 170.264 61.5515 170.885 61.793C171.423 61.9995 171.904 62.2605 171.821 62.8566L171.825 62.8488Z" fill="#D3FA33"/>
<path d="M199.885 97.0485C199.774 96.6395 199.694 96.2538 199.503 95.7551L198.412 96.4642C197.966 97.0758 197.664 97.107 197.043 97.3641L195.689 97.9212L193.795 98.8406C193.695 98.9614 193.695 99.2536 193.707 99.3081C193.261 99.3704 192.827 98.7315 192.453 98.5484L189.85 97.2979L190.287 96.8109C190.713 97.1771 191.239 97.9991 191.951 97.9563C192.56 97.9173 193.126 97.4888 193.663 98.116C193.731 97.5901 194.149 97.4147 194.439 97.5433C194.81 97.7108 195.972 96.9161 196.736 96.5616C197.879 96.0317 198.981 95.685 199.981 94.7578C200.132 95.7512 200.06 96.3551 199.885 97.0446V97.0485Z" fill="#D3FA33"/>
<path d="M184.367 77.6951C183.929 77.9249 183.902 78.4937 183.639 78.9028L183.078 79.7754C182.604 80.5117 182.437 81.1429 182.078 81.8129C181.406 83.0713 180.399 84.1504 180.478 85.5607L179.873 85.9814C180.737 82.4635 182.058 79.2261 183.838 76.1484L184.367 77.6951Z" fill="#D3FA33"/>
<path d="M168.973 84.262C168.89 84.4451 168.838 84.6944 168.714 84.8035C167.636 85.7657 163.898 81.8193 162.473 79.9844L163.269 80.4714L164.897 81.7219L166.724 83.3036C167.337 83.8334 168.277 84.0321 168.973 84.2581V84.262Z" fill="#D3FA33"/>
<path d="M188.566 108.344C187.535 109.641 186.214 109.54 185.091 109.68L182.858 109.964C182.555 110.003 182.038 110.451 181.783 109.976L188.57 108.344H188.566Z" fill="#D3FA33"/>
<path d="M187.584 73.287C187.07 72.9013 186.959 71.2105 185.896 71.1794L184.152 71.0976C184.439 70.7353 184.948 69.8938 185.725 70.0924C186.445 70.2756 187.249 71.2378 187.365 71.9585C187.452 72.504 187.409 72.878 187.58 73.287H187.584Z" fill="#D3FA33"/>
<path d="M173.4 70.3064C172.962 70.248 172.791 69.9168 172.556 69.535L171.756 68.4014C171.748 68.2027 172.194 67.9611 172.369 67.9689C172.544 67.9767 174.22 69.2623 173.4 70.3064Z" fill="#D3FA33"/>
<path d="M166.57 95.7523C166.694 95.4212 167.247 95.5341 167.462 95.3705L169.639 93.6953C169.799 94.1823 169.289 94.3888 169.022 94.7121C168.346 95.538 167.601 95.8614 166.57 95.7523Z" fill="#D3FA33"/>
<path d="M158.541 84.2889C159.035 83.2487 160.726 82.6137 159.855 81.3203C160.034 81.3242 160.468 81.4489 160.5 81.7722C160.623 82.9488 159.604 84.0707 158.541 84.2889Z" fill="#D3FA33"/>
<path d="M160.718 76.2159L158.326 75.9977C157.733 75.9432 157.175 76.3133 156.785 75.8224C157.76 75.4562 158.827 75.7328 159.95 75.8769C160.288 75.9198 160.658 75.7834 160.718 76.2198V76.2159Z" fill="#D3FA33"/>
<path d="M166.685 93.1139C166.414 93.3788 166.287 93.7606 165.877 93.6243C165.547 93.5152 165.252 93.336 165.264 92.9698C165.507 92.7594 165.698 92.4828 166.016 92.5841C166.335 92.6854 166.526 92.8996 166.681 93.1139H166.685Z" fill="#D3FA33"/>
<path d="M170.034 82.1591C169.241 81.7111 169.11 80.815 168.66 80.2969C169.564 80.5189 169.946 81.3955 170.034 82.1591Z" fill="#D3FA33"/>
<path d="M159.424 81.3048C159.345 81.4684 159.166 81.5346 158.982 81.4957C159.118 81.4528 159.233 81.3009 159.424 81.3048Z" fill="#D3FA33"/>
<path d="M112.623 167.978L113.288 172.68L112.822 174.273C112.603 175.013 111.915 175.563 111.461 176.077L109.662 178.115C109.299 178.524 109.212 178.859 108.786 179.248L106.577 181.27C105.995 181.8 105.235 181.929 104.431 181.929C102.894 181.925 101.887 181.052 101.629 179.638L99.5188 174.994C98.5077 172.769 97.9185 170.572 97.5324 168.219L96.78 163.622C96.573 162.36 97.0865 161.218 97.6717 160.065L100.47 154.549C101.597 153.898 103.181 154.568 104.244 155.047C104.809 155.301 104.765 155.753 104.562 156.205C104.109 157.229 102.791 155.799 102.329 157.21L101.621 159.387L100.96 161.725C100.813 162.247 100.848 162.901 100.649 163.396L100.45 163.891L100.809 164.401L101.505 168.367L104.411 177.207C105.167 176.891 105.526 176.35 106.003 175.91L109.033 173.14C109.721 172.508 109.634 171.796 109.359 171.036L107.787 166.692L105.983 161.873C105.641 160.961 105.163 159.906 105.219 158.932L105.832 157.225C107.492 156.037 109.598 155.589 111.596 155.157C113.491 154.744 115.338 154.05 117.329 154.385L119.204 155.562C118.965 155.99 119.291 156.193 119.319 156.458L120.051 163.166C120.179 164.351 120.071 165.453 120.489 166.715L124.379 166.443C125.059 166.396 125.569 166.065 126.297 166.26C125.879 165.613 125.692 165.329 125.577 164.787C125.095 162.524 124.16 160.494 123.236 158.375L122.181 155.963C121.887 155.285 121.333 154.892 121.071 154.054C120.915 153.559 119.976 153.209 119.538 152.975C117.95 153.731 116.134 154.144 115.8 153.213C115.685 152.893 116.015 152.437 116.397 152.246L118.694 151.109C119.506 150.708 120.083 150.556 121.039 150.727L117.078 148.877C116.946 148.814 116.847 148.549 116.747 148.534C116.648 148.518 116.397 148.639 116.286 148.74L114.084 150.637C112.842 151.709 111.847 151.44 111.405 152.141C111.334 152.25 110.987 152.067 110.816 152.141C108.945 152.952 105.681 153.961 105.713 154.011C105.665 153.933 105.677 153.801 105.689 153.532L103.663 154.124L101.055 152.017L99.1486 150.295L96.155 146.426L95.347 145.074C94.9648 144.439 95.1439 143.995 95.0245 143.372L93.7148 136.422L94.8693 133.983C95.0365 133.628 95.4584 133.504 95.749 133.406C96.0396 133.309 96.8158 133.683 96.6128 134.041L95.6455 135.744L95.952 138.288L96.573 140.614C96.8437 143.286 97.7473 145.179 99.7098 147.01L101.282 148.479C101.82 148.982 102.715 149.886 103.671 149.901C106.601 149.956 109.526 149.387 112.301 148.491C112.902 148.296 113.272 147.326 114.232 147.599C113.615 146.788 113.133 147.007 112.635 146.648C112.17 146.313 112.464 145.394 112.846 145.386L114.98 146.278C115.74 146.597 116.731 145.514 116.656 144.65L114.339 144.167C113.774 144.05 113.627 143.489 113.686 143.126C113.774 142.581 114.351 142.437 114.872 142.526L117.253 142.935C117.583 141.915 117.862 141.03 117.966 139.994C116.998 139.788 116.111 140.906 114.769 140.532C114.331 140.411 114.323 139.698 114.658 139.55L117.52 138.284C119.12 137.575 118.021 136.052 119.486 135.307C119.936 135.623 120.143 136.562 119.916 137.302L122.018 136.262L125.831 134.692L127.846 133.936C128.594 133.656 129.49 133.566 129.94 134.47C129.514 134.805 129.052 135.233 128.566 135.455L126.034 136.616L122.169 138.155L119.765 139.094C119.84 140.415 119.765 141.619 119.355 143.041L123.754 144.248C123.937 144.299 124.211 144.786 124.164 144.953C123.857 146.036 121.672 145.125 120.752 145.105C120.131 145.094 119.59 145.308 119.088 144.825C118.686 145.912 118.332 146.714 117.651 147.556L122.42 149.854L126.699 152.207C126.898 152.317 127.125 152.671 127.062 152.807C126.998 152.944 126.58 153.166 126.401 153.088L122.719 151.448C122.567 151.382 122.348 151.456 122.336 151.541C122.301 151.756 122.671 151.818 122.766 151.904L124.195 153.181C124.745 153.672 124.892 154.522 125.262 155.141C126.703 157.549 127.909 159.964 128.972 162.527L129.944 164.869C129.498 166.739 128.698 168.519 127.79 170.19C127.551 170.627 126.91 170.374 126.703 170.533C126.023 171.059 122.639 171.016 121.019 170.744L118.057 170.241C117.587 170.163 117.13 170.144 116.867 169.778C116.604 169.411 116.596 168.963 116.62 168.445C116.787 165.087 116.747 161.85 116.23 158.565C116.206 158.417 116.517 158.039 116.437 157.926C116.357 157.814 115.935 157.708 115.768 157.798C114.968 158.23 114.192 158.258 113.424 158.507L111.656 159.084C111.584 159.173 111.429 159.512 111.338 159.473C111.246 159.434 111.055 159.064 110.932 159.056C110.334 160.26 112.038 162.298 111.632 164.195C111.497 164.822 111.712 164.81 112.022 165.379C112.396 166.061 112.5 167.171 112.615 167.997L112.623 167.978Z" fill="#FBF8F1"/>
<path d="M116.604 128.737L117.535 128.017C117.921 128.348 118.335 128.313 118.622 128.005C118.769 127.845 118.594 127.397 118.71 127.14C119.307 125.811 119.569 124.565 119.936 123.19L121.15 118.639C120.087 118.616 119.705 119.489 119.251 119.905L118.315 120.759C117.659 121.355 116.974 121.779 116.373 122.5C116.074 122.858 115.417 123.123 115.25 123.661C114.948 123.79 114.577 123.938 114.422 124.144C114.215 124.421 114.084 125.009 114.466 125.118L115.819 124.273C116.146 124.07 116.6 124.171 116.791 124.421C117.081 124.802 115.887 126.887 115.35 127.374C114.526 128.122 113.479 127.826 112.675 127.358L110.947 126.353L108.897 125.66C108.622 125.566 108.069 125.683 107.822 125.219C106.405 125.204 104.661 125.441 103.841 126.302C103.244 126.926 102.81 127.113 102.002 127.393L99.7094 128.192C98.3838 128.355 97.4683 127.117 97.4205 125.823C97.4046 125.418 97.2095 124.83 97.4523 124.506C97.6355 124.265 98.1848 123.918 98.551 124.144C99.0845 124.475 99.3153 125.219 99.7293 125.667C100.107 125.57 100.307 125.589 100.685 125.336C99.8169 125.122 99.7373 124.596 99.3711 124.167C98.977 123.708 98.6346 123.384 98.2365 122.886L97.1896 121.585C96.3616 121.978 96.5646 123.466 96.9786 124.456C96.6323 125.562 97.1538 128.063 97.6713 128.768L98.6545 129.364L98.4794 130.335C98.4356 130.576 98.153 130.506 97.6912 130.588C97.0344 130.825 95.7327 131.258 95.1037 130.654C94.1244 129.707 94.1404 128.114 93.9572 126.902L93.6388 124.791L93.4358 123.205L93.3283 121.69L93.2288 119.882C93.1531 118.519 92.7431 117.171 93.3323 115.838C93.8458 115.055 95.1276 114.985 95.7008 115.199C96.7278 115.585 97.4683 116.481 98.141 117.256L101.035 120.587L101.807 121.573L103.392 123.712C105.434 122.527 107.671 122.446 109.741 123.334C110.473 123.645 111.019 122.71 111.425 122.336L115.023 119.025L119.016 115.729L123.248 112.819C123.773 112.457 125.099 112.963 125.481 113.403C126.026 114.034 125.417 114.942 125.425 115.492C125.437 116.259 125.178 116.571 125.067 117.221L124.8 118.791L124.267 121.429C124.187 121.826 124.072 122.5 123.916 122.87C123.654 123.49 123.781 123.821 123.65 124.417L123.383 125.652L122.714 127.892C122.332 129.17 121.631 130.241 121.337 131.573C121.261 131.924 120.871 132.255 120.636 132.341C120.354 132.442 119.999 131.912 119.737 131.823C117.874 131.18 116.95 129.107 116.592 128.733L116.604 128.737Z" fill="#FBF8F1"/>
<path d="M105.367 144.804C104.308 144.652 103.73 144.154 103.301 143.304C103.137 143.881 102.891 143.795 102.568 143.978C101.509 144.586 99.702 145.077 98.8182 144.056C98.2968 143.456 98.6471 141.797 99.3039 141.598C100.02 141.384 100.315 142.334 100.542 142.763C100.769 143.191 101.446 142.72 101.497 142.358C101.581 141.754 101.796 141.325 102.329 140.92C101.891 140.48 101.266 140.145 100.944 139.588C100.59 138.972 101.008 138.115 101.736 137.983C102.799 137.792 103.953 137.718 105.08 137.948C105.542 138.041 105.94 139.093 105.709 139.428L104.833 140.694C104.459 141.236 105.458 143.554 108.185 143.433C108.364 142.997 109.26 142.673 109.375 143.059C109.654 143.982 109.248 144.508 108.615 144.944C108.03 145.35 107.421 145.104 106.672 144.995L105.367 144.808V144.804Z" fill="#FBF8F1"/>
<path d="M116.604 128.735L115.347 127.368C115.88 126.881 117.078 124.796 116.788 124.415C116.6 124.165 116.143 124.064 115.816 124.267L114.463 125.112C114.081 125.003 114.212 124.415 114.419 124.138C114.574 123.932 114.944 123.784 115.247 123.655C115.418 123.113 116.071 122.852 116.37 122.494C116.971 121.773 117.655 121.353 118.312 120.753L119.248 119.899C119.701 119.483 120.084 118.61 121.146 118.633L119.932 123.184C119.566 124.559 119.303 125.805 118.706 127.134C118.591 127.391 118.766 127.843 118.619 127.999C118.332 128.307 117.918 128.342 117.532 128.01L116.6 128.731L116.604 128.735Z" fill="#FBF8F1"/>
<path d="M111.111 135.036L108.691 136.158C108.269 136.353 107.882 136.364 107.648 136.781L106.545 135.613C107.453 133.914 109.347 132.722 111.405 132.792C112.409 132.827 114.327 135.62 114.252 137.003C114.236 137.311 113.487 137.627 113.221 137.518C112.405 136.867 111.72 136.014 111.107 135.036H111.111Z" fill="#FBF8F1"/>
<path d="M102.579 136.265C101.384 136.3 101.09 135.139 100.039 135.135L98.1481 136.619L96.9141 135.782C97.2166 133.744 98.9562 132.537 101.006 132.63C101.83 132.665 102.487 133.538 103.128 134.036C103.649 134.442 103.88 134.617 103.797 135.404C103.753 135.813 103.196 136.249 102.575 136.269L102.579 136.265Z" fill="#FBF8F1"/>
<path d="M99.7062 128.185C99.4236 128.653 98.7429 128.875 98.6553 129.358L97.6721 128.762C97.1506 128.057 96.6331 125.556 96.9794 124.449C96.5654 123.46 96.3624 121.972 97.1904 121.578L98.2373 122.879C98.6394 123.378 98.9777 123.701 99.3718 124.161C99.7341 124.586 99.8177 125.116 100.685 125.33C100.307 125.583 100.104 125.564 99.7301 125.661C99.3161 125.213 99.0892 124.465 98.5518 124.138C98.1896 123.912 97.6362 124.258 97.4531 124.5C97.2063 124.823 97.4053 125.412 97.4213 125.817C97.469 127.11 98.3846 128.349 99.7102 128.185H99.7062Z" fill="#FBF8F1"/>
<path d="M90.1591 192.941C90.0755 191.967 90.2945 190.939 90.4298 189.961L91.2618 183.997L91.6957 181.671L92.3883 178.94L92.7307 177.611C92.9417 176.781 93.1128 176.108 93.4114 175.243L94.0762 173.338C94.2354 172.886 94.4464 172.519 94.8206 172.223C95.0634 172.032 95.6645 172.044 96.1342 172.188C96.6676 172.352 97.1851 173.505 96.9821 174.07C96.604 175.098 96.9184 175.944 96.7751 176.988L96.5442 178.651L96.5243 180.895L96.3492 182.894L96.178 185.185L95.8317 185.73L96.2895 186.435L96.3253 188.574C96.3372 189.299 96.3333 189.521 96.604 190.191L97.3484 192.057C97.6071 192.708 97.5912 192.723 97.9654 193.374L98.869 194.952L100.804 198.621C101.027 199.042 101.074 199.595 101.114 199.977C101.683 200.351 102.038 200.826 101.652 201.535C101.97 201.609 102.225 201.715 102.38 201.804C102.499 201.87 102.464 202.163 102.356 202.389C103.041 202.634 102.806 203.265 102.945 203.663C103.105 204.111 104.004 204.375 103.821 205.209L105.198 204.851C105.951 204.652 107.639 203.624 109.211 203.85C109.358 203.814 109.561 203.402 109.601 203.253C109.645 203.086 110.146 203.304 110.306 203.222C110.795 202.973 111.122 202.872 111.627 202.957C112.758 201.757 113.809 201.968 113.952 201.902L115.664 201.126L117.483 200.246L119.33 199.743L120.819 198.937L121.245 198.991L121.4 198.606C121.691 198.653 122.121 198.863 122.355 198.797C122.55 198.742 122.69 198.317 122.952 198.193L125.608 196.931C126.635 196.444 127.658 195.992 128.856 195.618L129.99 194.975L132.701 193.763C133.967 193.195 134.059 192.641 135.639 193.152C135.679 192.232 136.3 191.971 136.933 191.605L138.426 190.732C139.321 190.206 140.38 189.751 141.141 189.034C141.467 188.722 141.765 188.57 142.084 188.426L145.575 185.898L147.116 184.659L148.079 183.872L149.986 181.289L152.454 177.21C152.931 176.419 152.975 175.472 153.692 174.697C154.034 174.331 154.48 173.014 154.838 172.04L156.681 167.061L158.094 162.02C158.859 159.293 159.488 156.636 159.942 153.726L158.397 149.978C157.517 147.843 155.957 147.142 156.355 145.58C155.949 145.572 155.674 145.498 155.459 145.428C155.244 145.358 155.256 144.801 155.129 144.606L154.261 143.301L153.262 141.517C152.987 141.026 152.864 140.745 152.577 140.239L150.822 137.157C150.639 136.838 150.571 136.53 150.141 136.452C149.779 135.135 148.891 134.091 148.178 132.934L144.345 126.681L142.08 123.39L140.412 120.729C140.205 120.398 139.97 120.074 140.078 119.587C139.126 119.739 139.242 118.718 138.923 118.446C138.235 117.861 137.932 117.242 137.478 116.529C137.024 115.816 136.165 114.986 135.858 114.168C135.735 113.899 135.337 113.342 135.134 113.147C134.071 112.131 133.334 110.744 132.49 109.676L130.548 107.222C130.09 106.641 129.25 106.057 129.035 105.403C128.848 104.826 128.597 104.916 128.37 104.678L125.532 101.705C125.154 101.308 124.744 100.657 123.987 101.07C123.964 101.141 123.952 101.265 123.976 101.316C124.027 101.429 123.844 101.62 123.673 101.429C123.589 101.335 123.554 101.094 123.486 101.098C123.076 101.117 123.363 102.399 122.176 102.516C121.834 103.05 120.906 102.804 120.162 104.347C119.577 104.366 119.083 104.647 118.566 105.212C118.327 105.473 117.734 105.773 117.559 106.209C115.966 106.431 116.149 107.822 115.198 107.97C115.095 107.985 114.983 108.169 115.039 108.43C114.673 108.457 113.876 108.543 113.646 108.983C113.423 109.598 113.096 110.533 112.185 110.374C111.675 111.028 110.998 111.675 110.047 112.002C109.788 112.341 109.506 112.493 109.044 112.633C109.207 112.684 109.418 112.855 109.378 113.05C108.765 113.155 108.526 113.627 108.116 114.008C107.937 114.176 107.304 114.153 107.161 114.55C107.018 114.947 106.747 115.325 106.301 115.352C105.991 114.963 105.919 115.528 105.346 116.054C105.23 116.159 103.236 116.023 103.077 115.017C102.89 113.833 103.546 112.805 104.243 111.912L105.927 109.762C106.357 109.213 106.763 109.022 107.133 108.597C107.885 107.728 108.419 106.715 109.37 106.073C109.625 105.901 109.983 105.395 110.19 105.196L111.842 103.591L112.754 102.613C113.474 101.842 114.219 101.37 114.864 100.735L117.551 98.0979C117.865 97.7902 118.299 97.6071 118.494 97.1279C118.737 97.085 119.127 97.0266 119.398 96.7461L120.855 95.2423C121.412 94.6696 121.933 94.4359 122.515 94.019C122.933 93.723 123.148 93.3022 123.777 93.2399C123.792 93.2399 125.393 92.3828 125.942 92.8191C126.491 93.2555 127.252 93.2866 127.968 92.9477C128.657 94.3385 129.537 93.1464 130.552 94.3034L131.913 95.0358L133.115 96.2085C133.796 96.8747 134.27 97.6694 135.289 97.8798L135.603 98.8498C135.727 98.842 135.966 98.7797 136.061 98.8148C136.196 98.8654 136.268 99.255 136.391 99.3797C136.973 99.9757 137.582 100.424 137.984 101.133C138.187 101.16 138.394 101.246 138.434 101.367C138.485 101.53 138.537 101.764 138.398 102.052C139.528 102.122 140.05 103.159 140.591 104.008L141.491 105.422C141.789 105.893 142.494 105.948 142.645 106.676C142.777 107.331 143.195 107.619 143.724 107.958L145.046 109.82C145.332 110.226 145.595 110.319 145.726 110.759C145.973 110.981 146.411 111.242 146.674 111.671L148.366 114.445L148.963 114.803L148.931 115.575C150.137 116.338 151.248 118.06 151.642 119.498C152.306 119.622 152.736 120.133 152.553 120.779C153.353 121.013 153.266 121.745 153.262 122.268C153.624 122.478 153.951 123.047 154.146 123.37C155.678 124.437 154.922 125.93 156.279 126.752C156.646 126.974 156.506 127.718 156.415 128.166C157.239 128.548 157.748 129.066 158.083 129.763C157.764 129.915 157.692 130.137 157.673 130.281C157.613 130.714 158.341 130.542 158.839 131.29C159.01 131.551 158.926 131.836 158.461 132.139L159.456 132.623L159.758 133.651C160.248 134.017 160.3 134.629 160.188 135.112C161 135.77 161.184 137.009 161.554 138.003C161.809 138.684 162.863 139.323 162.625 140.406C162.577 140.621 163.138 140.967 163.301 141.076C163.015 141.579 163.528 142.027 163.536 142.35C163.548 142.841 163.52 143.539 164.129 143.768L164.281 144.201C164.32 144.31 164.173 144.509 163.954 144.653L164.806 145.335C164.484 145.529 164.476 145.911 164.687 146.231C165.331 147.197 165.391 148.319 165.773 149.273C166.116 150.126 166.398 150.793 166.502 151.77C166.792 154.556 166.438 157.349 165.646 160.037L165.105 161.868L164.05 165.569L163.118 168.257L162.414 170.151C162.262 170.564 161.574 171.273 162.02 171.834C161.112 171.974 162.246 172.71 161.371 173.065C160.809 173.291 161.168 173.996 161.028 174.288C160.367 175.659 160.2 176.813 160.029 177.062C159.5 177.833 158.843 179.571 158.341 180.845L157.887 181.998L157.255 182.649C157.179 183.287 156.988 183.669 156.709 184.211C156.849 184.402 156.733 184.604 156.486 184.48C156.339 184.339 156.184 184.425 156.176 184.499C156.052 185.773 155.762 185.434 155.587 185.687C154.946 186.634 154.476 187.678 153.608 188.36C153.724 188.691 153.652 188.882 153.373 189.049C152.732 189.431 152.39 190.074 151.948 190.647C151.781 190.861 151.212 191.063 151.132 191.282C150.75 192.334 149.922 192.684 149.126 193.198L146.507 194.889L143.648 196.915C143.573 196.97 143.557 197.347 143.573 197.425C143.589 197.503 143.386 197.628 143.282 197.499L142.98 197.118C142.948 197.507 142.426 197.558 142.263 197.745C140.898 199.319 139.696 198.614 139.692 199.697C139.739 200.133 139.437 200.059 139.278 199.747C138.84 200.02 138.7 200.207 138.473 200.456C138.159 200.016 137.872 200.242 137.645 200.297C137.204 200.406 137.176 200.686 136.937 201.045L136.304 201.991C136.22 201.89 135.997 201.629 135.858 201.652C135.663 201.687 135.404 201.96 135.329 202.334C134.075 201.73 133.86 203.974 133.056 202.86C132.733 203.102 132.586 203.405 132.455 203.92L132.188 203.639C132.144 203.592 132.017 203.892 131.26 203.721C131.021 203.666 130.846 204.625 130.48 204.664C130.313 204.683 130.193 204.442 129.775 204.344L129.397 205.427C128.928 205.295 128.617 204.983 128.263 204.753L127.833 205.482C128.187 205.587 128.147 205.899 127.789 205.844C127.618 205.934 127.463 206.144 127.415 206.113L126.969 205.813C126.814 206.074 126.866 206.526 126.46 206.67C126.495 206.429 126.595 206.269 126.579 206.152C126.543 205.91 126.28 205.778 126.093 205.794C125.608 205.836 125.651 206.662 125.421 206.616L124.903 206.506C124.684 206.46 124.676 206.822 124.636 206.912C124.541 207.13 123.633 206.697 123.633 206.962V207.282C123.773 207.593 123.414 207.874 123.299 207.395C122.956 207.258 122.785 207.543 122.535 207.812L121.953 207.835C121.79 207.843 121.675 208.291 121.603 208.583C121.4 208.497 121.261 208.423 121.157 208.314C121.018 208.166 120.64 208.104 120.683 208.423L120.723 208.704C120.751 208.91 120.373 208.637 119.999 208.583C119.652 208.532 119.78 209.019 119.111 209.448C118.817 209.635 117.793 208.809 117.129 209.308C116.786 209.565 116.508 209.771 116.372 210.309C115.68 209.401 115.337 210.457 114.856 209.989C114.752 209.888 113.546 210.975 112.212 211.244C111.826 210.589 111.488 211.684 111.126 211.692C110.951 211.692 110.632 211.259 110.477 211.345C110.338 211.423 110.417 211.626 110.449 211.68C110.501 211.766 110.373 211.922 110.226 211.887C109.804 211.781 109.748 212.253 109.573 212.335C109.454 212.393 109.151 212.116 109.072 212.046C108.964 211.953 108.682 212.218 108.705 212.572C107.635 212.136 106.811 213.048 105.119 213.328L102.169 213.815C100.871 212.545 99.1357 213.616 98.2918 212.767L98.3117 212.171L97.6788 211.887C97.2727 211.703 97.2926 211.026 96.6477 210.819C97.0777 209.549 96.4248 208.591 95.764 207.578C95.4774 207.141 95.3978 206.838 94.9679 206.401C94.4663 205.891 94.0642 204.492 93.3676 203.327L92.7307 202.268C92.5595 201.2 92.0102 200.184 91.5842 199.14C90.7801 197.16 91.0667 196.023 90.3542 194.952L90.179 192.93L90.1591 192.941ZM112.845 109.357L112.738 109.462L112.845 109.567L112.953 109.462L112.845 109.357ZM112.63 109.781L112.523 109.887L112.63 109.992L112.738 109.887L112.63 109.781Z" fill="#3A1C36"/>
<path d="M50.1892 144.022C52.8842 145.989 58.083 147.014 61.7692 147.505C62.5056 147.602 62.8639 148.007 62.9873 148.627C63.1027 149.192 62.4658 149.698 61.7174 149.76L58.3975 150.033L50.9495 149.659L50.7545 153.387L50.7903 155.889C50.8022 156.718 50.6709 157.353 51.3834 157.981L53.8714 160.158C53.9391 160.299 53.9391 160.828 54.2097 160.906C54.9143 161.117 55.7224 160.992 56.5186 160.953C55.7583 160.186 54.8905 159.391 54.8228 158.269C54.775 157.455 55.6548 156.894 55.8618 156.298C56.2678 155.144 57.1993 154.692 58.2542 154.182C58.8672 153.886 59.325 153.648 59.9858 153.563C61.1203 153.419 62.1951 152.748 63.2222 152.262C63.2699 152.269 63.4331 152.23 63.4889 152.398L67.7045 151.143L74.6668 148.829C74.8459 148.771 74.9415 148.533 74.9574 148.455C75.2997 148.288 75.7257 148.389 76.08 148.292L79.4158 147.38C79.4278 147.275 79.5034 147.259 79.5472 147.244L79.7343 147.189C79.79 147.174 79.9015 147.205 79.9572 147.213L82.5049 146.698C82.7756 146.644 82.9348 146.57 82.9826 146.336C83.3209 146.402 83.5956 146.726 84.1012 146.683C84.547 146.644 85.4228 146.418 85.8328 146.745C86.203 147.041 86.5533 147.563 87.0907 147.692L88.5914 151.49L90.3668 154.876L93.6947 161.795C94.3237 163.1 94.8173 164.409 94.8293 165.803C94.8412 167.307 94.0172 168.316 93.0777 169.376L89.4473 173.466L87.648 175.294C87.1106 175.839 86.5533 176.813 84.8416 178.235L83.8742 179.041C83.2851 179.532 82.7079 179.848 82.7039 180.553C82.6044 180.374 82.5009 180.179 82.4332 180.175C82.3337 180.167 82.1984 180.366 82.2103 180.498C82.2541 181.161 81.3465 181.332 81.0798 181.644C80.0209 182.89 78.0186 183.95 76.9677 183.599C76.4581 183.428 76.0401 183.132 76.0601 182.473C76.0959 181.426 76.896 180.728 77.5847 179.941L79.583 177.662L81.032 175.445C83.1458 173.011 85.0247 170.556 86.7802 167.786L86.2746 162.913L84.6744 154.272C84.4992 153.329 84.2524 152.538 83.7986 151.572C83.102 152.203 81.868 151.763 81.3664 152.877C81.2589 152.737 81.1833 152.663 81.1315 152.636C81.0519 152.593 80.7852 152.717 80.7096 152.869C80.4787 153.317 79.8776 153.341 79.4198 153.504L76.2113 154.642C75.0927 155.039 74.0896 155.639 72.8197 155.725C72.3898 155.752 72.0395 156.103 71.8643 156.488C70.6263 156.13 70.495 156.991 69.7307 157.049C69.6431 157.057 69.6431 157.326 69.6152 157.349L69.1773 157.198C68.7355 157.046 68.6957 158.191 68.3454 157.505L66.4107 158.327C65.3718 158.448 64.6552 158.947 64.5358 159.983C64.496 159.773 64.1059 159.769 64.1138 159.886C64.1855 160.275 64.2412 160.466 64.1417 160.86C65.4673 160.486 66.6217 159.975 67.812 159.523L70.9647 158.323L74.2249 157.123L81.0917 154.225C81.7127 153.964 82.9746 153.758 83.3727 154.506C83.7469 155.211 84.2047 156.956 83.711 157.657L81.0599 161.444C80.4309 162.34 79.579 163.057 78.7271 163.832L77.0035 165.394L76.076 166.146L73.2337 168.004L70.7418 169.438L69.6152 169.972C67.8518 170.806 66.0644 171.896 63.9068 171.643C63.883 171.448 64.1337 171.413 64.1536 171.343C64.1736 171.273 64.09 171.16 63.9228 170.993C64.6632 170.782 64.9737 170.061 65.5947 169.699L72.3779 165.722C74.9415 164.218 77.107 162.356 79.0894 160.252C78.6993 160.069 78.4326 159.995 77.9987 160.053C77.7718 160.404 77.1985 161.311 76.7447 161.292C76.0839 161.265 76.0043 161.502 75.4868 161.756C74.8977 162.048 74.2647 162.285 73.9821 162.757C73.2934 162.515 72.8356 163.326 72.3619 163.454C71.8365 163.454 71.7688 163.883 71.5459 164.097C71.4344 164.206 70.8811 163.984 70.8134 164.081L70.4591 164.611C70.3915 164.709 70.1646 164.424 70.1486 164.346C70.1168 164.175 69.8819 164.245 69.8501 164.42C69.8262 164.545 69.8302 164.674 69.9616 164.993C69.3963 164.892 68.5882 164.701 68.1941 165.242L67.8717 165.683C67.7801 165.807 67.386 165.609 67.2586 165.293C66.6934 165.823 66.2236 166.01 65.4076 166.228C65.0812 166.314 64.711 166.964 64.1855 166.777C64.1138 166.75 64.0462 166.602 63.9904 166.618C63.9068 166.641 63.7755 166.937 63.7158 167.05L62.1712 167.069L61.8289 167.256C61.7732 167.288 61.5821 167.081 61.4746 166.984C60.8178 167.494 60.1092 167.401 59.3369 167.299C58.6642 167.21 57.7606 167.389 57.1794 166.995C57.0958 166.941 56.7574 167.202 56.7176 167.288C56.6659 167.405 56.3474 167.058 56.216 167.062C54.9024 167.093 53.7002 166.723 52.4622 166.473C51.0809 166.193 50.2728 165.355 49.4528 164.268C49.1303 163.84 48.6248 163.485 48.4655 162.846C48.2347 162.523 47.4465 162.367 47.2196 161.787C46.7459 160.571 45.7069 159.57 44.6998 158.775L44.5485 158.21C44.5206 158.109 44.2659 158.109 43.9355 158.257C44.1026 157.427 43.4458 157.462 43.1632 157.1L39.9547 153.025C39.5447 152.503 39.1944 151.79 38.6052 151.541L37.4429 151.05L36.8856 151.346L36.4437 151.089L34.4812 151.038L35.7431 153.512L36.3601 154.798L37.4349 156.917L40.0065 162.071C40.2493 162.562 40.6951 162.843 40.5876 163.365C40.4802 163.887 40.2493 164.44 39.6641 164.494C38.45 164.603 37.6499 163.976 37.1244 162.959L35.9182 161.401L33.3308 157.357L31.7822 155.055C31.5116 154.654 31.7265 154.443 31.205 154.046C30.377 153.411 29.6366 152.328 28.8803 151.44C28.6335 151.151 28.4623 150.489 28.1797 150.06L28.0762 147.964L29.7401 146.254C32.1206 145.884 34.5489 146.048 36.7423 146.531L38.2271 146.858L40.5518 147.988C41.0534 148.233 41.4554 148.899 42.1322 148.779C42.2277 148.981 42.3869 149.277 42.6537 149.359C44.3057 147.968 45.5118 146.196 46.7817 144.489C47.3828 143.683 48.1909 143.04 49.2179 143.301C49.612 143.399 49.9464 143.847 50.2051 144.037L50.1892 144.022Z" fill="#3A1C36"/>
<path d="M69.8336 185.351C72.9784 184.634 73.6989 183.075 74.9927 183.547C75.4226 183.703 75.5181 184.042 75.6137 184.606C75.6535 184.708 75.9003 184.941 75.7291 185.035L75.2474 185.296L70.0048 190.388L69.0335 190.668C67.9348 191.389 66.7923 191.12 65.5941 191.042L61.7249 190.789L54.7824 190.072L48.6481 189.184C48.5526 188.861 48.3257 188.693 48.1784 188.65C48.0311 188.607 47.6012 188.829 47.4857 188.724L45.36 186.375L43.1268 183.399C42.4859 182.546 42.1993 181.517 41.4231 180.625C41.0329 180.177 41.017 179.487 40.4319 179.032L39.4168 177.088L37.8046 174.407L34.1542 167.169L33.1511 165.085L33.1232 164.204C33.1113 163.826 33.7561 163.655 34.0388 163.624C34.4369 163.577 34.9743 163.787 35.2768 164.161L38.2385 167.812L41.1404 171.972L42.6372 174.388C42.9039 174.816 42.8521 175.35 43.6125 175.615C44.3489 176.951 45.3043 177.917 45.6864 179.222C45.9651 179.522 46.8966 179.807 46.9643 180.278C47.0678 180.976 47.4061 181.096 47.8679 181.392C48.68 181.911 48.7277 183.418 50.8057 184.026L53.1583 184.716L57.8317 185.841L60.0569 186.196C62.8275 186.286 65.5265 186.332 68.2573 185.709L69.8296 185.351H69.8336Z" fill="#3A1C36"/>
<path d="M6.14664 182.596L5.74061 182.304C5.61322 182.214 5.34253 182.452 5.20719 182.573C4.97232 182.374 4.48667 182.276 4.33142 182.089L3.4676 181.042C2.99787 180.473 2.93816 180.079 2.97001 179.577C3.10933 177.516 8.30819 175.669 8.67043 175.361C9.39891 174.738 10.3065 174.411 11.2181 174.173C11.6241 174.068 12.062 173.343 12.8104 173.437L13.9807 172.79C14.5181 172.86 14.546 172.58 14.96 172.377L17.1136 171.321C17.7625 171.002 18.268 170.94 18.8094 171.107C19.2353 170.25 20.131 170.048 21.0028 169.751C20.947 169.771 21.7671 169.171 23.3554 168.906C24.1157 167.823 25.7478 168.189 27.5113 167.056C28.9284 166.148 29.434 168.17 31.1059 168.022L30.7516 168.536L33.0167 171.364C32.7738 172.003 32.2006 172.319 31.8463 172.724C31.492 173.129 31.4084 174.177 30.9387 174.403C30.4769 174.489 30.1864 174.493 29.848 174.906C28.7493 174.82 28.5105 176.215 27.3759 175.798C26.8823 175.615 26.5241 175.755 26.1698 176.152C25.7239 176.503 25.1587 176.963 24.5496 176.596C23.9087 177.247 23.1564 177.52 22.1253 177.087C21.4685 178.198 20.2425 178.54 19.0482 178.494C18.9885 178.665 18.8691 178.988 18.7974 178.981L18.3078 178.946C17.9376 179.222 17.3086 179.222 16.8986 179.382L14.7132 180.247L9.41483 181.77C8.89734 181.918 8.63461 181.969 8.02953 181.961C7.53194 181.953 6.7955 182.771 6.15062 182.592L6.14664 182.596Z" fill="#3A1C36"/>
<path d="M40.6085 212.903L39.8322 214.138C39.3744 214.862 38.9246 215.224 38.025 215.435C37.607 215.532 36.7312 216.191 36.5003 215.661L35.748 213.943C35.529 213.444 35.5967 212.384 35.8356 211.722L37.0298 208.434L37.6428 206.919L37.9852 205.937L40.1427 200.868L41.8425 197.109C42.0216 196.716 41.9221 196.061 42.4874 195.738C43.0168 195.438 42.782 194.635 42.9491 194.288C43.3751 193.392 44.0638 192.664 44.6808 191.904C44.9435 191.659 45.7954 191.651 45.9904 191.148C47.0652 192.43 48.1241 191.787 48.9123 192.341C49.1034 192.477 48.9123 192.804 49.0636 193.046L49.6766 194.02L49.3462 194.698C49.2586 194.881 49.5293 195.255 49.7841 195.527C49.4537 195.644 49.2268 195.8 49.2188 196.135C49.191 197.105 48.4864 197.822 48.1679 198.617C47.738 199.68 47.2762 200.635 46.7786 201.62L45.5326 204.079L44.5813 205.976L43.5144 207.807L43.1044 208.613L40.6204 212.895L40.6085 212.903Z" fill="#3A1C36"/>
<path d="M76.0636 182.464C75.5859 182.709 75.2117 182.569 74.9092 182.078C74.6067 181.587 74.3997 181.007 74.6067 180.551C74.738 180.446 75.156 180.462 75.1799 180.123C75.2197 179.601 75.7053 179.515 76.0158 179.223C76.2905 178.962 76.7324 178.186 76.7085 177.812C76.6846 177.403 76.3184 176.948 76.2029 176.628C76.9672 175.713 77.9465 174.392 77.9107 173.624C78.5556 173.239 78.882 172.631 79.2641 171.992C79.6025 171.431 80.0324 171.104 80.0802 170.391C80.1479 169.421 81.8675 169.277 81.4854 165.891L81.0515 161.427L83.7027 157.64C84.1923 156.939 83.7385 155.193 83.3643 154.488C82.9662 153.74 81.7043 153.943 81.0833 154.208L74.2165 157.106L70.9563 158.306L67.8036 159.506C67.6284 159.319 67.4971 159.066 67.2264 158.918L65.2599 159.553C65.1325 159.592 65.0091 160.083 64.8777 160.11C64.7782 160.129 64.615 159.993 64.5234 159.966C64.6429 158.929 65.3554 158.435 66.3984 158.31L68.333 157.488C68.6833 158.174 68.7231 157.024 69.165 157.18L69.6029 157.332C69.6307 157.309 69.6307 157.04 69.7183 157.032C70.4826 156.974 70.618 156.113 71.852 156.471C72.0271 156.086 72.3774 155.735 72.8074 155.708C74.0772 155.622 75.0804 155.022 76.199 154.625L79.4074 153.487C79.8652 153.323 80.4663 153.3 80.6972 152.852C80.7728 152.704 81.0395 152.575 81.1192 152.618C81.1709 152.646 81.2465 152.723 81.354 152.86C81.8556 151.746 83.0896 152.186 83.7863 151.555C84.2401 152.521 84.4908 153.312 84.662 154.254L86.2623 162.895L86.7678 167.769C85.0083 170.539 83.1334 172.993 81.0196 175.428L79.5706 177.645L77.5723 179.924C76.8836 180.711 76.0835 181.408 76.0477 182.456L76.0636 182.464Z" fill="#D3FA33"/>
<path d="M68.2626 177.533L66.2205 178.23L64.8551 178.569C63.7803 178.834 62.7413 178.935 61.6745 178.448C61.3521 178.304 60.4444 178.257 60.5201 177.747C60.7311 176.282 64.5327 173.937 66.5788 173.613C66.9132 173.559 67.1639 173.103 67.4386 172.986L69.9783 171.872C70.4918 171.646 70.7386 171.397 71.2163 171.112L75.2449 168.712L77.0999 167.805C77.8204 168.596 79.2176 168.747 79.3888 169.792C79.5202 170.579 78.3419 171.354 78.5767 172.051C77.6452 172.207 77.2233 172.861 76.6023 173.469L75.1533 174.35C74.799 174.564 74.2417 174.829 74.0267 175.137L73.5331 175.109C73.4734 175.109 73.3978 175.452 73.4575 175.783C73.2027 175.846 72.9559 175.705 72.5499 175.612C72.104 176.492 71.0173 176.839 70.1694 176.859L69.7713 177.264C69.6997 177.338 69.5205 177.225 69.3414 176.944C69.0866 177.47 68.6846 177.4 68.2706 177.54L68.2626 177.533Z" fill="#3A1C36"/>
<path d="M76.2029 176.63C76.3223 176.953 76.6886 177.405 76.7085 177.814C76.7284 178.184 76.2905 178.959 76.0158 179.224C75.7093 179.52 75.2197 179.602 75.1799 180.124C75.156 180.463 74.738 180.444 74.6066 180.553C72.9148 181.94 70.2557 182.801 67.8633 183.217C67.4214 183.295 66.8522 183.65 66.3347 183.334C66.1277 183.529 65.8649 183.852 65.6739 183.938C65.3673 184.074 65.025 183.175 63.361 183.954C63.361 183.72 63.361 183.576 63.2695 183.529C63.1859 183.486 62.9789 183.549 62.8993 183.587C61.6334 184.184 60.5307 182.138 60.5944 181.523C60.6979 180.49 63.4964 179.372 65.1006 179.625C66.3426 178.741 67.9946 178.842 68.329 178.726L73.0263 177.105L74.7778 176.267C75.1918 176.069 75.9681 176.018 76.195 176.63H76.2029Z" fill="#3A1C36"/>
<path d="M53.8723 160.161L51.3843 157.983C50.6717 157.356 50.8031 156.721 50.7912 155.891L50.7553 153.39L50.9504 149.662L58.3984 150.036L61.7183 149.763C62.4667 149.701 63.1036 149.194 62.9882 148.629C62.8648 148.014 62.5065 147.609 61.7701 147.507C58.0839 147.017 52.885 145.992 50.1901 144.025C50.1304 143.97 50.1821 143.861 50.2577 143.877L52.8134 144.348C53.5419 144.48 53.8922 144.718 54.2982 144.995C54.9232 144.952 55.5163 144.85 56.1254 145.201C57.1365 145.782 58.267 145.828 59.3219 146.144C59.9548 146.331 60.5082 146.763 61.2327 146.814C62.0726 146.876 62.6498 147.355 63.3743 147.667C64.0072 147.944 64.9825 148.427 64.9148 149.257C64.8313 150.312 63.7365 150.593 62.9563 150.737L60.5241 151.189C60.3649 151.22 60.2813 151.127 60.3051 151.018C60.3211 150.955 60.341 150.795 60.1738 150.71C59.5727 151.73 58.0202 150.725 56.1731 151.103C55.8825 151.162 55.5959 151.411 55.4048 151.376C55.1023 151.317 54.9869 151.045 54.8754 150.792C54.3301 151.197 54.0434 151.36 53.2592 151.294C53.9519 152.167 53.6095 152.591 53.6573 153.191L53.8404 155.615L53.9638 156.955C54.0673 158.053 54.2266 159.152 53.8723 160.157V160.161Z" fill="#D3FA33"/>
<path d="M74.9568 148.457C74.9409 148.535 74.8453 148.768 74.6662 148.831L67.7039 151.145L63.4883 152.399C63.7868 151.589 65.2398 151.289 66.4062 151.051C66.8998 150.95 67.3018 150.506 68.0263 150.525C69.2325 150.557 71.5373 148.994 72.4091 149.15C73.0222 149.259 73.4481 148.718 73.7307 148.328C74.0572 148.511 74.5388 148.663 74.9568 148.457Z" fill="#D3FA33"/>
<path d="M63.2227 152.263C62.1996 152.75 61.1208 153.42 59.9863 153.564C60.3924 152.902 60.8541 152.672 61.6702 152.544C62.124 152.473 62.7848 151.893 63.2227 152.263Z" fill="#D3FA33"/>
<path d="M79.412 147.382L76.0762 148.293C76.319 147.736 76.9281 147.631 77.5132 147.463L79.1095 147.004C79.2409 146.965 79.428 147.249 79.416 147.382H79.412Z" fill="#D3FA33"/>
<path d="M82.9863 146.333C82.9385 146.571 82.7793 146.641 82.5086 146.695L79.9609 147.21V146.918C80.8486 146.388 81.9951 146.134 82.9863 146.333Z" fill="#D3FA33"/>
<path d="M79.735 147.192L79.5479 147.246C79.4563 147.032 79.6235 147.013 79.735 147.192Z" fill="#D3FA33"/>
<path d="M50.1613 52.653C49.9065 53.1828 49.3134 53.549 49.5443 54.3009C50.7664 54.0087 51.865 54.0165 53.0234 54.0789L56.0727 54.2464L59.6036 54.4178C59.9579 54.7372 60.1689 55.0801 60.5311 55.2125C60.8416 56.2956 59.9818 57.1254 58.899 57.3202C58.2382 57.437 58.0033 58.4149 57.5774 58.7032C56.841 59.2018 56.4907 59.5875 56.001 60.2342L55.1014 61.4225C54.3689 61.9484 53.8634 62.4042 53.2464 63.0431C52.49 63.834 50.8022 64.2976 50.022 65.0494L46.3318 65.1001L45.9258 65.3221C45.8382 65.3689 45.6352 65.1468 45.472 65.1313L42.8964 64.9092L40.7826 64.5858L39.266 66.1753C38.6569 66.8142 38.2668 67.9012 37.4229 68.3297C36.8736 68.6102 36.7541 68.8712 36.3799 69.3192C36.0774 69.6854 35.552 69.8062 35.3609 70.4257C34.9429 71.8087 33.1356 71.3645 33.3785 72.5644L31.4996 74.4539C31.3801 74.5747 31.4518 74.8513 31.3602 74.9253C31.2647 75.0032 30.9343 74.9993 30.8029 75.0188L30.0784 76.1174C29.963 76.0707 29.6485 76.0122 29.6206 76.0863C29.6007 76.1369 29.6644 76.2888 29.6644 76.3551C29.6724 76.8732 28.2712 77.4615 27.7815 79.4834C29.0116 78.8445 30.0625 78.712 31.2488 78.5874C34.3219 78.2601 37.3035 78.2251 40.4005 78.4549C41.4753 78.5328 42.3909 78.4978 43.4776 78.6886C44.6679 78.899 46.093 78.5796 47.0364 79.4561C47.7529 80.1223 47.9798 80.9326 48.0873 81.7157C46.905 82.3001 46.0333 83.087 45.1893 84.0415L43.0636 86.4452C42.6456 86.9166 42.371 87.1153 42.2675 87.8827L41.75 88.9814L40.8901 89.6086C40.6274 90.38 40.1577 90.9877 39.4093 91.3188C39.254 93.033 36.5591 94.0927 35.2852 94.0654C34.9349 94.0576 34.3896 93.3486 33.9676 94.0225C33.8243 93.7888 33.681 93.7459 33.5775 93.7303C33.4143 93.7031 33.1715 93.855 33.0043 93.9797C32.7615 93.5667 32.3475 93.9329 32.1325 93.9134C31.6906 93.8706 31.3284 93.5784 30.7552 93.7342C28.9001 94.2329 28.4344 93.3096 27.8174 93.968L30.8467 95.6042C31.611 96.0172 32.3833 96.7613 33.2352 96.5743C33.6929 97.3379 34.6205 97.521 35.3967 97.9028L39.1466 99.7494C39.684 100.014 40.082 100.209 40.6393 100.447L42.566 101.269C43.0278 101.464 43.187 101.436 43.5532 101.678L44.3056 102.169L46.1726 102.843C47.4106 100.193 49.604 98.3235 52.1994 96.8509C52.7766 96.5236 53.4772 96.4574 53.8952 95.951L55.7502 96.8937C56.5225 98.9001 57.454 100.653 58.5129 102.465C58.4492 102.835 58.7597 103.259 58.8592 103.602C59.0781 104.362 59.1379 105.328 58.9746 106.103L57.8441 108.184C58.907 109.076 60.0773 108.885 60.1888 109.952C61.8408 110.697 63.5605 111.406 65.0532 112.473C65.8295 113.026 66.8685 113.279 67.4098 114.156L69.3803 117.339L70.6462 119.7C71.2353 122.29 72.1549 124.067 72.1828 124.515L72.3619 127.542L72.5848 134.648L77.9747 135.895C80.5861 136.498 83.6752 140.301 84.746 142.884C84.1449 142.845 83.6871 143.273 83.2811 143.394L81.2668 143.994L76.3745 145.338L72.1191 145.899C65.6981 146.744 57.7685 144.968 51.7775 142.459C51.3197 142.268 50.2926 141.797 50.4718 141.181C51.0132 139.307 54.4923 136.475 56.8569 135.867L58.1467 131.613L58.2661 127.012L58.3855 120.393C57.7884 119.447 56.634 119.147 55.8498 118.722L52.4582 116.899L46.8015 113.537L42.0804 110.895C41.7181 110.693 40.6991 110.319 40.4164 110.813L39.4889 112.438C39.0669 113.178 38.2867 113.591 37.7971 114.172C37.5702 114.44 37.4786 115.095 37.0328 115.399C36.7382 115.597 36.7422 116.462 35.8744 116.162L35.5838 117.401C34.6563 117.682 34.0154 118.243 33.7566 119.182C32.865 119.462 32.232 120.015 32.1007 120.826L31.822 120.498C31.822 120.498 30.8666 121.083 30.0904 121.523C29.2146 122.018 26.7983 122.213 26.2689 121.57C25.4369 121.644 24.6049 121.605 23.9123 121.091C23.7928 121.207 23.6137 121.445 23.5819 121.402L23.2793 120.978L21.7905 120.646L20.8272 120.163L19.0478 119.552C18.3392 119.306 17.8098 119.205 17.0097 118.87L15.3736 118.184L12.9095 116.957C12.3164 116.661 11.8466 116.603 11.349 116.147C10.0195 114.931 8.84913 113.322 9.83635 112.115C9.28701 111.121 12.3084 109.243 13.7534 107.857L18.3153 103.478C19.5215 102.317 20.5485 101.849 22.2523 101.939L25.7155 102.126C25.9703 102.141 25.8907 101.713 25.7195 101.553C25.5483 101.393 25.5006 101.304 25.2259 101.273C25.2219 101.051 25.1184 100.77 24.8676 100.575L21.2292 97.7469L15.1228 92.7096L13.9206 91.4942C12.5552 90.115 11.8108 88.4087 12.5433 86.5231C13.5862 85.9933 14.2868 85.105 14.8163 84.0804L16.6832 81.6534C17.7859 80.2236 18.7771 78.7705 19.7842 77.2628C20.2699 76.5304 20.6998 75.9577 21.3168 75.346L22.8255 73.8384C23.2554 73.4059 23.5898 72.4709 24.1511 72.2567C24.8 72.0073 24.9353 71.7307 25.3175 71.3918L27.3198 69.5997C27.2282 69.4829 27.1088 69.3309 27.1526 69.2842L27.4233 69.0037C26.0022 68.8751 23.8446 67.2506 24.0516 66.3662C24.5134 64.3716 25.0587 62.4509 25.4011 60.4095L26.1256 56.0969C26.2052 55.6255 26.6669 55.2632 26.9655 55.1541C27.3118 55.0255 28.0483 55.0567 28.4025 55.2905L31.623 57.4331C33.3466 58.5824 34.8076 59.9343 35.9421 61.7614C36.2605 61.664 36.2605 61.3251 36.3441 61.1458C38.0359 60.3355 38.2708 58.9642 39.7039 58.4538L40.2453 57.5617C41.2922 57.1215 41.8415 56.3112 42.5183 55.532C43.39 54.5308 44.3375 53.775 45.2331 52.8556L46.1049 51.9634C46.503 51.5544 46.8931 50.783 47.0563 50.1986C47.6773 47.9702 45.062 46.6496 46.3318 45.7418C46.9329 45.3133 47.2553 45.8743 47.6574 46.1548C49.8189 47.6547 51.2401 50.4207 50.1692 52.653H50.1613ZM45.0938 60.2693C44.2419 60.2264 43.6209 61.1458 43.9633 61.6874L48.0077 61.8003C49.6716 61.8471 50.6947 60.99 51.6501 59.7589L53.9629 56.7631C52.494 56.7202 51.0211 56.3735 49.6478 56.5917L48.0873 56.8371C47.6534 56.9072 47.1081 57.4526 46.8971 57.9006L48.1908 57.8305C48.8437 57.7955 49.5443 57.9941 50.221 57.7059C50.7266 57.4916 51.6381 58.1928 51.3515 58.4967C50.4081 59.4979 48.8636 59.4784 47.6654 59.8953C46.8214 60.1875 46.1009 60.3238 45.0938 60.2693ZM30.3213 61.6913C30.6517 61.029 31.814 61.7536 32.037 62.3185L32.9923 64.7261C33.3506 63.908 34.1826 63.2184 34.8155 62.7275L32.8849 61.0835L31.3961 59.9693C30.576 59.3538 29.7998 58.6214 28.7568 58.337L28.4861 61.0991L27.8373 65.0105L30.7472 66.5688C32.6699 65.0066 30.2576 64.0521 30.3213 61.699V61.6913ZM54.146 111.725L50.8181 109.82L45.0858 106.512L43.0835 105.301L35.9222 101.23L32.9844 99.6442C30.8626 98.7326 28.9797 97.5989 27.1247 96.2587L23.6177 93.7303L19.828 90.8163C18.2516 87.2477 18.5502 86.4686 20.6043 83.1649L23.1201 79.1211C23.0484 79.0782 22.9449 78.9886 22.8773 78.9107L20.3614 81.6378C19.629 82.4325 18.8169 83.1922 18.4785 84.2519L17.0932 88.5762C16.7748 89.5657 17.2047 90.6215 18.1083 91.276L21.5557 93.7888L25.3095 96.1263L34.1786 101.436L38.9714 104.459C40.1457 105.2 41.2683 105.819 42.57 106.435L47.8326 108.916L51.4112 110.693L53.9788 111.947C54.0146 111.885 54.0624 111.834 54.146 111.725ZM22.2921 89.6203C23.0644 89.7449 23.7252 89.4177 24.4457 89.2034C25.5364 88.8801 26.7744 88.9697 27.9527 88.8996C29.7719 88.8489 31.4876 88.8918 33.267 89.4528C35.5002 88.8996 37.6219 87.8516 38.6808 85.8258C39.2341 85.5725 39.262 85.07 39.5805 84.6531L41.1369 82.6273C41.2126 82.5299 41.4833 82.3741 41.4992 82.2806C41.5151 82.1871 41.2962 81.9767 41.1966 81.9884C41.0971 82.0001 40.914 82.2221 40.8026 82.3507C40.2333 82.2923 39.7914 82.0079 39.2341 82.1092C38.5932 82.226 37.8289 82.0079 37.1283 82.0196L34.7399 82.0546C33.6492 82.0702 32.5465 81.9533 31.4996 82.3312C30.7154 82.1754 29.9988 82.2923 29.4176 82.7676C28.4662 82.4052 27.897 83.2818 27.1844 83.6597L26.2052 84.1778L24.6248 85.7634L28.717 84.5752L34.7877 84.283C35.3012 84.2596 35.7749 84.435 36.4596 84.5479C36.1053 85.2687 35.5082 85.6232 34.7279 85.7245L29.8953 86.3439C27.2282 87.0724 24.8477 88.3035 22.2881 89.6281L22.2921 89.6203ZM53.3737 105.059L52.8403 106.711C53.4016 106.723 53.7639 106.894 54.0306 107.218L54.6675 106.103C55.189 104.541 54.0545 102.278 52.8961 100.673C52.1994 100.903 51.9168 101.686 51.3953 102.266C50.7186 103.022 49.815 103.493 49.3452 104.537C49.7433 105.102 50.4519 105.807 51.3396 105.733C51.463 105.005 51.5028 103.598 52.2193 103.458C53.1508 103.279 53.6046 104.343 53.3737 105.055V105.059ZM26.1176 114.655C26.7227 115.118 27.5228 114.912 28.2672 115.009C29.8436 115.22 31.1851 114.643 32.1683 113.357L33.9796 111.55C34.2144 111.316 34.3498 111.117 34.4573 110.81C35.3131 110.389 35.739 109.329 36.5073 108.628C35.4763 107.599 34.0074 107.362 32.5744 107.732C28.5697 107.116 23.5819 110.186 21.902 109.391C21.3925 109.15 22.109 108.328 22.511 108.16L28.2553 105.741L31.5871 104.993C30.7432 104.802 29.9431 104.498 29.1708 104.475L25.4528 104.362L23.351 104.42L21.5079 104.627C20.5485 106.201 19.1553 107.299 17.8735 108.542L17.2127 109.181L15.8513 110.385L13.5703 112.586C15.6244 113.291 17.5272 113.443 19.5613 113.837L22.0811 114.324L24.4377 114.592C24.9791 114.655 25.6797 114.908 26.1096 114.663L26.1176 114.655ZM54.2336 111.893L54.1181 112.041L57.6212 113.84L57.8003 113.685C56.7972 112.913 55.4955 112.235 54.2336 111.893ZM57.9118 113.833L57.8083 113.922C57.8879 114.491 58.4611 114.557 58.8791 114.904L61.6776 117.214C62.6728 118.036 62.7842 119.026 62.8519 120.222L63.0509 123.818L62.8559 126.997L62.8439 135.657C62.8439 136.389 62.6489 137.578 63.449 138.139C64.1536 138.598 65.6265 138.053 66.4186 137.893C66.6376 136.978 66.4545 136.335 66.3908 135.567L66.0444 131.469L65.4235 122.777L65.2801 120.884C65.2085 119.961 64.5278 118.909 64.6193 117.982L63.6719 116.626C62.8678 116.275 62.2946 115.862 61.5223 115.485L59.3568 114.425C58.8274 114.168 58.4572 113.817 57.9038 113.833H57.9118Z" fill="#3A1C36"/>
<path d="M33.2479 96.5852C32.396 96.7722 31.6237 96.0281 30.8594 95.6151L27.8301 93.9789C28.4471 93.3205 28.9128 94.2438 30.7679 93.7451C31.3411 93.5893 31.7073 93.8815 32.1452 93.9243C32.3562 93.9438 32.7742 93.5776 33.017 93.9905C33.1842 93.8659 33.427 93.7139 33.5902 93.7412C33.6897 93.7568 33.837 93.7997 33.9803 94.0334C34.4023 93.3594 34.9437 94.0724 35.298 94.0763C36.5718 94.1035 39.2668 93.0439 39.422 91.3297C40.1704 91.0025 40.6401 90.3908 40.9028 89.6195L41.7627 88.9922L42.2802 87.8936C42.3837 87.1261 42.6623 86.9275 43.0763 86.4561L45.202 84.0524C46.046 83.0979 46.9177 82.3109 48.1 81.7266C48.5817 82.2876 48.4822 83.768 47.8094 84.6484L47.1526 85.5133C46.6709 86.1483 46.3485 86.6392 45.7355 87.2002C45.3852 87.5196 45.6479 88.7156 44.5731 88.5715C44.585 89.561 43.6257 89.9857 43.2435 90.6285C42.7141 91.5167 42.2404 92.2024 41.48 92.9971C40.8909 93.6165 40.5724 94.871 39.5653 95.0931C39.016 95.2138 38.8169 95.3268 38.4706 95.7748C37.6227 96.3904 36.7708 96.1254 36.6594 96.8306C36.0185 95.9813 34.9755 97.5046 34.7287 96.2618L33.2518 96.5852H33.2479Z" fill="#D3FA33"/>
<path d="M36.3365 61.1502C36.2529 61.3294 36.2529 61.6722 35.9344 61.7657C34.7999 59.9386 33.339 58.5868 31.6153 57.4375L28.3949 55.2948C28.0446 55.0611 27.3082 55.0299 26.9579 55.1585C26.6593 55.2675 26.1975 55.6298 26.1179 56.1012L25.3934 60.4139C25.0511 62.4592 24.5057 64.3759 24.044 66.3706C23.837 67.2588 25.9945 68.8834 27.4157 69.008L27.145 69.2885C27.1012 69.3353 27.2206 69.4872 27.3122 69.6041L25.3098 71.3962C24.4779 71.4156 23.8927 69.4989 24.1116 68.1276L23.7335 66.3082C24.032 65.6031 23.6658 65.3577 23.6379 64.8512L23.3473 59.1244C23.2797 58.9491 23.0169 58.8945 22.7383 58.5595C23.3513 58.0959 23.3235 57.1726 23.6817 56.6934L26.6832 54.6871C27.2166 54.3325 27.547 54.2196 28.1402 53.9235C28.5342 53.7287 29.1314 52.9885 29.6727 52.9963C29.9036 52.9963 30.2698 52.4703 30.6003 52.7119C31.1018 53.0703 31.8502 53.1755 32.4831 53.1209C32.312 53.9508 33.2594 54.1923 33.4266 54.5702L34.5571 57.0908L36.3285 61.158L36.3365 61.1502Z" fill="#D3FA33"/>
<path d="M25.2301 101.278C25.5048 101.31 25.5605 101.399 25.7237 101.559C25.887 101.719 25.9745 102.147 25.7198 102.132L22.2565 101.945C20.5528 101.851 19.5297 102.323 18.3196 103.483L13.7576 107.862C12.3126 109.249 9.29123 111.131 9.84057 112.12C9.5659 111.817 9.19569 111.669 8.75781 111.485L9.15987 109.541L10.175 108.688C10.2745 107.913 10.9273 107.827 11.3134 107.442C13.065 105.688 13.2879 104.411 13.885 103.928L15.1827 102.883L16.5999 100.881C16.8745 100.491 17.0497 99.9694 17.7901 99.9383C18.435 99.3344 19.47 99.1786 20.1786 99.7318C20.907 99.424 21.5201 99.6149 22.0455 100.195C22.2923 100.137 22.7461 99.9539 22.9691 100.082C23.7453 100.542 24.3942 101.181 25.2341 101.275L25.2301 101.278Z" fill="#D3FA33"/>
<path d="M53.908 95.96C53.494 96.4664 52.7934 96.5327 52.2122 96.8599C49.6207 98.3325 47.4233 100.203 46.1853 102.852L44.3184 102.178C44.6766 100.841 45.4489 99.6766 46.2411 98.4962L47.2243 97.5378L48.5459 96.0223C49.2704 95.1886 50.4567 94.1913 51.6827 94.5653L53.4542 95.1068L53.908 95.96Z" fill="#D3FA33"/>
<path d="M60.5314 55.2103C60.1691 55.0779 59.9621 54.735 59.6038 54.4156L56.0729 54.2442L53.0237 54.0766C51.8653 54.0143 50.7666 54.0065 49.5445 54.2987C49.3136 53.5507 49.9067 53.1845 50.1615 52.6508L51.6503 52.3235L54.6558 52.0976L59.9462 52.0703C60.4438 53.6208 61.6062 52.9897 61.2558 54.5091C61.1603 54.922 60.9971 55.1207 60.5314 55.2103Z" fill="#D3FA33"/>
<path d="M34.4611 110.811C33.7764 111.146 33.1236 111.239 33.1833 112.198C31.595 111.368 31.9652 113.374 30.7351 113.066C30.5321 113.016 30.2893 113.024 30.2336 113.141C30.1738 113.265 30.0703 113.737 29.939 113.721L29.2861 113.647C29.1389 113.631 28.9557 113.931 28.8721 114.146C27.9367 114.029 26.9693 114.169 26.1175 114.66C25.6875 114.909 24.9869 114.652 24.4456 114.59L22.089 114.321L19.5691 113.834C17.535 113.44 15.6322 113.289 13.5781 112.583L15.8591 110.382L17.2205 109.178L17.8813 108.54C19.1631 107.301 20.5564 106.198 21.5157 104.624L23.3588 104.418L25.4606 104.359L29.1787 104.472C29.9509 104.496 30.7511 104.8 31.595 104.99L28.2631 105.738L22.5189 108.158C22.1208 108.325 21.4043 109.147 21.9098 109.389C23.5897 110.184 28.5776 107.114 32.5822 107.729C34.0153 107.359 35.4842 107.597 36.5152 108.625C35.7469 109.323 35.3249 110.386 34.4651 110.807L34.4611 110.811Z" fill="#D3FA33"/>
<path d="M30.3219 61.6902C30.2582 64.0433 32.6705 65.0016 30.7478 66.56L27.8379 65.0016L28.4868 61.0902L28.7574 58.3281C29.8004 58.6125 30.5766 59.3488 31.3967 59.9605L32.8855 61.0747L34.8161 62.7187C34.1832 63.2096 33.3512 63.903 32.993 64.7172L32.0376 62.3096C31.8147 61.7447 30.6523 61.0201 30.3219 61.6824V61.6902Z" fill="#D3FA33"/>
<path d="M45.0937 60.2726C46.1008 60.3271 46.8253 60.1908 47.6652 59.8986C48.8634 59.4817 50.408 59.5012 51.3514 58.5C51.638 58.1961 50.7304 57.4949 50.2209 57.7091C49.5441 57.9935 48.8435 57.7987 48.1907 57.8338L46.8969 57.9039C47.1079 57.4559 47.6533 56.9105 48.0872 56.8404L49.6476 56.5949C51.021 56.3768 52.4939 56.7235 53.9628 56.7663L51.6499 59.7622C50.6986 60.9972 49.6755 61.8504 48.0076 61.8036L43.9631 61.6906C43.6248 61.1491 44.2458 60.2297 45.0937 60.2726Z" fill="#D3FA33"/>
<path d="M53.3742 105.062C53.6051 104.346 53.1553 103.286 52.2198 103.465C51.5033 103.602 51.4635 105.012 51.3401 105.74C50.4524 105.818 49.7478 105.109 49.3457 104.544C49.8154 103.5 50.7191 103.025 51.3958 102.273C51.9173 101.693 52.1999 100.91 52.8965 100.68C54.0549 102.285 55.1894 104.544 54.668 106.11L54.031 107.225C53.7643 106.901 53.4021 106.734 52.8408 106.718L53.3742 105.066V105.062Z" fill="#D3FA33"/>
<path d="M22.293 89.6165C24.8526 88.2958 27.2331 87.0608 29.9002 86.3323L34.7328 85.7129C35.517 85.6116 36.1101 85.2571 36.4644 84.5363C35.7797 84.4233 35.306 84.248 34.7925 84.2714L28.7219 84.5636L24.6297 85.7518L26.21 84.1662L27.1893 83.6481C27.9018 83.2702 28.4711 82.3936 29.4225 82.7559C30.0037 82.2807 30.7202 82.1638 31.5044 82.3196C32.5513 81.9378 33.654 82.0547 34.7447 82.043L37.1332 82.0079C37.8338 81.9963 38.5981 82.2144 39.239 82.0976C39.7963 81.9963 40.2382 82.2807 40.8074 82.3391C40.9189 82.2105 41.102 81.9846 41.2015 81.9768C41.301 81.969 41.52 82.1716 41.504 82.269C41.4881 82.3664 41.2174 82.5183 41.1418 82.6157L39.5853 84.6415C39.2629 85.0584 39.239 85.5648 38.6857 85.8141C37.6308 87.84 35.5051 88.8879 33.2719 89.4411C31.4964 88.8801 29.7768 88.8373 27.9576 88.8879C26.7793 88.9581 25.5413 88.8685 24.4505 89.1918C23.726 89.4061 23.0692 89.7333 22.2969 89.6087L22.293 89.6165Z" fill="#D3FA33"/>
<path d="M9.39766 24.5523C9.20658 23.8394 9.68825 23.3524 10.4685 22.8849C9.39766 22.4213 8.46617 22.5382 7.45108 22.3473C6.88581 22.2421 5.58411 22.0629 5.2338 22.5966C5.03078 22.9317 5.09049 23.6329 4.49338 23.9212C4.29833 24.1043 4.14308 24.6731 4.08337 25.0081L6.53949 25.5029L8.37859 26.1613C9.31804 26.4963 9.85146 27.1158 9.87137 27.9534L9.29416 29.3714L8.36665 31.4635C8.14771 31.9621 7.86507 32.3829 7.63021 32.8855L6.61512 35.0749L4.15502 40.7277C3.38674 42.4886 2.74982 44.5183 3.25935 46.2714C4.24658 46.3377 5.10642 46.2052 5.91053 46.026C6.85794 45.8195 7.74565 45.4923 8.74084 45.6091C11.193 45.8974 11.1054 42.8587 11.4796 41.0121C11.81 39.3875 12.5624 37.9656 12.6579 36.1423L10.365 37.0618C10.6158 38.0084 10.4247 38.585 10.0585 39.2395C9.66039 39.52 9.25833 39.2239 8.99959 39.0603C8.52986 38.7681 8.52986 38.2539 8.40646 37.7903C8.26713 37.2604 7.90488 36.8046 8.08003 36.2709C8.15567 36.0644 8.39849 35.9203 8.29897 35.6086C10.1142 34.397 12.2439 33.7581 14.6483 33.6646C15.3329 34.7321 16.0176 36.2047 15.5479 37.4825L15.3369 38.8772C15.0981 40.4589 14.9787 42.1653 14.6244 43.3145L14.1984 44.6819L13.458 47.0077C13.3824 47.2415 12.8211 47.4597 12.9246 47.8103C12.0648 48.6751 10.6795 49.1699 9.43747 49.392C7.83323 49.6803 5.91053 50.0387 4.54513 49.84C4.29833 49.8049 3.745 49.9608 3.52208 50.0231C3.09216 50.2646 2.8772 50.1049 2.3398 50.0309C1.71084 49.9413 0.659928 50.0543 0.24593 49.131C-0.259624 48.009 0.150392 46.5247 0.162335 45.2274C0.174277 43.4742 0.723619 41.8341 1.48394 40.2018L5.67566 31.1986C5.91451 30.6882 6.25685 30.2519 6.56337 29.5857L7.19233 28.2183C7.19233 27.6261 6.5992 27.9105 6.36831 27.856C5.06263 27.5365 3.70122 27.1197 2.39155 27.3184L1.05402 26.5548C0.500698 25.9392 0.429044 24.7354 0.914695 24.1861C1.51181 23.5199 1.87007 22.9589 2.04523 22.0045C2.1129 21.6461 2.6702 21.1825 2.49107 20.7539C3.41858 19.5696 4.71232 19.4917 6.21306 19.8072C6.62308 19.8929 7.07291 19.8306 7.53467 19.9553C9.0593 20.376 10.6118 20.6955 11.802 21.759C12.2081 22.1175 12.5066 22.6629 12.3554 23.0719C12.1006 23.7576 10.56 24.7861 9.40164 24.5406L9.39766 24.5523Z" fill="#3A1C36"/>
<path d="M30.4831 26.5027L32.9591 28.2325L34.2688 29.2921L34.0698 30.4804C33.6558 31.3452 32.7322 31.727 31.9719 32.0582L30.4911 32.7088L27.5214 33.858C26.6735 34.1853 25.344 34.0333 24.4602 33.784C23.5765 33.5347 21.61 32.062 22.2748 31.0803L23.4889 29.2337C23.7556 28.9999 24.0303 28.7974 24.3727 28.6415C24.5876 29.0038 25.133 28.9064 25.4116 29.0662C25.9769 29.3856 26.4426 29.8921 26.2954 30.5271C25.8296 30.5271 24.8105 30.6674 24.5797 31.1349C24.3766 31.5478 24.9857 31.8478 25.2285 31.9491C25.5311 32.0737 25.8814 31.9062 26.2556 31.7504L30.2045 30.0752C30.6742 29.8765 31.1996 29.8687 31.3191 29.3116C29.2292 28.1546 27.0836 27.5897 24.8026 27.1533C23.8631 26.9741 22.9277 26.6352 21.9643 26.53C20.7661 26.3976 19.4564 26.1872 19.1778 24.9834C19.4564 24.4107 19.8704 23.9003 20.4755 23.5147L22.8401 22.0226C23.2222 21.781 23.6681 21.6953 24.0542 21.0408C22.4102 20.9473 19.6515 21.3252 19.552 21.4927C19.4286 21.7031 19.6595 21.7304 19.7192 21.8395C19.8426 22.0654 19.8187 22.5251 19.7829 22.8563C18.6643 23.1601 17.3387 21.4148 17.5497 20.811C17.7806 20.1526 18.2025 20.1253 18.7558 19.9422C20.0774 19.502 21.196 19.1397 22.641 19.2565C24.2572 19.389 25.7659 18.9683 26.7412 20.55C26.8009 21.5005 26.2436 22.3966 25.6385 23.0043L24.3289 24.3211C26.7731 24.7418 30.0373 26.5884 30.4791 26.5027H30.4831Z" fill="#3A1C36"/>
<path d="M23.6879 45.6117C22.3265 47.5128 21.18 46.4766 21.1044 47.5128L18.2542 47.7739C17.669 47.8284 17.0242 47.3453 16.3833 47.3804C15.8857 47.4077 15.9653 46.7103 15.8379 46.4493C15.9175 46.1337 15.806 45.6312 15.9215 45.2026L16.7216 42.1951C17.0242 41.0575 17.872 40.5355 18.9269 40.738C19.6077 41.3146 20.3958 41.8094 20.9412 42.6626C20.0893 43.7456 18.5209 43.3638 19.1459 44.2676C19.9341 44.2248 20.7143 44.2871 21.5741 43.9248L21.4587 41.5873C21.4109 40.6017 21.188 39.507 21.7573 38.5992C22.2907 37.75 23.7994 39.9316 23.4929 40.7264C23.262 41.3302 23.7118 41.8406 23.7476 42.2301L24.0064 45.0468C24.0223 45.2026 23.7835 45.487 23.6919 45.6156L23.6879 45.6117Z" fill="#3A1C36"/>
<path d="M35.2121 37.5562C35.3673 38.2614 34.6627 38.6743 34.7384 39.3756C34.2885 39.5314 33.8109 40.0378 33.6994 40.4936C33.6158 40.4469 33.4128 40.2794 33.377 40.3378L33.0824 40.7975C32.1827 41.1988 31.2552 41.8026 30.479 42.4065L28.8867 42.7259C28.3373 42.4805 27.7482 42.4065 27.1988 42.6208L26.7729 42.4221C26.9122 42.2779 26.9242 42.0676 26.7411 41.8416L24.691 39.3366C23.9943 38.4834 23.4052 37.5484 24.1576 36.7576C25.3876 35.4642 27.1312 39.1223 27.8397 39.3833C28.3294 39.5625 28.6638 39.2236 29.1454 39.0444C30.0331 38.7094 30.9686 38.4133 31.5219 37.751H31.8603C32.1071 37.751 31.1517 36.8433 30.5944 36.9095C30.3237 36.9407 30.2959 37.3147 30.1884 37.4744C30.061 37.6341 29.7187 37.8445 29.5196 37.9224L28.9504 37.0225C29.647 36.9718 30.0132 36.7498 30.1008 36.0992C30.4232 36.0992 30.7019 36.1732 31.0005 35.8498L29.9694 35.3746C30.6302 35.1213 31.1358 35.133 31.8762 35.5148L34.6986 36.9757L35.2161 37.5562H35.2121Z" fill="#3A1C36"/>
<path d="M19.3935 32.2457C18.9556 32.5223 17.8211 32.608 17.3076 32.3236C15.369 31.2523 13.8085 27.5084 13.8125 25.4164V23.9204C13.8205 22.44 15.0824 20.235 16.5473 20.6947C17.6062 21.0258 17.9764 22.4166 17.6261 23.3828C17.3992 24.01 17.7694 24.7424 17.7216 25.3696L17.4907 25.7553L17.8808 26.2501C18.5098 29.5109 20.4603 30.4537 19.3895 32.2457H19.3935Z" fill="#3A1C36"/>
<path d="M8.30283 35.6201C8.40234 35.9317 8.15554 36.072 8.08388 36.2824C7.88883 36.8278 7.32356 37.5602 7.30366 38.1407C7.27977 38.8146 6.74237 38.9042 6.62295 39.2315C6.23284 40.2951 5.50038 41.0586 5.26552 41.9975C5.17794 42.4183 5.22173 43.0533 4.75598 43.4273L4.58879 45.8544C5.16202 45.6596 5.61582 45.7063 5.9104 46.0336C5.10629 46.2089 4.25043 46.3452 3.25922 46.279C2.74969 44.5259 3.38661 42.5001 4.15489 40.7353L6.61499 35.0825L7.63008 32.893C7.86494 32.3866 8.14758 31.9658 8.36652 31.4711L9.29403 29.379L9.87124 27.9609L10.8823 29.3868L10.1379 30.4504C10.2653 31.1983 9.93891 31.9619 9.40549 32.4177L9.49705 32.967C9.50899 33.045 9.20645 33.1307 9.02334 33.193C9.15869 34.3812 8.07194 34.9072 8.30283 35.624V35.6201Z" fill="#D3FA33"/>
<path d="M26.2993 30.5242C27.4219 30.5164 28.6281 30.7502 29.4879 29.6438C29.0739 29.2931 28.5285 29.5308 28.1384 29.597L27.8399 29.1646L27.2189 29.1918C27.2189 29.1918 25.6465 28.7984 25.7699 28.6464L25.4116 29.0672C25.133 28.9074 24.5876 29.0048 24.3726 28.6425C23.9268 27.8906 22.852 27.9958 22.0359 27.8166C20.8417 27.5517 19.8983 26.7764 18.9668 26.1025C19.0464 25.635 19.0185 25.3077 19.1778 24.9844C19.4564 26.1843 20.7661 26.3985 21.9643 26.531C22.9276 26.6362 23.8631 26.9751 24.8026 27.1543C27.0796 27.5907 29.2292 28.1595 31.319 29.3126C31.1996 29.8658 30.6742 29.8775 30.2044 30.0762L26.2555 31.7514C25.8813 31.9111 25.531 32.0786 25.2285 31.9501C24.9897 31.8488 24.3766 31.5488 24.5796 31.1358C24.8105 30.6684 25.8296 30.5281 26.2953 30.5281L26.2993 30.5242Z" fill="#D3FA33"/>
<path d="M22.6624 33.3331C22.8773 33.3759 23.0724 33.4889 23.1759 33.5707C23.6934 34.1862 23.8447 35.3199 23.3311 36.0796L21.914 37.2639L19.9197 36.1263C19.3345 35.0706 19.7684 33.5006 21.1537 33.0915C21.6234 32.9513 22.2524 33.2512 22.6664 33.3292L22.6624 33.3331Z" fill="#3A1C36"/>
<path d="M23.4926 29.2344L22.2785 31.081C21.6137 32.0627 23.6041 33.5431 24.4639 33.7847C25.3237 34.0262 26.6772 34.1859 27.5251 33.8587L30.4947 32.7094L31.9756 32.0588C30.7097 34.3496 29.408 34.1197 28.3173 34.4625C27.9033 34.5911 27.2186 34.1743 26.8245 34.7781C26.2274 34.2405 25.5984 34.521 24.9973 34.3885L24.0021 34.1704L23.1781 33.5821C23.0786 33.5003 22.8796 33.3834 22.6646 33.3444C22.5253 33.1536 22.374 33.0328 22.1232 32.9432C21.0683 32.5653 21.4744 31.6848 21.3908 30.5979C21.972 29.9941 22.7601 29.4798 23.4926 29.2422V29.2344Z" fill="#D3FA33"/>
<path d="M5.67481 31.2106C5.75045 31.0158 5.65889 30.7042 5.45189 30.4977C5.33645 30.3808 5.23693 29.999 4.84682 30.4548L2.38672 27.3343C3.69638 27.1317 5.0578 27.5525 6.36348 27.8719C6.59437 27.9264 7.19148 27.6421 7.1875 28.2342L6.55854 29.6016C6.25202 30.2678 5.90968 30.7042 5.67083 31.2145L5.67481 31.2106Z" fill="#D3FA33"/>
<path d="M9.39828 24.5473C9.15545 24.4966 8.7932 24.4771 8.60213 24.1343C8.49465 23.9434 8.86884 23.6512 8.92457 23.2266C8.216 23.6045 7.58704 23.8538 6.974 23.3123C6.46845 23.8538 5.77978 23.4525 5.50113 24.2668C5.97484 24.5122 6.46845 24.9096 6.5401 25.4978L4.08398 25.0031C4.1437 24.668 4.29894 24.0953 4.494 23.9161C5.08713 23.6317 5.0314 22.9305 5.23442 22.5916C5.58472 22.0578 6.88643 22.237 7.45169 22.3422C8.4628 22.5331 9.39828 22.4162 10.4691 22.8798C9.68887 23.3473 9.2072 23.8343 9.39828 24.5473Z" fill="#D3FA33"/>
<path d="M33.6997 40.4962C33.5245 41.213 31.8327 42.3389 30.7022 43.122C29.8264 43.7258 29.0661 43.8271 28.0749 43.2232C27.8162 43.0674 27.1195 43.1843 27.1952 42.6233C27.7445 42.4129 28.3376 42.483 28.883 42.7285L30.4753 42.409C31.2555 41.8013 32.179 41.1974 33.0787 40.8001L33.3733 40.3404C33.4091 40.2819 33.6081 40.4494 33.6957 40.4962H33.6997Z" fill="#D3FA33"/>
<path d="M18.9315 40.7344C17.8766 40.5357 17.0287 41.0538 16.7262 42.1914L15.926 45.199C15.8106 45.6275 15.926 46.1301 15.8425 46.4456C15.3807 45.5223 15.5797 44.0069 15.926 42.9511L16.4197 41.4278C16.5829 40.9253 16.973 40.3409 17.6338 40.2279C18.008 40.1656 18.5812 40.4305 18.9355 40.7305L18.9315 40.7344Z" fill="#D3FA33"/>
<path d="M2.49027 20.7656C2.66941 21.1981 2.1121 21.6578 2.04443 22.0162C1.86928 22.9706 1.51101 23.5278 0.913898 24.1978C0.364555 23.6719 0.380478 22.0201 0.929821 21.5837C1.37964 21.2253 1.94889 20.8396 2.49027 20.7695V20.7656Z" fill="#D3FA33"/>
<path d="M29.9667 35.375L30.9977 35.8503C30.7031 36.1697 30.4245 36.0957 30.0981 36.0996C30.0105 36.7463 29.6443 36.9723 28.9476 37.0229L29.5169 37.9229C29.1865 38.0514 28.3426 37.7592 28.2988 37.3502C28.1793 36.2087 29.1865 35.6789 29.9667 35.3789V35.375Z" fill="#2F360F"/>
<path d="M22.8414 22.0226C22.9847 21.1149 21.5516 22.2914 19.7244 21.8356C19.6647 21.7265 19.4338 21.6993 19.5572 21.4889C19.6528 21.3253 22.4114 20.9474 24.0595 21.037C23.6693 21.6915 23.2275 21.7772 22.8453 22.0187L22.8414 22.0226Z" fill="#D3FA33"/>
<path d="M21.1094 47.5105C21.185 46.4781 22.3315 47.5105 23.6929 45.6094C23.7207 45.8197 23.8242 46.3418 23.6172 46.5794C22.9007 47.1015 21.9294 47.4326 21.1134 47.5066L21.1094 47.5105Z" fill="#D3FA33"/>
<path d="M32.9604 28.2347L30.4844 26.5049C31.3442 26.3374 34.1506 27.8685 32.9604 28.2347Z" fill="#D3FA33"/>
<path d="M31.5191 37.7512C30.8583 37.5214 30.289 37.9421 30.1855 37.4746C30.293 37.3149 30.3209 36.9448 30.5916 36.9097C31.1489 36.8435 32.1043 37.7473 31.8575 37.7473H31.5191V37.7512Z" fill="#D3FA33"/>
<path d="M26.7657 42.4214C26.3437 42.2227 26.1765 41.7513 25.8461 41.4397C25.1972 40.8202 24.6399 40.1735 24.6797 39.3359L26.7298 41.8409C26.9129 42.0669 26.905 42.2773 26.7617 42.4214H26.7657Z" fill="#D3FA33"/>
<path d="M34.7395 39.3818C34.6679 38.6806 35.3685 38.2676 35.2132 37.5625C35.3924 37.7612 35.8143 38.1819 35.5874 38.4975C35.2332 38.9884 35.0062 39.3779 34.9227 39.8961C34.7117 39.6896 34.7435 39.5065 34.7356 39.3857L34.7395 39.3818Z" fill="#D3FA33"/>
<path d="M8.74023 45.6113L9.46075 42.6349L9.79513 40.9831C9.90659 40.4299 9.81105 39.6819 10.0579 39.2378C10.4201 38.5833 10.6152 38.0067 10.3644 37.06L12.6573 36.1406C12.5578 37.9639 11.8094 39.3858 11.479 41.0104C11.1008 42.857 11.1924 45.8957 8.74023 45.6074V45.6113Z" fill="#D3FA33"/>
</g>
<defs>
<clipPath id="clip0_4302_2933">
<rect width="219.741" height="215.859" fill="white"/>
</clipPath>
</defs>
</svg>
