<svg width="20" height="20" viewBox="0 0 20 20" fill="none" xmlns="http://www.w3.org/2000/svg">
<circle opacity="0.8" cx="10" cy="10" r="10" fill="#1A1A1A"/>
<path d="M4.62528 9.85342C4.58212 9.81692 4.52857 9.79164 4.47122 9.78729C4.41391 9.78291 4.35808 9.79936 4.31467 9.83409C4.27126 9.86882 4.24295 9.91968 4.23464 9.97655C4.2263 10.0335 4.23921 10.0912 4.26535 10.1414C4.26535 10.1414 4.26535 10.1414 4.26535 10.1414C4.38978 10.3789 4.51821 10.6132 4.65063 10.8443C5.18035 11.7688 5.77405 12.6421 6.43174 13.4642C6.59728 13.6712 6.76328 13.8777 6.92972 14.0839L7.31484 14.5697L7.79859 14.1736C10.4257 11.9841 12.9916 9.72046 15.4963 7.3828C15.6891 7.20289 15.8815 7.02254 16.0736 6.84175C16.1167 6.80108 16.1447 6.74584 16.1497 6.68616C16.1547 6.62649 16.1365 6.56758 16.0988 6.52196C16.0611 6.47635 16.0067 6.44738 15.9472 6.44101C15.8876 6.43462 15.8281 6.45167 15.78 6.48638C15.78 6.48638 15.78 6.48638 15.78 6.48638C15.5662 6.64085 15.3528 6.79575 15.1397 6.9511C12.3713 8.96954 9.66403 11.062 7.01796 13.2286L7.88683 13.3183C7.72219 13.1106 7.5571 12.9033 7.39156 12.6964C6.73387 11.8743 6.01219 11.1034 5.22653 10.3836C5.03011 10.2037 4.82969 10.027 4.62528 9.85342Z" fill="white"/>
</svg>
