<svg width="106" height="103" viewBox="0 0 106 103" fill="none" xmlns="http://www.w3.org/2000/svg">
<circle cx="82.9661" cy="74.0355" r="16.8333" fill="#E9D3FF"/>
<path d="M105.069 74.7014C104.996 90.9739 85.1773 99.0153 73.8522 87.3838C67.0076 80.6704 67.0076 68.7178 73.8522 62.0045C85.1773 50.3876 104.996 58.4144 105.069 74.7014ZM102.676 74.7014C102.807 60.297 85.0314 52.7518 74.6987 62.8802C68.1313 69.0389 68.1167 80.3786 74.6987 86.5373C85.0314 96.6656 102.807 89.1205 102.676 74.716V74.7014Z" fill="black"/>
<path d="M86.8222 63.1155L87.26 74.7033C87.2892 75.6957 85.786 75.7541 85.7422 74.7617C85.7422 74.7325 86.18 63.1739 86.18 63.1301C86.18 62.7361 86.8076 62.7215 86.8222 63.1301V63.1155Z" fill="black"/>
<path d="M86.6662 74.308L93.2336 74.8188C93.5255 74.8334 93.5255 75.3004 93.2336 75.315L86.6662 75.8258C85.6008 75.8988 85.6008 74.235 86.6662 74.308Z" fill="black"/>
<path d="M77.7035 58.6158C78.0041 58.6158 78.3047 58.6158 78.6053 58.6158C78.6554 54.6233 78.703 50.6308 78.7481 46.6383C78.7992 42.1139 78.847 37.5896 78.8917 33.0652C79.1127 26.591 73.3002 20.6376 66.7318 20.745C52.3032 20.6297 37.8746 20.5471 23.4461 20.4972C16.751 20.3129 10.6807 26.3435 10.8329 33.0652C10.825 38.0824 10.8211 43.0996 10.8211 48.1169C10.8211 61.9369 10.8511 75.757 10.9111 89.5771C10.7776 96.2584 16.8205 102.218 23.4461 102.017C38.3756 101.924 53.3052 101.796 68.2347 101.633C69.5127 101.621 70.7872 101.376 71.9729 100.909C75.9527 99.3938 78.7138 95.2805 78.6053 91.0801C78.3047 91.0801 78.0041 91.0801 77.7035 91.0801C77.7041 94.9196 75.1066 98.5384 71.5506 99.7995C70.4904 100.189 69.3622 100.38 68.2347 100.366C53.3052 100.203 38.3756 100.075 23.4461 99.9822C17.9028 100.077 12.9734 95.0646 13.1358 89.5771C13.1958 75.757 13.2258 61.9369 13.2258 48.1169C13.2258 43.0996 13.2219 38.0824 13.214 33.0652C13.0703 27.6181 17.9724 22.6763 23.4461 22.7879C37.8746 22.7381 52.3032 22.6555 66.7318 22.5402C72.3321 22.3516 77.4919 27.3706 77.4171 33.0652C77.4617 37.5896 77.5096 42.1139 77.5607 46.6383C77.6058 50.6308 77.6534 54.6233 77.7035 58.6158Z" fill="black"/>
<path d="M78.75 39.9793C78.4311 39.9686 78.1253 40.0859 77.8998 40.3116C77.6743 40.5369 77.5476 40.8521 77.5476 41.1816C77.5476 41.5112 77.6743 41.8264 77.8998 42.0517C78.1253 42.2774 78.4311 42.3947 78.75 42.384C79.1293 42.3715 79.5085 42.359 79.8878 42.3464C80.6107 42.3226 81.3336 42.2987 82.0565 42.2748C85.3057 42.0592 88.5021 44.9267 88.5519 48.3959C88.6287 50.722 88.7055 53.0481 88.7824 55.3742C88.7949 55.7535 88.8074 56.1327 88.8199 56.512C88.8238 56.6277 88.8747 56.7387 88.9592 56.8205C89.0438 56.9023 89.1551 56.9482 89.2708 56.9482C89.3865 56.9482 89.4978 56.9023 89.5825 56.8205C89.667 56.7387 89.7179 56.6277 89.7217 56.512C89.7343 56.1327 89.7468 55.7535 89.7593 55.3742C89.8361 53.0481 89.9129 50.722 89.9898 48.3959C90.2265 44.1796 86.4929 40.1172 82.0565 40.0885C81.3336 40.0646 80.6107 40.0407 79.8878 40.0168C79.5085 40.0043 79.1293 39.9918 78.75 39.9793Z" fill="black"/>
<mask id="path-7-inside-1_3027_2621" fill="white">
<path d="M13.2266 40.2793H9.61942C4.30696 40.2793 0.000371933 44.5859 0.000371933 49.8983V81.7614C0.000371933 87.0739 4.30696 91.3805 9.61942 91.3805H13.2266V40.2793Z"/>
</mask>
<path d="M9.61942 40.7302C9.61942 40.4296 9.61942 40.129 9.61942 39.8284C10.8218 39.8084 12.0242 39.7888 13.2266 39.7696L13.728 39.7616L13.7363 40.2793C13.7491 41.0836 13.7618 41.8878 13.7743 42.6921C14.0264 58.9216 14.2057 75.151 14.3122 91.3805L14.3193 92.459L13.2266 92.4661C12.0242 92.474 10.8218 92.4815 9.61942 92.4886C3.90536 92.659 -1.29792 87.5155 -1.17577 81.7614C-1.19326 76.1369 -1.20201 70.5124 -1.20201 64.8879C-1.20201 59.8914 -1.13989 54.8949 -1.01564 49.8983C-0.967433 46.537 0.836408 43.3121 3.56162 41.5172C5.35363 40.3119 7.51976 39.7213 9.61942 39.8284C9.61942 40.129 9.61942 40.4296 9.61942 40.7302C7.70297 40.8256 5.8627 41.5287 4.40774 42.686C2.19232 44.4234 0.92071 47.1798 1.01638 49.8983C1.14063 54.8949 1.20275 59.8914 1.20275 64.8879C1.20275 70.5124 1.19401 76.1369 1.17651 81.7614C1.0495 86.2548 5.08609 90.3511 9.61942 90.2724C10.8218 90.2795 12.0242 90.287 13.2266 90.2948L12.1409 91.3805C12.2474 75.151 12.4267 58.9216 12.6788 42.6921C12.6913 41.8878 12.704 41.0836 12.7168 40.2793L13.2266 40.789C12.0242 40.7698 10.8218 40.7502 9.61942 40.7302ZM9.61942 39.8284V40.7302V39.8284Z" fill="black" mask="url(#path-7-inside-1_3027_2621)"/>
<mask id="path-9-inside-2_3027_2621" fill="white">
<path d="M22.8438 21.6426H67.3318V46.8926C67.3318 52.205 63.0252 56.5116 57.7128 56.5116H32.4628C27.1504 56.5116 22.8438 52.205 22.8438 46.8926V21.6426Z"/>
</mask>
<path d="M22.8438 21.1917C22.8438 21.4923 22.8438 21.7929 22.8438 22.0935C25.3514 22.1937 27.859 22.2838 30.3667 22.364C40.3972 22.6846 50.4278 22.845 60.4584 22.845C62.7495 22.845 65.0407 22.844 67.3318 22.8422L66.1323 21.6426C66.1391 30.0592 66.1585 38.4759 66.1904 46.8926C66.3218 51.4046 62.2664 55.5221 57.7128 55.4409C49.2961 55.4878 40.8795 55.5473 32.4628 55.6193C27.8197 55.7796 23.5343 51.6196 23.5933 46.8926C23.5322 40.9836 23.465 35.0745 23.3915 29.1655C23.3603 26.6579 23.328 24.1502 23.2946 21.6426C22.994 21.6426 22.6935 21.6426 22.3929 21.6426C22.3595 24.1502 22.3272 26.6579 22.296 29.1655C22.2225 35.0745 22.1553 40.9836 22.0942 46.8926C21.904 52.413 26.8585 57.4928 32.4628 57.4039C40.8795 57.476 49.2961 57.5354 57.7128 57.5823C63.4065 57.7503 68.5911 52.6279 68.4733 46.8926C68.5052 38.4759 68.5246 30.0592 68.5314 21.6426L68.5305 20.442L67.3318 20.443C65.0407 20.4411 62.7495 20.4402 60.4584 20.4402C50.4278 20.4402 40.3972 20.6005 30.3667 20.9211C27.859 21.0013 25.3514 21.0915 22.8438 21.1917ZM22.8438 22.0935V21.1917L22.3871 21.2099L22.3929 21.6426H23.2946L22.8438 22.0935Z" fill="black" mask="url(#path-9-inside-2_3027_2621)"/>
<mask id="path-11-inside-3_3027_2621" fill="white">
<path d="M22.2422 69.7382C22.2422 67.082 24.3955 64.9287 27.0517 64.9287H63.1231C65.7794 64.9287 67.9327 67.082 67.9327 69.7382V84.1668C67.9327 86.823 65.7794 88.9763 63.1231 88.9763H27.0517C24.3955 88.9763 22.2422 86.823 22.2422 84.1668V69.7382Z"/>
</mask>
<path d="M27.0517 64.4778C27.0517 64.7784 27.0517 65.079 27.0517 65.3796C29.2387 65.4798 31.4257 65.57 33.6127 65.6501C42.3607 65.9708 51.1088 66.1311 59.8568 66.1311C60.9456 66.1311 62.0344 66.1308 63.1231 66.1303C65.0433 66.0808 66.783 67.8132 66.7394 69.7382C66.7474 74.5478 66.7609 79.3573 66.7798 84.1668C66.8391 86.1122 65.0886 87.8927 63.1231 87.8574C51.0993 87.9187 39.0755 88.0135 27.0517 88.142C24.9376 88.2235 22.9702 86.331 22.9913 84.1668C22.9343 79.3573 22.8718 74.5478 22.804 69.7382C22.7993 69.4447 22.8245 69.1511 22.8798 68.8628C23.2176 66.9391 25.0473 65.3784 27.0517 65.3796C27.0517 65.079 27.0517 64.7784 27.0517 64.4778C24.6362 64.4006 22.3069 66.2262 21.8074 68.6391C21.7273 68.9997 21.685 69.369 21.6803 69.7382C21.6125 74.5478 21.5501 79.3573 21.4931 84.1668C21.3896 87.1263 24.0421 89.8537 27.0517 89.8106C39.0755 89.9391 51.0993 90.034 63.1231 90.0952C66.2814 90.1846 69.1508 87.3451 69.0856 84.1668C69.1044 79.3573 69.1179 74.5478 69.126 69.7382C69.2069 66.5396 66.3267 63.6521 63.1231 63.7272C62.0344 63.7266 60.9456 63.7263 59.8568 63.7263C51.1088 63.7263 42.3608 63.8866 33.6127 64.2073C31.4257 64.2874 29.2387 64.3776 27.0517 64.4778ZM27.0517 65.3796V64.4778V65.3796Z" fill="black" mask="url(#path-11-inside-3_3027_2621)"/>
<mask id="path-13-inside-4_3027_2621" fill="white">
<path d="M18.0312 4.80953C18.0312 2.1533 20.1845 0 22.8408 0H31.8586C34.5149 0 36.6682 2.1533 36.6682 4.80952V22.8452H18.0312V4.80953Z"/>
</mask>
<path d="M22.8408 -0.450893C22.8408 -0.150298 22.8408 0.150298 22.8408 0.450893C24.1547 0.500992 25.4687 0.548586 26.7826 0.593676C28.4746 0.651739 30.1666 0.705648 31.8586 0.755404C34.0215 0.783042 35.8285 2.761 35.7182 4.80952C35.5853 10.8214 35.5049 16.8333 35.477 22.8452L36.6682 21.654C35.065 21.6466 33.4618 21.6429 31.8586 21.6429C27.2495 21.6429 22.6404 21.6737 18.0312 21.7353L19.1412 22.8452C19.0607 16.8333 18.9279 10.8214 18.7426 4.80953C18.7011 3.77962 19.0645 2.73223 19.7596 1.9321C20.5111 1.05462 21.6455 0.495049 22.8408 0.450893C22.8408 0.150298 22.8408 -0.150298 22.8408 -0.450893C21.4035 -0.509958 19.9282 0.0684036 18.892 1.12149C17.9344 2.07749 17.3505 3.42663 17.3199 4.80953C17.1346 10.8214 17.0018 16.8333 16.9213 22.8452L16.9364 23.9698L18.0312 23.9551C22.6404 24.0168 27.2495 24.0476 31.8586 24.0476C33.4618 24.0476 35.065 24.0439 36.6682 24.0364L37.8649 24.0309L37.8593 22.8452C37.8314 16.8333 37.751 10.8214 37.6181 4.80952C37.6324 1.73435 34.8194 -0.907624 31.8586 -0.755404C30.1666 -0.705648 28.4746 -0.651739 26.7826 -0.593676C25.4687 -0.548586 24.1547 -0.500992 22.8408 -0.450893ZM22.8408 0.450893V-0.450893V0.450893Z" fill="black" mask="url(#path-13-inside-4_3027_2621)"/>
<mask id="path-15-inside-5_3027_2621" fill="white">
<path d="M53.5 4.80953C53.5 2.1533 55.6533 0 58.3095 0H67.3274C69.9836 0 72.1369 2.1533 72.1369 4.80952V22.8452H53.5V4.80953Z"/>
</mask>
<path d="M58.3095 -0.450893C58.3095 -0.150298 58.3095 0.150298 58.3095 0.450893C59.6235 0.551091 60.9374 0.64127 62.2513 0.721429C63.9434 0.824652 65.6354 0.91126 67.3274 0.981253C69.3668 1.04721 71.0309 2.88889 70.9536 4.80952C70.9409 5.85491 70.9345 6.90029 70.9345 7.94567C70.9345 12.9122 70.9504 17.8787 70.9822 22.8452L72.1369 21.6906C65.9246 21.7304 59.7123 21.795 53.5 21.8846L54.4606 22.8452C54.3739 16.8333 54.264 10.8214 54.1307 4.80953C54.0995 3.75948 54.4826 2.70022 55.1947 1.90075C55.9652 1.02344 57.1145 0.478137 58.3095 0.450893C58.3095 0.150298 58.3095 -0.150298 58.3095 -0.450893C56.872 -0.493046 55.4117 0.0995885 54.3943 1.15285C53.4539 2.1095 52.8896 3.44677 52.8693 4.80953C52.736 10.8214 52.6261 16.8333 52.5394 22.8452L52.5534 23.8195L53.5 23.8059C59.7123 23.8954 65.9246 23.9601 72.1369 23.9999L73.2989 23.9925L73.2916 22.8452C73.3234 17.8787 73.3393 12.9122 73.3393 7.94567C73.3393 6.90029 73.3329 5.85491 73.3203 4.80952C73.3675 1.60647 70.4116 -1.17179 67.3274 -0.981253C65.6354 -0.91126 63.9434 -0.824652 62.2513 -0.721429C60.9374 -0.64127 59.6235 -0.551091 58.3095 -0.450893ZM58.3095 0.450893V-0.450893V0.450893Z" fill="black" mask="url(#path-15-inside-5_3027_2621)"/>
<mask id="path-17-inside-6_3027_2621" fill="white">
<path d="M70.9375 3.00586H76.9494C79.6056 3.00586 81.7589 5.15916 81.7589 7.81538V14.4285C81.7589 17.0847 79.6056 19.238 76.9494 19.238H70.9375V3.00586Z"/>
</mask>
<path d="M76.9494 3.45675C76.9494 3.15616 76.9494 2.85556 76.9494 2.55497C76.1164 2.45477 75.2834 2.36459 74.4504 2.28443C73.2795 2.17175 72.1085 2.07886 70.9375 2.00578L70.0035 1.94749L69.9374 3.00586C69.8026 5.16683 69.7351 7.32779 69.7351 9.48876C69.7351 12.7385 69.7521 15.9883 69.786 19.238L69.7741 20.3774L70.9375 20.3895C72.9415 20.3687 74.9454 20.3413 76.9494 20.3075C80.0875 20.3375 82.8125 17.4737 82.6705 14.4285C82.6156 12.2241 82.5528 10.0197 82.4822 7.81538C82.447 5.86723 81.281 4.03099 79.6101 3.16461C78.7897 2.7286 77.8597 2.51983 76.9494 2.55497C76.9494 2.85556 76.9494 3.15616 76.9494 3.45675C77.7068 3.48907 78.4406 3.71996 79.0653 4.11504C80.341 4.90827 81.1046 6.37768 81.0356 7.81538C80.9651 10.0197 80.9023 12.2241 80.8473 14.4285C80.8299 16.5069 78.935 18.2631 76.9494 18.1685C74.9454 18.1347 72.9415 18.1074 70.9375 18.0865L72.089 19.238C72.1229 15.9883 72.1399 12.7385 72.1399 9.48876C72.1399 7.32779 72.0724 5.16683 71.9376 3.00586L70.9375 4.00594C72.1085 3.93286 73.2795 3.83997 74.4504 3.72729C75.2834 3.64713 76.1164 3.55695 76.9494 3.45675ZM76.9494 2.55497V3.45675V2.55497Z" fill="black" mask="url(#path-17-inside-6_3027_2621)"/>
<mask id="path-19-inside-7_3027_2621" fill="white">
<path d="M18.6328 3.00586H12.6209C9.96468 3.00586 7.81138 5.15916 7.81138 7.81538V14.4285C7.81138 17.0847 9.96468 19.238 12.6209 19.238H18.6328V3.00586Z"/>
</mask>
<path d="M12.6209 3.45675C12.6209 3.15616 12.6209 2.85556 12.6209 2.55497C13.4539 2.45477 14.2869 2.36459 15.1199 2.28443C16.2908 2.17175 17.4618 2.07886 18.6328 2.00578L19.5668 1.94749L19.6329 3.00586C19.7678 5.16683 19.8352 7.32779 19.8352 9.48876C19.8352 12.7385 19.8182 15.9883 19.7844 19.238L19.7962 20.3774L18.6328 20.3895C16.6288 20.3687 14.6249 20.3413 12.6209 20.3075C9.48281 20.3375 6.75777 17.4737 6.89977 14.4285C6.95474 12.2241 7.01752 10.0197 7.08809 7.81538C7.12331 5.86723 8.2893 4.03099 9.96017 3.16461C10.7806 2.7286 11.7106 2.51983 12.6209 2.55497C12.6209 2.85556 12.6209 3.15616 12.6209 3.45675C11.8635 3.48907 11.1297 3.71996 10.505 4.11504C9.22934 4.90827 8.46574 6.37768 8.53468 7.81538C8.60525 10.0197 8.66803 12.2241 8.723 14.4285C8.74041 16.5069 10.6353 18.2631 12.6209 18.1685C14.6249 18.1347 16.6288 18.1074 18.6328 18.0865L17.4813 19.238C17.4474 15.9883 17.4304 12.7385 17.4304 9.48876C17.4304 7.32779 17.4979 5.16683 17.6327 3.00586L18.6328 4.00594C17.4618 3.93286 16.2908 3.83997 15.1199 3.72729C14.2869 3.64713 13.4539 3.55695 12.6209 3.45675ZM12.6209 2.55497V3.45675V2.55497Z" fill="black" mask="url(#path-19-inside-7_3027_2621)"/>
<mask id="path-21-inside-8_3027_2621" fill="white">
<path d="M35.4688 3.00586H54.1057V19.238H35.4688V3.00586Z"/>
</mask>
<path d="M35.4688 2.55497C35.4688 2.85556 35.4688 3.15616 35.4688 3.45675C36.6311 3.55695 37.7934 3.64713 38.9557 3.72729C43.6049 4.04792 48.2541 4.20824 52.9033 4.20824C53.3041 4.20824 53.7049 4.20811 54.1057 4.20784L52.9037 3.00586C52.9072 8.41657 52.9349 13.8273 52.9868 19.238L54.1057 18.1191C47.8934 18.1786 41.6811 18.2699 35.4688 18.393L36.3137 19.238C36.2295 14.9896 36.1304 10.7412 36.0165 6.49276C35.9853 5.33046 35.953 4.16816 35.9196 3.00586C35.619 3.00586 35.3185 3.00586 35.0179 3.00586C34.9845 4.16816 34.9522 5.33046 34.921 6.49276C34.8071 10.7412 34.708 14.9896 34.6238 19.238L34.6409 20.0994L35.4688 20.083C41.6811 20.2061 47.8934 20.2974 54.1057 20.3569L55.2352 20.3461L55.2245 19.238C55.2764 13.8273 55.3041 8.41657 55.3076 3.00586L55.3068 1.80308L54.1057 1.80388C53.7049 1.80361 53.3041 1.80348 52.9033 1.80348C48.2541 1.80348 43.6049 1.9638 38.9557 2.28443C37.7934 2.36459 36.6311 2.45477 35.4688 2.55497ZM35.4688 3.45675V2.55497L35.006 2.59485L35.0179 3.00586H35.9196L35.4688 3.45675Z" fill="black" mask="url(#path-21-inside-8_3027_2621)"/>
</svg>
