<svg width="75" height="76" viewBox="0 0 75 76" fill="none" xmlns="http://www.w3.org/2000/svg">
<g clip-path="url(#clip0_4302_3397)">
<path d="M8.52115 27.7206C8.45921 28.015 8.11192 27.7799 8.14644 28.0442C8.02763 28.0774 7.95858 28.1367 7.93218 28.2764C7.91898 28.2522 7.87633 28.197 7.85297 28.1809C7.82352 28.1608 7.75955 28.2553 7.724 28.2583C7.52396 28.2764 7.43358 28.404 7.29953 28.4834L6.85882 28.7447C6.83242 28.7316 6.79789 28.7045 6.75626 28.6583L6.65674 28.9226C6.59479 28.8784 6.51153 28.8532 6.49426 28.8744L6.3785 29.012L6.21399 28.997C6.16017 28.9919 6.1226 29.2744 6.05659 29.1909L5.98145 29.0975C5.95606 29.202 5.91341 29.2332 5.86162 29.2673C5.80272 29.3065 5.74789 29.2673 5.70016 29.204C5.66665 29.3136 5.61181 29.404 5.52042 29.408C5.46965 29.41 5.41075 29.3708 5.38739 29.3869C5.36201 29.404 5.33967 29.4683 5.31733 29.5367C5.30616 29.4764 5.13353 29.3849 5.10408 29.4412C4.99948 29.6814 4.72429 29.8824 4.771 29.9136L4.67148 29.8472C4.62883 29.8191 4.54658 29.802 4.50901 29.8402C4.48057 29.8693 4.55673 29.9427 4.44909 30.0181C4.38512 29.8 4.25514 29.8131 4.06524 29.799C4.01955 29.7598 3.99619 29.9005 3.87637 29.9508C3.79005 29.3899 3.3605 29.4442 3.4387 29.1025L3.3666 28.9648L3.46307 28.7588C3.43362 28.597 3.38284 28.413 3.52298 28.2482C3.28028 28.1186 3.17163 27.8613 3.30262 27.604C3.18787 27.3135 3.1767 27.005 3.196 26.6593C3.06399 26.5879 2.8812 26.7206 2.7563 26.7316C2.54 26.7507 2.5268 26.4944 2.47907 26.3959C2.13076 26.1577 2.08405 25.3839 2.18458 24.8954C2.06577 24.6562 2.10233 24.3959 2.22723 24.1768C2.13584 23.8753 2.13787 23.5788 2.2252 23.2743L2.18052 22.3798C2.17037 22.1848 2.32675 21.9366 2.25871 21.7496C2.20286 21.5979 2.21606 21.5155 2.28207 21.3356V20.8109C2.35011 20.6622 2.29222 20.6371 2.2841 20.5114L2.2445 19.8873C2.23434 19.7225 2.27598 19.5275 2.1856 19.3436C2.10131 19.1717 2.17037 19.0019 2.16732 18.837C2.16326 18.6189 2.04952 18.4049 2.12772 18.1807L2.19271 17.9928C2.21302 17.9355 2.12162 17.8802 2.05663 17.842L2.03023 16.1264C2.03023 16.0983 2.14295 16.042 2.13076 16.0189C2.11655 15.9928 2.0607 15.9576 2.00586 15.9415L2.02414 14.3053C2.02617 14.1244 2.01805 13.9314 2.04242 13.7556L2.10538 13.3093C2.14193 13.047 2.07085 12.8159 2.2384 12.5807C2.37143 12.3947 2.29425 12.1204 2.29629 11.9254L2.29933 11.6832C2.30136 11.5123 2.2313 11.3234 2.27598 11.1776L2.48821 10.4832C2.79996 10.3223 2.82129 10.0198 3.30161 10.1183C3.39401 10.1374 3.47018 10.2279 3.52603 10.2138C3.61031 10.1917 3.68343 10.1545 3.76466 10.0781C3.88754 10.1937 4.08251 10.1716 4.23381 10.1967C4.49581 10.3475 4.79537 10.642 4.84005 10.7917C4.92434 11.0741 5.1975 11.1354 5.43512 11.1495C5.48996 11.2852 5.56104 11.4852 5.77734 11.4912L6.00582 11.6058C6.04847 11.6842 6.06065 11.7153 6.09721 11.7415C6.15916 11.7847 6.29929 11.7596 6.36225 11.7395C6.4506 11.856 6.6476 11.7766 6.73899 11.8018C6.95732 11.8631 7.12386 11.9726 7.35031 11.9093C7.52802 11.8601 7.67932 12.038 7.7961 12.0641C8.10582 12.1334 8.33532 12.2138 8.59427 12.4078L9.10302 12.7867C9.33353 12.9586 9.5874 13.1927 9.72652 13.449L10.0718 13.8581L10.3257 14.436C10.3663 14.5294 10.5186 14.5626 10.6354 14.6048L10.6912 14.9124C10.7186 15.0631 10.6069 15.9425 10.7146 16.042C10.875 16.1908 10.8344 16.3777 10.8324 16.5496L10.806 18.9406C10.805 19.0722 10.9674 19.2079 10.873 19.3898C10.8029 19.5225 10.8842 19.6783 10.8964 19.8149L10.9613 20.5295C10.9776 20.7114 10.9908 20.8541 10.9796 21.026C10.9898 21.0923 11.0507 21.1949 11.0558 21.3155L11.0771 21.7567C11.0903 22.0421 11.1624 22.3868 11.1837 22.6542L11.2243 23.1818L11.3787 24.5105C11.462 24.5879 11.6285 24.6733 11.5655 24.8431L11.8164 25.0502C11.7768 25.1818 11.7697 25.2733 11.9118 25.3899C11.3777 25.4803 11.7128 25.9909 11.3665 26.1517C11.3462 26.1607 11.3838 26.2532 11.3716 26.2703C11.3594 26.2874 11.3076 26.2834 11.2518 26.2522C11.2264 26.412 11.0781 26.5457 10.9268 26.5497C10.8964 26.5738 10.8801 26.6733 10.8314 26.6643L10.5937 26.619C10.5237 26.8542 10.3358 27.006 10.0596 27.0311C10.0027 27.0542 9.94587 27.1959 9.86057 27.1758C9.84229 27.1326 9.83416 27.0743 9.83213 27.0482C9.83112 27.0301 9.81081 26.9979 9.7773 27.0361C9.69809 27.1276 9.7905 27.2201 9.68692 27.3316C9.64427 27.3779 9.56912 27.3799 9.47164 27.3648C9.38532 27.3517 9.31932 27.4562 9.31729 27.5537C9.30307 27.5336 9.2726 27.4975 9.24722 27.4934C9.22691 27.4894 9.18121 27.5366 9.15278 27.5186L9.08068 27.4733C9.13044 27.5045 8.7933 27.6583 8.65012 27.8995C8.60442 27.8271 8.58614 27.7718 8.51912 27.7196L8.52115 27.7206Z" fill="#D3FA33"/>
<path d="M14.5418 9.30506C14.4555 9.27189 14.3834 9.2538 14.3346 9.27189C14.2696 9.29601 14.2656 9.42466 14.3174 9.48596C14.1356 9.51209 14.1457 9.72315 14.1701 9.83471C14.1244 9.88496 14.0188 9.94225 14.033 10.0789C13.9518 9.9925 13.9822 9.94225 13.9294 9.98848C13.8898 10.0237 13.8645 10.0478 13.9081 10.1111C13.9863 10.1734 13.902 10.29 13.8401 10.1503C13.7426 10.3754 13.5365 10.4749 13.6441 10.7222C13.5659 10.7423 13.4979 10.7644 13.4694 10.7995C13.4308 10.8478 13.4288 10.9222 13.4197 11.0096C13.3902 10.9654 13.3801 10.9292 13.3263 10.899C13.3263 10.9754 13.3161 11.0438 13.2694 11.088C13.241 11.1151 13.1709 11.094 13.114 11.0629C13.1282 11.2176 13.0724 11.294 13.0236 11.4408C12.979 11.3423 12.9211 11.3513 12.8662 11.3975L12.6906 11.5473L12.4611 11.5815C12.3991 11.5905 12.3798 11.7192 12.3555 11.7754C12.2874 11.6619 12.3179 11.5865 12.2844 11.4548C11.9554 11.6237 11.6863 11.4558 11.4415 11.1111C11.473 10.9795 11.4192 10.8418 11.4344 10.7604L11.5959 9.91009C11.6263 9.75129 11.667 9.66285 11.7116 9.5141L11.8873 8.93319C11.9797 8.62766 12.0996 8.21358 12.1869 7.99851C12.3189 7.67589 12.5403 7.36634 12.459 7.16634C12.5941 6.9402 12.7373 6.73919 12.7921 6.4618C12.8398 6.21959 13.1902 5.83868 13.2054 5.45475C13.2105 5.31907 13.2816 5.18138 13.3983 5.11204C13.5882 4.99947 13.4694 4.77434 13.6563 4.42962C13.8106 4.26981 13.9223 4.12509 13.8614 3.86277L14.1478 3.75825C14.095 3.36428 14.4037 3.36126 14.2595 3.12206C14.6322 3.17734 14.3549 2.70698 14.6068 2.74015C14.7093 2.63361 14.7093 2.47582 14.7764 2.35321L15.0485 1.86275C15.1541 1.6738 15.2973 1.39842 15.4466 1.24063C15.4527 1.20143 15.4171 1.10193 15.4567 1.08384C15.5004 1.06274 15.5522 1.05068 15.6304 1.07882C15.6202 0.913991 15.7116 0.854694 15.804 0.74213C15.8964 0.629565 15.9167 0.468759 16.0579 0.384336C16.3026 0.431573 16.4803 0.257701 16.5626 0.016492C16.6418 0.0848346 16.6794 0.134082 16.7362 0.153177C16.7839 0.169258 16.854 0.0436281 16.916 0.0174971C17.1079 -0.0608959 17.3364 0.139107 17.4054 0.320014L18.1396 0.412477C18.2503 0.539112 18.3742 0.732079 18.5265 0.798412L18.491 0.944142L18.6605 1.01651C18.69 1.13409 18.6534 1.2949 18.758 1.40747L18.5346 1.65571C18.6098 1.76224 18.7062 1.9723 18.6047 2.09692C18.5336 2.18536 18.361 2.20748 18.3193 2.30898C18.3762 2.34617 18.3965 2.38537 18.3965 2.40949C18.3965 2.4316 18.3457 2.47381 18.3265 2.49894C18.3447 2.58839 18.429 2.66175 18.4077 2.78939C18.3214 2.74417 18.3092 2.66577 18.2858 2.55622C18.164 2.64065 18.1944 2.80849 18.2462 2.93512C18.1741 2.93914 18.1528 2.91804 18.0787 2.89191C18.1528 3.10598 18.0411 3.26377 17.9954 3.44367C18.034 3.47483 17.9822 3.53413 17.9457 3.49292C17.9111 3.45473 17.9121 3.39443 17.8918 3.32608C17.8319 3.42156 17.8512 3.54418 17.9192 3.65071C17.84 3.65775 17.8187 3.63463 17.7771 3.62257C17.7019 3.60146 17.7304 3.85674 17.6674 3.81453C17.6471 3.80046 17.6217 3.74016 17.6116 3.71302C17.4988 3.89192 17.508 4.04368 17.572 4.20951C17.4694 4.21152 17.3648 4.14117 17.3394 4.1673C17.2064 4.30901 17.4125 4.52308 17.2775 4.705L17.1587 4.5261C17.1587 4.63263 17.0795 4.65675 17.0561 4.68791C17.05 4.76027 17.0795 4.84872 16.9972 4.90198C17.1597 4.85374 17.1485 5.02359 17.0266 4.96631C16.7464 5.14219 16.6184 5.43968 16.527 5.72712C16.4763 5.61054 16.3879 5.64571 16.4285 5.74019C16.3239 5.91506 16.2762 6.07989 16.3138 6.29195C15.9614 6.13617 16.1147 6.43668 15.9086 6.87588C15.8578 6.86281 15.8203 6.83869 15.7522 6.85879C15.805 6.90603 15.869 7.00352 15.8345 7.04674C15.7735 7.12312 15.6943 7.16634 15.6009 7.12312L15.6243 7.26684C15.4628 7.2789 15.3511 7.36131 15.2567 7.4779C15.3196 7.51006 15.3531 7.57438 15.3511 7.60956C15.3501 7.63971 15.2709 7.68795 15.2882 7.71207C15.3074 7.73921 15.3795 7.81358 15.3684 7.84172C15.3582 7.86685 15.3105 7.86082 15.2617 7.85378C15.2912 7.94524 15.3034 8.00253 15.2638 8.07589C15.2242 8.14926 15.1704 8.21258 15.0404 8.15429C15.0211 8.26886 15.0373 8.33117 15.0942 8.42464C14.9794 8.43771 14.95 8.38243 14.8779 8.30504C14.8901 8.48997 14.8149 8.56434 14.7439 8.68495L14.5773 8.96837C14.5174 9.06988 14.5093 9.18546 14.5337 9.30506H14.5418Z" fill="#D3FA33"/>
<path d="M20.7215 15.6582C20.6768 15.6159 20.6778 15.5617 20.6697 15.5084L20.4544 15.629C20.4027 15.6582 20.358 15.7366 20.2879 15.7175C20.2534 15.7084 20.2991 15.6541 20.2554 15.5677C19.9487 16.0029 19.5395 15.6893 19.4511 16.0481C19.4217 16.0139 19.3699 15.9627 19.3334 15.9627C19.2724 15.9637 19.2003 16.0049 19.1394 16.0481L19.0318 16.1245C19.0074 16.1416 18.9668 16.0974 18.9292 16.0521C18.8429 16.3426 18.4824 16.0662 18.2762 16.3496C18.2519 16.2793 18.1991 16.2742 18.1909 16.2893C18.1727 16.3275 18.1584 16.3838 18.1128 16.432C18.0782 16.3737 18.0549 16.3024 17.9929 16.2562C17.8091 16.4471 17.6182 16.5134 17.3775 16.4129C17.1907 16.5647 16.9775 16.5637 16.7754 16.5064C16.5611 16.6531 16.3001 16.5918 16.1854 16.3838C16.1498 16.4461 16.098 16.4843 16.0656 16.4853C16.0361 16.4853 16.032 16.3647 16.0036 16.3466C15.8249 16.232 15.6035 16.033 15.5781 15.8049C15.5893 15.7225 15.701 15.5617 15.6705 15.4652C15.831 15.4019 15.9082 15.3275 16.0016 15.1637C16.0656 15.0521 16.3631 15.0089 16.4616 14.9004C16.5895 14.7587 16.7053 14.7134 16.9114 14.7014C17.0079 14.622 17.1328 14.4963 17.2811 14.4159L17.9371 14.0632C18.063 13.9958 18.2204 13.9948 18.3219 13.8662C18.3961 13.7717 18.5179 13.7767 18.6276 13.7838C18.7921 13.5757 19.0856 13.4601 19.3476 13.43C19.4136 13.4189 19.5131 13.3034 19.6187 13.3365C19.7944 13.1154 20.0645 12.9777 20.3366 12.9114C20.4341 12.8873 20.5763 12.7486 20.6687 12.7496C20.8281 12.7516 20.8962 12.636 21.0414 12.5636C21.3521 12.4099 21.609 12.3355 21.9137 12.1657L22.3513 11.9224C22.5494 11.9144 22.7565 11.7777 22.9068 11.6621C23.4359 11.5586 23.8532 11.235 23.9375 11.2028L25.0627 10.7767C25.1043 10.7606 25.1673 10.7234 25.1967 10.7375C25.2373 10.7576 25.282 10.8099 25.3145 10.9154C25.5501 10.7727 25.7765 10.8018 26.0639 10.8651L26.4183 11.4169C26.4945 11.5355 26.7189 11.5375 26.7585 11.6983C26.8489 11.6772 26.9504 11.7003 27.0032 11.7395C27.1221 11.827 26.988 11.9164 26.9677 12.0169C26.9423 12.1425 27.0743 12.2923 26.8712 12.3817L27.0388 12.7425C26.9413 12.84 26.857 12.9496 26.8042 13.1174L26.4681 13.1546C26.4356 13.2873 26.3645 13.3466 26.2234 13.3807C26.264 13.3858 26.3219 13.4441 26.3026 13.4732C26.2274 13.5838 26.1797 13.6682 26.0863 13.7375C26.0558 13.6611 25.9685 13.6159 25.9248 13.636C25.8862 13.6541 25.8507 13.7486 25.8568 13.823C25.8476 13.9255 25.7278 13.9064 25.7644 13.7627L25.6577 13.9627C25.5836 13.9385 25.5014 13.9245 25.4638 13.9496C25.4089 13.9858 25.3947 14.0742 25.3734 14.1265C25.3247 14.0873 25.3104 14.0501 25.3054 14.023C25.2993 13.9828 25.2495 13.9576 25.2302 13.9908L25.15 14.1295C25.0769 14.0501 24.9824 14.0531 24.9063 14.031C24.758 13.9878 24.7601 14.1124 24.6585 14.1637L24.3671 14.3134C24.2127 14.3928 24.1061 14.4009 24.0411 14.5757C23.9934 14.5144 24.0035 14.4772 24.0045 14.432C24.0045 14.4099 23.97 14.3878 23.9507 14.427L23.8888 14.5536C23.8299 14.5114 23.7497 14.4481 23.6664 14.4953C23.772 14.5647 23.7984 14.6079 23.6969 14.6481C23.5821 14.626 23.4724 14.6179 23.379 14.7104C23.3435 14.6652 23.3069 14.635 23.2764 14.6491C23.2358 14.6672 23.1769 14.7285 23.1647 14.822L23.0734 14.7556C23.049 14.7375 22.9576 14.828 22.9332 14.8963C22.8977 14.8431 22.8896 14.7898 22.8753 14.7355L22.5951 14.9878C22.5098 14.826 22.3899 14.9938 22.0305 15.1215L21.9198 15.224C21.8934 15.2481 21.804 15.2049 21.7593 15.1154C21.7116 15.2421 21.6283 15.233 21.5156 15.2803C21.408 15.3255 21.2719 15.4642 21.1541 15.3697L21.0394 15.419C21.0069 15.433 20.9236 15.3637 20.888 15.3376C20.8027 15.3848 20.7601 15.4773 20.7164 15.6572L20.7215 15.6582Z" fill="#D3FA33"/>
<path d="M19.9786 30.1136C19.7796 30.1719 19.8029 30.2844 19.7725 30.404C19.6902 30.7277 19.3247 30.8995 19.0291 30.8382C18.9977 30.8744 18.9286 30.9628 18.891 30.9518C18.8443 30.9387 18.7763 30.8623 18.7479 30.7578C18.5052 30.9196 18.2178 30.796 18.0665 30.5457C17.9771 30.5488 17.9253 30.5397 17.8918 30.5075C17.8319 30.4503 17.7801 30.3467 17.8187 30.207C17.6014 30.2824 17.5029 30.1457 17.3699 30.0171L16.8702 29.5327C16.7443 29.411 16.655 29.2904 16.6133 29.1266C16.524 29.0703 16.2904 29.0482 16.261 28.8794C16.2335 28.7226 16.0508 28.7005 15.9868 28.6141C15.7461 28.2934 15.4953 28.0442 15.2384 27.7417L14.9215 27.3678L14.2107 26.5145C14.0899 26.3698 13.9873 26.2723 14.0533 26.0331C13.8106 26.0884 13.7131 25.814 13.6806 25.5004C13.6522 25.4653 13.5588 25.406 13.5669 25.3738L13.6156 25.1829C13.6481 25.0552 13.636 24.9648 13.6827 24.8612C13.7649 24.6793 13.8502 24.7065 14.0107 24.606L14.293 24.4281C14.4686 24.3929 14.556 24.5175 14.687 24.5507C14.883 24.5999 14.9987 24.7095 15.1541 24.7698C15.5166 24.9105 15.7207 25.211 16.0101 25.4522C16.1208 25.5447 16.2853 25.5889 16.262 25.7969L16.393 25.7879C16.4275 25.7859 16.4762 25.8623 16.4884 25.8974C16.5483 26.0753 16.6885 26.1075 16.8083 26.209C16.8692 26.2603 16.8631 26.3598 17.0114 26.401C17.0896 26.4221 17.1485 26.617 17.181 26.7025C17.4044 26.7005 17.4318 26.8251 17.5658 26.9316L17.97 27.2573C17.9659 27.3306 17.9263 27.3859 17.9487 27.4914C18.0482 27.4683 18.1315 27.4703 18.1761 27.5035C18.2422 27.5527 18.2879 27.6563 18.3112 27.7336C18.494 27.7678 18.5712 27.9377 18.6098 28.1196C18.7276 28.211 19.0281 28.2693 19.0738 28.4804C19.0657 28.5427 19.0363 28.6291 19.0769 28.6442L19.2922 28.7256L19.6029 29.206C19.6506 29.2804 19.7735 29.3357 19.7187 29.4714C19.7654 29.5025 19.8649 29.5497 19.8933 29.594C19.9289 29.6492 19.674 29.7779 19.9766 30.1146L19.9786 30.1136Z" fill="#D3FA33"/>
<path d="M29.6364 21.6386L29.4617 21.736C29.4221 21.7582 29.348 21.6908 29.3063 21.6546L29.0057 21.8104C28.9925 21.8617 28.9448 21.8476 28.9468 21.8315C28.9499 21.7994 28.9743 21.7551 28.9956 21.72C28.8951 21.6566 28.758 21.6908 28.6818 21.8054C28.7214 21.6245 28.562 21.4426 28.434 21.4868C28.4117 21.5722 28.3477 21.6004 28.2695 21.6134C28.1852 21.6275 28.1304 21.6255 28.0756 21.533L27.9984 21.6617C27.9456 21.7491 27.7577 21.4677 27.5932 21.6285C27.2591 21.1702 26.9677 21.5953 26.6986 21.3129C26.6773 21.3722 26.6295 21.4667 26.593 21.4667C26.5564 21.4667 26.5087 21.3732 26.4894 21.3139C26.3919 21.5069 26.2203 21.2697 25.8832 21.2958C25.7014 21.3652 25.5765 21.3984 25.411 21.2486C25.3592 21.3722 25.2942 21.4104 25.218 21.3762C25.1327 21.3381 25.0708 21.3451 25.0454 21.1973L24.9377 21.3742C24.9144 21.4124 24.8545 21.3833 24.7885 21.3441C24.6961 21.4466 24.5803 21.3129 24.5153 21.3401C24.4219 21.3772 24.3863 21.4225 24.3092 21.3833C24.2665 21.3622 24.2533 21.2938 24.2411 21.1883C23.9913 21.323 23.8126 21.3391 23.5465 21.1772C23.4775 21.5813 23.3191 21.1019 22.9677 21.323C22.8408 21.4034 22.6641 21.2878 22.5057 21.33C22.4407 21.324 22.4062 21.2265 22.3402 21.1481C22.2315 21.3039 22.0274 21.2587 22.0203 21.3401C22.0172 21.3742 21.9644 21.3712 21.9685 21.3401C21.9726 21.3049 21.9898 21.2717 22.0264 21.2345C21.9116 21.1471 21.7228 21.3461 21.3186 21.2858C21.2617 21.2677 21.1957 21.134 21.1165 21.1571C21.0373 21.1803 20.9601 21.2265 20.887 21.2928L20.7591 21.2124C20.7002 21.1752 20.6169 21.2627 20.5621 21.2798C20.4483 21.3049 20.3021 21.2426 20.1914 21.2154C20.1742 21.1672 20.1447 21.0566 20.0909 21.0576C19.8248 21.0657 19.8411 21.2506 19.5547 21.128C19.4968 21.1029 19.3425 21.1391 19.3283 21.0004C19.1841 21.0034 18.9921 21.0707 18.8916 21.2004C18.8266 21.1501 18.8236 21.1089 18.8479 21.0265C18.6611 20.9732 18.4235 20.9973 18.2488 21.0737C18.2001 21.0466 18.1493 21.0004 18.1127 21.0024C18.0681 21.0054 18.0031 21.0255 17.9533 21.0898L17.8142 20.9169C17.6751 20.9411 17.5877 21.0114 17.5055 21.0918C17.4791 21.0345 17.4486 20.9762 17.4263 20.9511C17.4019 20.925 17.3298 20.9612 17.2912 21.0386L17.2079 20.8486C17.149 20.9139 17.1034 20.9612 17.0556 20.9722C16.9998 20.9853 16.9358 20.92 16.8617 20.8586L16.8414 20.9612C16.8231 21.0566 16.6565 20.8938 16.3671 20.8737L16.0686 20.8536C15.7142 20.53 15.5253 20.9602 15.4187 20.6968L13.7919 20.534L15.4065 21.2245L15.8584 21.3682C16.2483 21.4305 16.6312 21.4597 17.0079 21.5732C17.2303 21.6406 17.4496 21.5843 17.6588 21.6275L18.0061 21.6989L18.788 21.8024L19.1424 21.8737C19.2755 21.9009 19.4582 21.8416 19.5771 21.9752C19.6136 21.932 19.6532 21.8938 19.6756 21.8898C19.6979 21.8858 19.7395 21.931 19.772 21.935L20.3935 22.0104C20.6078 21.9943 20.8281 22.0104 21.016 22.1401C21.2394 22.0235 21.4486 22.0808 21.6476 22.1562C22.0061 22.1943 22.5981 22.3531 22.657 22.4175C22.6468 22.4064 22.8256 22.8587 22.8032 22.9773C22.7667 23.1712 22.4092 23.2717 22.2721 23.8808L20.9632 23.7974L20.4625 23.8316C20.23 23.8476 19.9741 23.8014 19.7223 23.7893L19.3506 23.7723L18.1828 23.6848L17.799 23.6999C17.7736 23.6999 17.7218 23.6587 17.7045 23.6446C17.669 23.6145 17.6091 23.6838 17.5786 23.6888L17.1277 23.5954C16.4616 23.6004 15.8756 23.4305 15.2633 23.1833C15.0978 23.116 14.9495 23.124 14.7992 23.0004L14.4804 22.8567C14.3311 22.7893 14.2011 22.6516 14.0204 22.6024C13.8873 22.5662 13.8173 22.4577 13.7269 22.4134C13.4436 22.2747 13.1907 22.1572 12.947 21.9662L12.6718 21.7501C12.3022 21.4597 11.7924 21.0868 11.5253 20.7863L10.9953 20.1893C10.7059 19.8627 10.5952 19.6023 10.7871 19.2275C10.8978 19.0124 11.0115 18.8134 11.3202 18.7611C12.1407 18.6214 12.9866 18.6566 13.8224 18.7913L14.8602 18.8888L16.4727 18.9893C16.6301 18.9993 16.7317 18.9149 16.886 19.0375L17.3562 19.0194L18.2752 19.0275C18.4346 19.0285 18.5687 18.941 18.7271 18.9893L19.1709 18.9561C19.314 19.0174 19.4166 18.9561 19.5659 18.9501L21.4191 18.8837C21.6415 18.8757 21.8334 18.9229 22.0853 18.9129L23.5039 18.8596C23.6136 18.8556 23.7131 18.8938 23.7994 18.8144C23.9802 18.93 24.2097 18.8315 24.4026 18.8234L25.1388 18.7953C25.3084 18.7893 25.5095 18.7179 25.6669 18.8194C25.8791 18.6576 26.0507 18.8958 26.2528 18.6948C26.2873 18.7119 26.3411 18.7662 26.3746 18.7631C26.4173 18.7591 26.4752 18.733 26.5199 18.6827C26.5991 18.8074 26.6915 18.7762 26.792 18.7641L27.0723 18.73L27.5932 18.7511L28.0603 18.8325L28.1974 18.7541L28.3203 18.8164C28.4635 18.7953 28.5843 18.8415 28.7336 18.8315L29.3571 18.7913C29.5064 18.7812 29.6059 18.7732 29.7349 18.6868L29.8313 18.7692C29.9552 18.8747 30.1025 18.5461 30.2456 18.7682C30.3827 18.6717 30.5675 18.6616 30.7107 18.7652C30.8854 18.6546 31.0804 18.6777 31.2591 18.7702C31.5576 18.7461 31.8795 18.6958 32.1517 18.8536C32.2512 18.9109 32.3111 19.0214 32.4746 18.8948C32.501 18.8968 32.5376 18.933 32.5284 18.9963C32.7498 19.0305 32.9559 19.1028 33.0616 19.3119L33.3611 19.2827C33.35 19.3601 33.3571 19.3993 33.3804 19.4305C33.4495 19.525 33.6383 19.4757 33.6719 19.527C33.684 19.5451 33.6647 19.5993 33.7247 19.6034L33.8942 19.6144C33.9338 19.6174 33.9206 19.7008 33.9115 19.7531L34.3319 20.0335C34.3644 20.0546 34.4974 20.3189 34.796 20.4194C34.8295 20.7079 35.1331 20.5451 35.1301 20.8516C35.2337 21.0124 35.4317 21.1069 35.6155 21.1863C35.5921 21.5039 35.847 21.6074 36.0491 21.6737C36.172 21.8818 36.308 22.1029 36.5081 22.2798C36.5893 22.3511 36.6401 22.4818 36.8005 22.5029C36.8452 22.5712 36.8412 22.7461 37.0016 22.7753L37.1072 22.8526C37.1346 22.8727 37.0869 22.9803 37.1001 23.0175L37.4037 23.4014L37.6434 23.719C37.748 23.8567 37.7947 23.922 37.8516 24.0798C37.9165 24.2597 38.2496 24.4577 38.2039 24.8215C38.1867 24.9612 38.2435 25.0667 38.3664 25.116C38.3055 25.1733 38.2781 25.2064 38.2577 25.2436C38.2293 25.2939 38.3055 25.3572 38.3329 25.3974L38.2405 26.118C38.1572 26.118 38.0892 26.116 38.0323 26.1582C38.1968 26.2145 37.9947 26.3381 37.9744 26.4969C37.9653 26.5683 38.0222 26.6306 38.0922 26.6617L37.9216 26.711C37.881 26.722 37.8637 26.7823 37.8597 26.8467L37.8384 27.1924C37.7937 27.1974 37.7429 27.1924 37.7226 27.2065C37.7013 27.2215 37.6972 27.2899 37.685 27.3241L37.3946 28.118L36.9244 30.1372L36.4482 32.5091C36.3944 32.7774 36.3476 33.0246 36.2278 33.2699C36.2095 33.3603 36.239 33.5131 36.2045 33.6508L36.0816 34.1453C36.0623 34.2247 35.9465 34.4508 36.1009 34.4488C36.3182 34.4005 36.4786 34.2769 36.6939 34.2126L37.5672 33.9513C37.683 33.9171 37.8038 33.9654 37.9328 33.8749C38.0272 33.8096 38.1694 33.8166 38.2334 33.9171C38.539 33.5161 38.7553 34.0096 38.9909 33.7654C39.0579 33.8267 39.127 33.9583 39.2438 33.9493C39.323 33.9422 39.4387 33.8136 39.5606 33.8347L40.0531 33.9221C40.1628 33.9422 40.2471 34.1322 40.4349 34.0327C40.4695 34.0146 40.5649 34.0448 40.6065 34.0729C40.6441 34.099 40.6512 34.1744 40.6634 34.2317C40.8167 34.3443 41.0087 34.3272 41.2179 34.2427C41.2209 34.3 41.2209 34.3704 41.29 34.4206L41.6058 34.6548C41.8728 34.692 42.0749 34.8136 42.2039 35.0337C42.3034 35.0337 42.341 35.1031 42.4303 35.1664L42.7675 35.4086C42.7685 35.4458 42.7431 35.5322 42.7624 35.5674C42.7502 35.5453 43.0285 35.7071 43.1899 35.692C43.132 35.8006 43.1005 35.9061 43.1513 35.9372L43.3057 36.0327L43.6184 36.4016C43.6997 36.497 43.7626 36.6629 43.9007 36.7061C43.8845 36.7463 43.8439 36.8337 43.8622 36.8609C43.8774 36.884 43.9932 36.8528 43.9901 36.888C43.9739 37.0488 44.0419 37.1865 44.1648 37.2739C44.3709 37.4217 44.441 37.7061 44.5963 37.9101C44.7355 38.093 44.8898 38.2971 44.8766 38.5252C44.9497 38.5745 45.0005 38.6508 45.0188 38.7503L45.3051 38.4498C45.4169 38.3333 45.4889 38.2729 45.6017 38.1765L46.1307 37.7252C46.146 37.7152 46.1663 37.693 46.1378 37.6589C46.1409 37.5272 46.3541 37.6126 46.4029 37.5654L46.7989 37.1795L46.9258 37.1865C46.9502 37.1875 46.9614 37.084 46.9837 37.0709L47.4031 36.8207C47.4772 36.7764 47.6184 36.7845 47.6651 36.6589C47.7128 36.5272 47.8611 36.5493 47.92 36.5091C48.1607 36.3433 48.3739 36.1855 48.6735 36.1131L48.8583 35.9714C48.8776 36.0006 48.905 36.0418 48.9202 36.0448C48.9588 36.0518 49.0177 35.8709 49.0401 35.9282C49.0817 36.0317 49.0908 35.882 49.4777 35.7885L49.9408 35.6759L50.3622 35.6357C50.4729 35.6247 50.5003 35.5925 50.6252 35.6408C50.6922 35.6669 50.8314 35.6006 50.9583 35.6106C50.938 35.7684 51.1147 35.7704 51.2213 35.7865L52.119 37.1302L52.3211 37.5724L52.5729 38.0016L52.8115 38.4669L52.9923 38.7875L53.5935 39.9584L53.89 40.5695L54.3703 41.4921L55.5168 43.5986L55.7808 44.0961L55.9301 44.3715C56.0001 44.5002 56.1636 44.6248 56.125 44.8137C56.2246 44.872 56.3078 45.0127 56.3556 45.1173L56.581 45.6107C56.6267 45.7102 56.8013 45.8992 56.9039 45.9283L57.2908 46.0379L57.9265 46.1766L58.7744 46.3223L59.1999 46.3715L59.7107 46.4278L60.4703 46.5052L61.0999 46.5434L61.6777 46.5615L62.4159 46.5957L62.9714 46.6037L64.589 46.6107L66.1843 46.5565L66.7175 46.5504C66.8312 46.5494 66.8566 46.4891 66.9977 46.5474L67.4852 46.4861C67.6395 46.467 67.7482 46.5153 67.8903 46.5082L68.8652 46.458L69.8827 46.456C69.9792 46.456 70.166 46.464 70.2483 46.452L70.6392 46.3916C71.0109 46.266 71.3633 46.3816 71.7278 46.4319C71.8832 46.453 72.3026 46.4258 72.4519 46.7917C72.5605 47.06 72.6245 47.3243 72.6743 47.6148L72.8185 48.463L72.9677 49.4359L73.117 50.442L73.2825 51.8088C73.2856 51.8329 73.2541 51.854 73.247 51.8641C73.2358 51.8802 73.2744 51.9123 73.2774 51.9586L73.3059 52.3666C73.3668 52.4631 73.3993 53.046 73.4501 53.3827L73.5415 53.9928L73.6379 55.1707C73.6481 55.2882 73.7578 55.4259 73.7283 55.5435C73.6664 55.7918 73.9091 55.8702 73.6989 55.9878C73.8461 56.2139 73.8288 56.4461 73.8552 56.7033C73.8705 56.8501 73.9426 57.041 73.8867 57.1848L73.9527 57.3506C73.903 57.4812 73.9619 57.5777 74.0228 57.6823C73.841 57.828 74.1508 58.1235 74.0614 58.5114C74.038 58.6099 74.103 58.6571 74.1101 58.7194C74.1426 59.019 74.1487 59.2974 74.2452 59.5838C74.1447 59.6009 74.0594 59.6712 74.0482 59.7205C74.038 59.7647 74.1822 59.8089 74.2086 59.8531C74.3447 60.0843 74.2889 60.3657 74.2746 60.63C74.3874 60.7818 74.4595 60.9315 74.3427 61.0753C74.4635 61.3346 74.4584 61.5979 74.4788 61.8441L74.5102 62.212L74.6301 62.812C74.6372 62.8451 74.5336 62.9115 74.5478 62.9416C74.562 62.9718 74.6402 63.0381 74.6199 63.0683C74.5366 63.1979 74.6788 63.3336 74.6737 63.421C74.6666 63.5467 74.7083 63.6733 74.7204 63.7808L74.7611 64.1607C74.8068 64.5889 74.8078 65.2874 74.887 65.4874L74.891 65.8613C74.891 65.9497 74.8961 66.015 74.8179 66.0844C74.8819 66.203 75.0078 66.417 74.9378 66.5366C74.7377 66.8784 75.22 67.004 74.8839 67.0814L74.9621 67.3467C74.9702 67.3748 74.822 67.4673 74.9174 67.5779C75.0332 67.7125 74.9113 67.8161 74.8961 67.9246L74.8484 68.2683L74.6372 68.8151C74.5712 68.9859 74.4737 69.0522 74.3589 69.1648C74.2939 69.2281 74.2574 69.4201 74.1172 69.405C74.0726 69.4 73.968 69.4271 73.9598 69.4683C73.9213 69.6653 73.6582 69.6191 73.578 69.6995C73.442 69.8352 73.2825 69.9005 73.1251 69.9397C73.0226 69.9648 72.8773 70.1498 72.7382 70.1307L72.6082 70.2643L72.4417 70.2422C72.2406 70.2161 72.1564 70.4513 72.0172 70.5186C71.804 70.6221 71.5329 70.5598 71.3653 70.7568C71.2861 70.8503 70.9459 70.6995 70.8017 70.9216C70.7052 71.0704 70.4727 71.0231 70.3437 71.0945C70.1 71.2282 69.9183 71.3458 69.637 71.2734C69.5933 71.388 69.4664 71.387 69.4095 71.4362C69.2277 71.599 69.116 71.3839 69.0338 71.6362C68.8794 71.5588 68.7322 71.6503 68.6103 71.6885L68.0599 71.8623C67.9198 71.9066 67.8122 71.8834 67.7086 72.0362C67.6416 72.0985 67.4425 72.0171 67.3481 72.0513L66.6413 72.3046C66.5032 72.3538 66.3316 72.3508 66.2138 72.4684C66.1732 72.403 66.1519 72.389 66.1295 72.3719C66.0503 72.3126 65.9366 72.5699 65.9254 72.5639L65.7741 72.4835L65.3933 72.6041C65.241 72.6523 65.0694 72.8654 64.8795 72.7438C64.7109 72.6352 64.5636 73.0121 64.4276 72.8161C64.3687 72.7307 64.3534 72.8704 64.2925 72.9287C64.2732 72.9468 64.2032 72.9076 64.1717 72.9146L63.4791 73.0754C63.3745 73.0995 63.2232 73.0212 63.1552 73.2212C63.0689 73.192 63.0161 73.1769 62.9338 73.185C62.9714 73.2915 62.8617 73.3186 62.8373 73.2091C62.7642 73.2232 62.7094 73.2835 62.6292 73.3387C62.5104 73.182 62.2971 73.2111 62.1925 73.3588L62.095 73.4975C62.0778 73.5227 61.8107 73.3056 61.5771 73.592C61.5284 73.6061 61.4949 73.5287 61.4928 73.4473C61.4187 73.5488 61.2837 73.6131 61.1699 73.583L61.1039 73.7106L60.9953 73.6382C60.9861 73.6322 60.9364 73.6865 60.8704 73.6855C60.8094 73.5709 60.518 73.8855 60.2469 73.7478L59.8488 73.9307C59.7188 73.9217 59.6031 73.8794 59.5218 74.0332L59.4142 73.9538C59.3715 73.9217 59.3025 74.0352 59.2933 74.0915C59.274 74.1187 59.2324 74.1146 59.2162 74.0865L59.1705 74.0111C59.1441 73.9739 59.072 73.9991 59.1095 74.0654L58.8892 74.1357C58.8049 74.1629 58.7257 74.0573 58.618 74.0704C58.615 74.1448 58.6262 74.2202 58.5926 74.2161L58.3692 74.185L58.2809 74.3126C58.2697 74.3287 58.2068 74.2212 58.1783 74.2292L57.8564 74.3197C57.8128 74.3317 57.7264 74.4001 57.6929 74.3709C57.6655 74.3478 57.6239 74.2553 57.5426 74.2905C57.4736 74.3207 57.3954 74.5106 57.2867 74.4714C57.2756 74.4513 57.237 74.384 57.2207 74.389C57.173 74.4051 57.169 74.5036 57.1019 74.5287C57.0633 74.4141 56.9648 74.5327 56.9191 74.5227C56.7983 74.4975 56.6836 74.5257 56.6003 74.58L56.4388 74.4975C56.3738 74.4644 56.2906 74.7136 56.0824 74.6815C55.8712 74.6372 55.6924 74.6694 55.533 74.8342C55.3563 74.7579 55.1715 74.7458 55.07 74.9116C54.9359 74.8061 54.5836 74.8413 54.5328 75.0202L54.3683 74.9518C54.3429 74.986 54.3134 75.0111 54.2901 75.0262C54.1723 74.9991 54.0565 74.9639 53.9631 75.0543C53.9733 75.0925 53.9753 75.1136 53.9672 75.1277C53.9357 75.185 53.8717 75.1026 53.8453 75.0945C53.7001 75.0523 53.4604 75.2041 53.3101 75.2061C53.0085 75.2121 52.7557 75.2212 52.4764 75.377C52.4043 75.4172 52.1261 75.2332 52.1901 75.4031C52.2023 75.4352 52.1952 75.4744 52.122 75.4704L51.7372 75.4493C51.66 75.4453 51.6529 75.6714 51.5828 75.5177C51.0324 75.4252 50.6323 75.7277 50.6405 75.7297C50.6059 75.7167 50.5501 75.6383 50.5156 75.6393C50.4567 75.6413 50.4191 75.7559 50.3785 75.7569C50.3531 75.7569 50.3368 75.7267 50.3571 75.6996C50.3754 75.6272 50.2932 75.6141 50.2647 75.6805C50.2353 75.7458 50.1815 75.789 50.1246 75.8031C50.0738 75.8162 50.0078 75.7699 49.9672 75.7187C49.7093 75.9549 49.3274 75.6996 48.9263 75.9478L48.7892 75.8664C48.6694 75.9488 48.5567 75.9197 48.4206 75.9498C48.3861 75.9579 48.3414 76.0373 48.2653 75.978C48.1891 75.9187 48.0936 75.9418 48.0287 76.0051C48.0053 75.99 47.987 75.9729 47.9718 75.9418C47.789 75.9729 47.5585 75.9167 47.4082 75.8343C47.3859 75.8242 47.3178 75.9257 47.3077 75.9066L47.2406 75.7729C47.2264 75.7448 47.1706 75.7649 47.1513 75.781C46.8883 75.6614 46.6994 75.3709 46.605 75.377C46.4272 75.388 46.3968 75.2734 46.3054 75.191L45.8982 74.8202C45.5042 74.4624 45.2026 74.0282 45.0736 73.5076C45.0675 73.4352 45.1224 73.3076 45.0655 73.2212C45.2463 73.0332 45.2706 72.786 45.3143 72.5397L45.622 70.805L45.7042 70.5156L46.0881 68.8141L46.6964 66.3467L46.7644 66.0482L47.0599 64.8492L47.1939 64.3738L47.3615 63.7678L47.8124 62.2401L48.0723 61.4602C48.0804 61.4361 48.1272 61.4029 48.1424 61.3888C48.1596 61.3727 48.1363 61.3175 48.0794 61.3064C48.0571 61.1165 47.8662 61.0341 47.7677 60.9145C47.6428 60.7617 47.6011 60.5848 47.398 60.4974C47.3259 60.4662 47.2924 60.3175 47.264 60.2461C46.9401 60.0531 46.805 59.6722 46.5897 59.3858L45.7377 58.2501L45.1559 57.3968C45.0228 57.2018 44.8583 57.0018 44.8279 56.7636C44.7162 56.7255 44.6634 56.639 44.5943 56.5285L44.3242 56.0943C44.2927 56.043 44.2419 56.0079 44.2054 56.0038C44.1414 55.9968 44.0927 56.042 44.0358 56.0903L43.7992 56.2883C43.7291 56.1928 43.591 56.1154 43.4996 56.2742C43.459 56.2692 43.4397 56.1878 43.459 56.0903C43.2996 56.0169 43.1737 56.2059 43.0609 56.3164C43.0264 56.3506 42.9696 56.2812 42.9239 56.2732C42.799 56.2501 42.8548 56.1757 42.8355 56.1445C42.805 56.0973 42.6984 56.1797 42.6852 56.2249C42.6801 56.237 42.5959 56.2481 42.5329 56.2239C42.5502 56.1717 42.5928 56.1616 42.5948 56.1335C42.5969 56.1003 42.5664 55.9978 42.5461 56.0179L42.4253 56.1345L42.3755 56.1998L42.3278 56.2832C42.2973 56.3677 42.2019 56.3285 42.2435 56.243C42.2577 56.1757 42.2354 56.1405 42.2151 56.1224C42.1917 56.1013 42.1237 56.1184 42.1338 56.1767C42.1409 56.2179 42.1247 56.2762 42.1084 56.2822C42.079 56.2943 42.015 56.2139 42.0536 56.0963C41.8921 56.1094 41.7347 56.1677 41.5591 56.2189C41.5509 56.2772 41.4778 56.2802 41.4799 56.2531C41.4819 56.226 41.4575 56.1405 41.4281 56.1445C41.3793 56.1496 41.3296 56.2159 41.2636 56.2842C41.2463 56.231 41.2483 56.1124 41.1691 56.0913C41.029 56.0531 40.9092 56.0651 40.8858 56.1656C40.8655 56.2591 40.7609 56.2199 40.8056 56.1355L40.7944 55.9687C40.6675 56.03 40.5466 56.1254 40.439 56.234C40.4085 56.1365 40.4959 56.0852 40.439 56.0682C40.3435 56.039 40.2592 56.3084 40.2491 56.2018C40.243 56.1375 40.1638 56.1124 40.1739 56.027C40.0247 56.0712 39.9414 56.2008 39.7871 56.1114C39.7688 56.1003 39.7058 56.1496 39.6825 56.1445C39.6002 56.1264 39.5048 56.037 39.2692 56.0893C39.2224 56.0531 39.129 55.9244 39.061 55.9506L38.8051 56.0501C38.7726 56.0229 38.7421 55.9033 38.6812 55.9154C38.6203 55.9275 38.5197 55.9033 38.4619 55.9476C38.4294 55.9717 38.4233 56.0179 38.4202 56.037C38.4172 56.0561 38.3796 56.0883 38.338 56.0662C38.3065 56.0491 38.3095 55.9918 38.3471 55.9455C38.4212 55.8541 38.0049 56.0069 37.9704 55.9043L37.9226 55.7656C37.9115 55.7345 37.8526 55.7606 37.8343 55.8129L37.5459 55.9063C37.5408 55.829 37.5865 55.7827 37.5632 55.7355C37.555 55.7194 37.5215 55.6822 37.5032 55.6862C37.4576 55.6953 37.486 55.8862 37.4525 55.8812L37.3722 55.8692L37.2941 55.8782C37.1803 55.8923 37.093 55.7234 36.896 55.8651C36.8828 55.844 36.8615 55.829 36.8422 55.827C36.8026 55.8501 36.7721 55.9033 36.6858 55.8993L36.5913 55.7053L36.3222 55.636C36.2786 55.6269 36.2552 55.7797 36.2136 55.7777L35.9831 55.7666C35.9171 55.7636 35.8927 55.7053 35.9587 55.6933C35.978 55.6893 36.0146 55.6893 36.0217 55.638C35.9201 55.6089 35.8257 55.5576 35.8033 55.5817L35.6723 55.7204C35.5515 55.639 35.3301 55.6259 35.2103 55.642L35.0996 55.5365C35.0326 55.4722 35.0194 55.633 34.9564 55.6792C34.9341 55.6963 34.8701 55.6822 34.8721 55.6259C34.8742 55.5737 34.9402 55.5184 34.931 55.434C34.927 55.3988 34.8813 55.3958 34.8772 55.434C34.8742 55.4651 34.862 55.4913 34.8224 55.5194L34.7544 55.5656C34.7097 55.5968 34.6843 55.6018 34.6315 55.5928L34.535 55.5767C34.5015 55.5717 34.468 55.5697 34.4528 55.5516C34.4162 55.5094 34.5167 55.4219 34.4528 55.4048C34.405 55.3918 34.3776 55.4209 34.3766 55.439C34.3756 55.4631 34.3766 55.5124 34.3512 55.5697C34.2101 55.3857 33.9471 55.5767 33.941 55.4872C33.9389 55.4591 33.9785 55.442 33.9948 55.435L34.0902 55.3978C34.1055 55.3757 34.0862 55.3375 34.0527 55.3445L33.9389 55.3697L33.4881 55.3295C33.4596 55.3264 33.4139 55.3847 33.3398 55.3878L33.3032 55.2521C33.2982 55.232 33.2575 55.3174 33.2423 55.3023C33.1875 55.2491 33.0829 55.3274 33.0392 55.3164L32.6137 55.2048C32.567 55.1928 32.5193 55.2551 32.4909 55.2682C32.4411 55.2913 32.3852 55.1898 32.3548 55.1646C32.303 55.1234 32.237 55.1847 32.2106 55.2109C31.9425 55.0812 31.7404 55.1546 31.7232 55.1385C31.6094 55.031 31.4886 55.0832 31.3556 55.0541L30.7889 54.9305C30.6549 55.24 30.4558 54.8591 30.2924 55.034C30.2071 55.1254 30.1248 54.9938 30.071 54.9948C29.6506 55.042 29.3581 54.6289 28.5965 54.5375L28.0603 54.4722C27.8217 54.443 27.5384 54.3596 27.2784 54.3827C27.2216 54.3877 27.1444 54.5686 27.1007 54.5284L26.7514 54.2048C26.5199 54.3445 26.1817 54.2782 26.0812 54.0279C26.0507 53.9515 26.07 53.8601 25.9817 53.8169C25.9278 53.7897 25.8436 53.7586 25.7278 53.8108C25.7044 53.6309 25.5897 53.5747 25.4831 53.4671L24.7641 52.7415C24.7123 52.6892 24.5681 52.6812 24.5732 52.5485C24.5742 52.5154 24.5539 52.436 24.5265 52.4209C24.5021 52.4078 24.4534 52.4158 24.3924 52.4359C24.2635 52.2691 24.2066 52.0269 24.0228 51.8922C23.8837 51.7897 23.7466 51.7184 23.7375 51.5143C23.7293 51.3314 23.5851 51.2229 23.4044 51.2349C23.3353 51.0299 23.1272 51.0138 23.1993 50.6721C22.9972 50.6289 22.8977 50.5465 22.7839 50.3706L22.4986 49.9314C22.4549 49.8631 22.4255 49.8269 22.3747 49.7495L22.0518 49.255C21.9868 49.1555 21.9279 49.1153 21.8832 49.0339L21.5694 48.46C21.4709 48.2791 21.3257 48.1083 21.2201 47.9314L20.9967 47.5585L20.7966 47.1866C20.7337 47.07 20.7337 46.9444 20.5814 46.8339L20.364 46.3906C20.2138 46.2308 20.2066 46.0841 20.099 45.8921L19.8472 45.4419L19.4643 44.6238C19.3861 44.4559 19.2348 44.3705 19.0409 44.3816C19.046 44.2007 18.985 44.0559 18.9464 43.9102L19.0236 43.7956C19.0368 43.7765 18.8815 43.3353 18.6367 43.4218C18.59 43.4378 18.5331 43.4167 18.5108 43.3926C18.4814 43.3594 18.4783 43.3002 18.4763 43.2409L18.4539 42.4609C18.3453 42.463 18.2224 42.3614 18.2285 42.2841L18.4225 42.0187C18.5413 41.8569 18.7586 41.7072 18.7433 41.48C18.7322 41.3172 18.9637 41.0559 19.1638 41.0127C19.2917 40.8026 19.4816 40.6639 19.638 40.4921L20.0391 40.0509L20.2635 39.7976L20.5346 39.5292L20.7459 39.2428C20.8748 39.1755 20.8718 39.1202 20.951 39.0217C21.0536 38.8931 21.3409 38.8348 21.3826 38.6026C21.4151 38.4227 21.5318 38.29 21.7197 38.2599C21.7146 38.1493 21.7735 38.1091 21.8487 38.0066L22.1889 37.5443C22.4884 37.3252 22.6164 37.0277 22.8499 36.7463L23.1089 36.4337C23.1607 36.3714 23.3627 36.3654 23.3252 36.2026C23.3038 36.1081 23.4044 36.1011 23.4399 36.0669L24.0634 35.2508L24.628 34.4136C24.7093 34.294 24.9611 34.088 25.0769 33.691C25.3277 33.5734 25.3957 33.2206 25.5521 33.0347C25.7186 32.8367 25.8385 32.7161 25.9827 32.508L26.7778 31.3553L27.0855 30.9372C27.2459 30.7191 27.3373 30.5764 27.5333 30.3673C27.7293 30.1583 27.9933 29.7191 28.3711 29.8558C28.5305 29.914 28.7326 30.105 28.9052 30.1844C29.1499 30.297 29.0027 30.6849 28.9144 30.8377C28.8829 30.8919 28.9509 31.0005 28.956 31.0417C28.9621 31.093 28.8483 31.1422 28.8301 31.2015L28.5833 31.9995C28.4086 32.0809 28.301 32.4377 28.3873 32.5885C28.2096 32.707 28.2675 32.8216 28.2309 32.8658C27.9943 33.1593 27.8207 33.5081 27.8065 33.8608L27.6998 33.888L27.6145 33.9372L27.7191 34.0397C27.5008 34.104 27.4338 34.2568 27.4744 34.4699C27.3952 34.5272 27.4094 34.6056 27.3962 34.6247L27.0916 35.0528C27.1687 35.0789 27.1667 35.1483 27.0966 35.1714C26.7483 35.3091 27.1576 35.3845 26.8265 35.4498C26.8022 35.8237 26.5524 36.0619 26.4366 36.4197L26.3564 36.6689C26.331 36.7493 26.2558 36.8669 26.1563 36.9202C26.1817 37.1071 26.0893 37.2398 25.9045 37.3222C25.7532 37.3895 25.8263 37.678 25.7511 37.8438C25.7115 37.9312 25.5866 37.9805 25.5856 38.1142L25.1896 38.5704C25.1997 38.6961 25.2759 38.7795 25.28 38.8287C25.285 38.889 25.0383 38.9021 25.0322 39.0378C25.0302 39.0921 25.0464 39.1313 25.0586 39.1674C25.0921 39.2659 24.8738 39.2338 24.8169 39.3132C24.6727 39.5172 24.6179 39.7192 24.6087 39.9644C24.5356 40.0599 24.4848 40.1654 24.43 40.2599C24.4117 40.1695 24.3346 40.1685 24.3356 40.2529C24.2929 40.5544 23.9984 40.5413 24.1914 40.9142C24.1254 40.9212 24.0573 40.9031 24.0218 40.875C23.9791 40.7484 23.9253 40.9735 23.9436 40.9976C24.0198 41.1041 23.9659 41.1876 23.8715 41.269L23.8938 41.3454C23.904 41.3815 23.8959 41.4187 23.8817 41.4157C23.8563 41.4097 23.8075 41.4057 23.7771 41.4157L23.5019 41.4971C23.6207 41.5695 23.6014 41.6469 23.6247 41.7454C23.6501 41.8569 23.4734 41.882 23.4531 41.9514C23.4095 42.1032 23.4541 42.2157 23.2886 42.3202C23.2216 42.3625 23.1353 42.3946 23.114 42.4479C23.0764 42.5393 23.1393 42.663 23.1942 42.7323C23.0774 42.7675 22.9769 42.7805 22.9088 42.8539C22.857 42.9102 22.8946 42.9665 22.9352 43.0017C22.9393 43.0218 22.9332 43.0559 22.9281 43.0871L22.9088 43.1946C22.6448 43.2338 22.8804 43.3836 23.0246 43.7273C23.1657 43.7997 23.2378 43.8831 23.2906 44.0419C23.3059 44.0871 23.9091 44.9364 24.1447 45.1414C24.2746 45.2539 24.2818 45.4087 24.3843 45.5263L24.8433 46.0459L25.1561 46.4469C25.2566 46.5756 25.3612 46.7002 25.4374 46.8479C25.477 46.9233 25.8852 47.2228 26.0934 47.5786C26.1116 47.6128 26.2365 47.5866 26.2294 47.6791C26.2132 47.8851 26.3726 47.9153 26.4731 48.0047L26.8194 48.3113C26.8489 48.2972 26.8966 48.3032 26.8936 48.3163L26.8682 48.4339C26.8316 48.6068 27.2368 48.5374 27.2043 48.8148C27.4277 48.8982 27.5394 48.9535 27.5262 49.2037C27.5952 49.1927 27.6917 49.2178 27.71 49.259C27.7273 49.2972 27.713 49.3887 27.7719 49.4168C27.8055 49.4329 27.8471 49.4088 27.8644 49.4078C27.8908 49.4068 27.9253 49.4681 27.9283 49.5043C27.9496 49.7193 28.1923 49.7264 28.3 49.847C28.3934 49.9505 28.3975 50.1274 28.561 50.1475C28.7996 50.1756 28.6331 50.5957 28.9489 50.5555L29.4282 50.9786L30.1197 51.0068C30.2243 51.0108 30.3147 51.0771 30.4406 51.0299C30.6396 50.9545 30.8031 51.0068 31.0012 51.0058L31.847 51.0038C32.0918 51.0711 32.2543 51.0108 32.4777 51.0128L33.1144 51.0188L33.3621 51.0148C33.4556 51.0138 33.5327 50.9917 33.6221 50.9505C33.6901 50.9505 33.8181 51.0832 33.9095 51.042C34.1715 50.9244 34.4304 50.9696 34.7005 51.052C34.799 51.0239 34.9432 50.9756 35.0661 50.9756L36.0745 50.9786C36.1648 50.9786 36.2309 50.9153 36.3568 50.9676L36.5913 51.0641C36.8239 50.8781 37.0818 51.1465 37.4281 51.0028C37.4515 50.9937 37.4992 51.057 37.5246 51.0621C37.5632 51.0701 37.6221 51.0188 37.6617 50.9917C37.7297 50.9445 37.7967 51.0068 37.8292 51.053C37.9805 51.2671 38.1938 50.8932 38.4253 51.1234L38.5989 51.0088C38.735 51.1344 38.9168 51.1435 39.0772 51.056C39.5647 51.2108 40.0785 50.9153 40.0622 51.1214L40.8563 51.0982C40.9538 51.0952 41.0889 51.2008 41.2036 51.0791C41.3184 50.9575 41.3255 51.1827 41.5205 51.1686C41.6596 51.1585 41.7165 50.9746 41.7875 51.0279L41.8871 51.1033C41.9317 51.1374 42.0445 51.0168 42.1541 51.0339C42.1663 51.0711 42.1562 51.0942 42.1541 51.1093C42.1501 51.1415 42.212 51.1545 42.2232 51.1334C42.2983 51.0008 42.4324 51.0842 42.4994 51.0601C42.6893 50.9917 42.8223 50.9927 43.0234 51.0118C43.1747 51.0269 43.3788 50.9485 43.5301 51.0118C43.6591 51.0651 43.7718 50.9626 43.8479 50.9545L44.3963 50.9003C44.4775 50.8922 44.5222 50.9093 44.6339 50.9073L45.6067 50.8922L45.9764 50.8239C46.4191 50.7425 46.7796 50.7706 47.1746 50.9616C47.3523 51.047 47.591 51.1425 47.5097 51.3947C47.4854 51.4711 47.3655 51.5807 47.4194 51.6922C47.4965 51.851 47.393 51.9967 47.3828 52.1264C47.3686 52.2973 47.2752 52.3626 47.2295 52.4792C47.1604 52.6551 47.1401 52.8309 47.0254 53.0229L46.8304 53.3485C46.7593 53.4681 46.7806 53.6289 46.6639 53.7616L46.5075 54.0953L46.7156 54.5083L46.9573 54.9164L47.3869 55.6973L47.6418 56.1506L47.7728 56.3345L48.0601 56.9114C48.1038 56.9988 48.1008 56.9958 48.1597 57.0692C48.4095 57.3868 48.5912 57.7627 48.8126 58.1134L49.3457 58.9617C49.5336 59.2602 49.7265 59.5577 50.0291 59.7697C50.0373 59.9687 50.154 60.0763 50.3815 60.1074C50.2718 59.6632 50.4749 59.236 50.3886 58.6722C50.3643 58.5104 50.3988 58.4119 50.3876 58.2561L50.3612 57.8833V57.4833L50.3703 56.8018C50.3703 56.7435 50.347 56.6209 50.3186 56.5767C50.2536 56.4722 50.3744 56.4049 50.3683 56.3425L50.2993 55.5837L50.3155 55.1465C50.3216 54.9737 50.3358 54.7506 50.2353 54.5596L49.5356 53.2339L48.3435 51.1807L48.1424 50.8922L47.4549 49.6992L46.9086 48.65C46.8243 48.4892 47.0548 48.2067 47.2559 48.2078C47.589 48.2098 48.049 48.6299 48.3485 48.9424L48.8045 49.4188L49.23 49.8781L49.4605 50.0781L50.1297 50.8932L50.1226 50.1716L50.0444 48.5595L49.8728 45.5796L49.7824 44.0087L49.7326 43.0218L49.695 42.3645C49.6869 42.2197 49.7083 41.9976 49.6189 41.879C49.6016 41.8499 49.7184 41.7574 49.7022 41.7303L49.6219 41.5956L49.5498 40.8981L49.3945 39.679L49.2858 38.9534C49.2787 38.9061 49.2442 38.9091 49.2218 38.9333C49.1995 38.9574 49.1751 38.9895 49.2076 39.0508C49.0614 39.1674 48.9111 39.2127 48.9081 39.1363C48.906 39.0951 48.838 39.0669 48.836 39.1031C48.8339 39.1393 48.8258 39.2619 48.8014 39.276L48.4379 39.488C48.2886 39.5755 48.1211 39.5815 47.9941 39.7343C47.9799 39.7514 47.9373 39.7634 47.9271 39.7564L47.854 39.7051C47.7362 39.7091 47.6692 39.8438 47.6143 39.9262C47.5615 39.9222 47.4712 39.8951 47.4478 39.9232L47.33 40.072L47.2021 40.0911C47.1696 40.0961 47.1503 40.1956 47.1371 40.2398C47.0284 40.2157 46.9695 40.3715 46.9096 40.3956C46.7745 40.4479 46.6182 40.4147 46.5278 40.5795C46.4577 40.7082 46.2729 40.7665 46.1409 40.8067C46.1043 40.8187 46.0678 40.8881 46.084 40.9524C46.0546 40.9795 46.0109 40.9866 45.9886 40.9102L45.5306 41.2117L45.3234 41.4569L45.3194 41.5705C45.3173 41.6348 45.031 41.5956 44.9355 41.868C44.8431 41.7544 44.6877 41.7062 44.5933 41.7906L44.3486 42.0097L44.2369 42.0026C44.2145 42.0016 44.2125 42.0841 44.2257 42.1212C44.1983 42.1293 44.178 42.1263 44.1495 42.1162C44.0257 42.067 44.1282 42.263 44.0246 42.2921C43.9972 42.1544 44.0185 42.1212 43.9708 42.1695L43.9048 42.2358C43.8378 42.3032 43.7525 42.3303 43.6631 42.3574C43.4478 42.8017 43.129 42.5645 43.0945 42.7635C43.0792 42.8519 42.9939 42.8077 42.9655 42.8238C42.5075 43.0871 41.9632 42.8459 41.9683 42.8599C41.9317 42.7534 41.8515 42.6006 41.8454 42.482C41.8434 42.4057 41.8962 42.2489 41.949 42.1936L42.4933 41.6248C42.6223 41.4891 42.7005 41.3655 42.87 41.273C42.9157 41.2479 42.9726 41.1946 42.9919 41.1554C43.0152 41.1062 42.9706 41.0298 42.9472 40.9564L42.8903 40.7775C42.8771 40.7373 42.803 40.7273 42.7096 40.7514C42.7289 40.5413 42.6436 40.48 42.5055 40.4066C42.4232 40.2941 42.3877 40.1081 42.3359 39.9564C42.1358 39.9614 41.9998 39.8529 42.0069 39.6338C41.7825 39.5313 41.6393 39.3634 41.5855 39.1142C41.5367 39.0961 41.4961 39.1051 41.423 39.1041C41.3986 38.7312 41.23 38.8287 41.0584 38.6378L40.7548 38.3011C40.7264 38.2639 40.5954 38.2951 40.6025 38.1644C40.6045 38.1152 40.5862 38.0147 40.5568 37.9745C40.5294 37.9373 40.4461 37.9081 40.3405 37.9252C40.2836 37.5935 39.983 37.3945 39.6693 37.3986C39.6337 37.3121 39.5576 37.2579 39.4844 37.1925C39.1138 36.8629 39.0153 36.8488 38.5482 37.0337L38.5868 36.9202C38.6 36.882 38.5319 36.8538 38.5106 36.878L38.4487 36.9523C38.3502 37.0699 38.1765 37.0579 38.0323 37.0719L38.0039 37.1704C37.9917 37.2116 37.9694 37.2438 37.949 37.2508C37.9247 37.2599 37.8851 37.2378 37.8475 37.2257C37.6129 37.1493 37.4819 37.6227 37.4454 37.4599L37.421 37.3523C37.4159 37.3302 37.4058 37.3051 37.3733 37.3403L37.3062 37.4126L37.2362 37.5895C37.0727 37.3081 36.9671 37.7523 36.7721 37.7614C36.4187 37.7775 36.4928 38.082 36.3679 37.9905C36.3598 37.9584 36.3497 37.9242 36.307 37.8709C36.176 37.9925 36.0511 38.1322 35.8714 38.2398C35.8348 38.3805 35.8541 38.2187 35.6947 38.1232C35.6277 38.2338 35.6013 38.3785 35.4845 38.489C35.455 38.5162 35.3799 38.4649 35.3129 38.3825C35.2255 38.7926 34.6792 38.3835 34.6396 38.9011C34.5888 38.7956 34.531 38.8237 34.5117 38.8508L34.3725 39.0478C34.3543 39.074 34.3045 38.9694 34.271 38.9694C34.1562 38.9664 34.1532 39.272 34.0841 39.1735L34.0263 39.0911C34.0171 39.083 33.9968 39.089 33.9846 39.1051L33.9338 39.1735L33.8709 39.2257L33.8029 39.278C33.7815 39.2941 33.7592 39.3112 33.744 39.3061C33.7287 39.3011 33.7064 39.278 33.6871 39.2579C33.5145 39.4499 33.3571 39.5674 33.1966 39.4458C33.159 39.473 33.1722 39.5142 33.2007 39.5433C33.1905 39.5845 33.2037 39.6247 33.1946 39.6649C33.1509 39.6639 33.1245 39.676 33.1083 39.7031C33.0433 39.8117 33.0971 39.5624 33.0778 39.5644L32.9306 39.5775L32.631 39.9363L32.5142 39.8318L32.0055 40.1815C31.9669 40.2087 31.8795 40.1745 31.8572 40.1986C31.8318 40.2267 31.8227 40.3071 31.7922 40.3232C31.8278 40.1966 31.7303 40.1393 31.7018 40.2398C31.6896 40.279 31.6693 40.3001 31.646 40.3252C31.65 40.3584 31.6561 40.4328 31.6267 40.4368C31.5911 40.4408 31.4987 40.4147 31.4713 40.4267C31.4094 40.4559 31.3556 40.477 31.2926 40.48C31.1657 40.4871 31.1423 40.6458 31.122 40.6418C30.9118 40.5966 31.0235 40.8308 30.794 40.8418C30.5127 40.8549 30.4833 41.1072 30.2131 41.0107C30.139 41.1544 29.9999 41.2328 29.9786 41.2258C29.9572 41.2187 29.8933 41.1564 29.876 41.1785C29.7491 41.3383 29.5439 41.3253 29.4079 41.3785C29.1733 41.47 29.0037 41.5293 28.7935 41.3514L28.3538 41.2609C28.1599 41.0871 28.2705 40.6428 28.4574 40.3896L29.0707 39.5624C29.1388 39.47 29.351 39.4026 29.3063 39.2619C29.2718 39.1534 29.419 39.1845 29.4454 39.1624C29.7125 38.7463 30.1086 38.6539 30.333 38.3101C30.4061 38.1986 30.4244 38.2036 30.5137 38.1282L31.059 37.6699C31.1839 37.5654 31.2946 37.5724 31.3738 37.3925C31.4226 37.283 31.5048 37.0659 31.582 36.9704C31.6003 36.9483 31.513 36.8639 31.5231 36.8357L31.8755 35.8257L32.0583 35.299L32.3528 34.4629L32.4411 34.2508C32.4441 34.1141 32.5569 33.9463 32.5975 33.8216C32.6686 33.6045 32.699 33.4186 32.8493 33.2156L32.9539 32.7794C33.0819 32.6307 33.1834 32.5452 33.1184 32.3302C33.1245 32.2759 33.2017 32.1935 33.2586 32.1493C33.2068 31.8759 33.3794 31.6829 33.5206 31.4799C33.5063 31.3734 33.553 31.2407 33.6008 31.1251L33.8211 30.5935L33.9907 30.2367L34.1623 29.702L34.4548 29.0577L34.5919 28.711L34.7066 28.6718C34.6883 28.6206 34.663 28.5442 34.6731 28.507L34.9798 27.8768L35.0874 27.7954L35.0499 27.6025L35.4845 26.7934L35.8257 26.1391L36.1598 25.5281L35.7597 25.0316L35.651 24.7672C35.4845 24.7662 35.4469 24.6306 35.3647 24.5552C35.0204 24.2396 35.2103 24.2336 34.93 24.2587C34.8772 24.2637 34.8539 24.119 34.8691 24.0486C34.8417 24.0798 34.794 24.1371 34.7676 24.122L34.6051 24.0245L34.6853 23.9592C34.7188 23.9321 34.6762 23.8366 34.6518 23.8094C34.6244 23.7783 34.5411 23.8084 34.4853 23.8115L34.3807 23.8185C34.3502 23.8205 34.3654 23.7501 34.3461 23.7331C34.3197 23.7099 34.2243 23.723 34.2111 23.8135C34.1268 23.8245 34.141 23.7331 34.1806 23.7089C34.208 23.6929 34.27 23.6004 34.2537 23.5692C34.206 23.4788 34.0395 23.525 33.9735 23.5913L33.9064 23.5361C33.8841 23.518 33.8607 23.4989 33.8089 23.513C33.7744 23.4878 33.7744 23.4416 33.8445 23.4315C33.811 23.0888 33.29 23.2918 33.3053 23.0014L32.9367 22.916C32.8493 22.8959 32.9163 22.7712 32.9184 22.73C32.9214 22.6798 32.8118 22.6577 32.7762 22.6547C32.8371 22.6255 32.8849 22.5702 32.8798 22.5421C32.8696 22.4848 32.6696 22.4778 32.5183 22.4325C32.6635 22.3129 32.4452 22.2546 32.3832 22.2416L32.3487 22.1752C32.3121 22.1059 32.2319 22.0366 32.1334 22.0798C32.1121 22.0476 32.0725 22.0165 32.0512 22.0828C32.1009 22.1752 31.9801 22.2114 31.974 22.1079C31.9537 22.0366 31.8999 21.9793 31.8491 21.9943L31.7719 22.0165C31.7404 22.0255 31.7029 21.9964 31.7191 21.9541C31.7282 21.931 31.9039 21.8386 31.8014 21.8546C31.714 21.8677 31.5119 21.6908 31.2296 21.7833L31.0154 21.5752C30.8803 21.6958 30.7392 21.7109 30.5777 21.7863C30.5726 21.72 30.5483 21.6305 30.4762 21.6305C30.3533 21.6305 30.2842 21.8757 30.2558 21.8486L30.1837 21.7773C30.1177 21.7119 30.0233 21.8315 29.9674 21.8355C29.9146 21.8396 29.9166 21.726 29.9237 21.6868C29.943 21.5762 29.7866 21.5511 29.6963 21.6024L29.7237 21.6566C29.6932 21.6124 29.6496 21.6566 29.6942 21.6858L29.6424 21.6325L29.6364 21.6386ZM57.6574 53.7988C57.5944 53.7003 57.5498 53.5686 57.5335 53.449C57.7315 53.1525 58.0748 53.0792 58.3997 53.237C58.5937 53.3314 58.7582 53.4993 58.877 53.6892C59.0699 53.9978 58.9867 54.4209 58.6272 54.5847C58.2179 54.7717 57.7366 54.9606 57.2725 54.9335C56.8927 54.9114 56.6257 54.5023 56.4998 54.1837C56.2885 53.65 56.2662 53.1144 56.2276 52.5415C56.7465 52.254 57.2735 52.0802 57.8442 51.9626C57.9844 52.042 58.1834 52.1656 58.3408 52.0972C58.483 52.0349 58.4058 51.8158 58.3175 51.7194C58.1367 51.5194 57.8554 51.3907 57.5772 51.458L55.9402 51.8581C55.0568 52.0741 55.1949 53.9958 55.7128 54.9546C56.0103 55.5043 56.5972 55.9325 57.2411 55.8802C57.8849 55.828 58.4556 55.5275 58.9735 55.1988C59.4243 54.9124 59.666 54.4048 59.5675 53.8601C59.4365 53.1334 58.744 52.5998 58.0037 52.5968C57.6026 52.5947 57.2573 52.8973 57.2116 53.2742C57.1832 53.5113 57.5193 53.9093 57.5609 53.9164C57.6026 53.9234 57.8016 53.8621 57.8148 53.845C57.828 53.8279 57.8067 53.7747 57.7782 53.7656C57.7559 53.7596 57.7112 53.7777 57.6564 53.7968L57.6574 53.7988Z" fill="black"/>
<path d="M30.799 30.2461C30.7797 30.1546 30.7604 30.0913 30.7421 30.0843C30.7137 30.0732 30.6507 30.1245 30.6386 30.1878L30.5228 30.023C30.4852 30.1174 30.3715 30.2129 30.2649 30.1627C30.0608 30.0672 29.8709 30.0621 29.6464 30.0571C29.6089 30.0571 29.554 29.9858 29.5236 29.9938C29.487 30.0039 29.4281 30.0601 29.4088 30.0853L29.3235 29.9003C29.2738 29.7938 29.1397 29.9164 29.092 29.8943L28.5406 29.639C28.4005 29.5737 28.2431 29.5667 28.2278 29.3737L27.8775 29.4069C27.9049 29.3054 27.9679 29.3054 27.9973 29.2832C27.9008 29.1536 27.7759 29.1456 27.6358 29.1586C27.5403 29.1677 27.4936 28.9214 27.4165 28.8621L27.0082 28.5466C26.9138 28.4732 26.8427 28.5254 26.7574 28.4069L26.4365 27.9556L26.1309 27.6541L25.6191 28.1375L25.1601 28.5405L24.8747 28.7847L24.501 29.1174L24.106 29.4601C23.8075 29.7194 23.4063 29.8752 23.0824 30.1415L22.8316 30.2601C22.7564 30.2963 22.5676 30.2722 22.4873 30.2632L22.1868 29.9767C21.8872 29.6923 21.7186 29.3154 21.5805 28.9345L21.3378 28.2682C21.2281 28.3938 21.2891 28.4883 21.2952 28.6058C21.3053 28.8038 21.0464 28.9415 20.8768 28.8621C20.7072 28.7827 20.5681 28.6893 20.3731 28.6561C20.2838 28.2993 20.0157 28.1033 19.774 27.8671L19.5181 27.5194L19.0956 26.9033L18.8174 26.5214C18.723 26.4872 18.6468 26.4892 18.6001 26.4219C18.5351 26.3294 18.5544 26.234 18.5635 26.1405C18.4569 25.9686 18.3767 25.7656 18.5321 25.5726C18.99 25.0058 19.6095 24.6199 20.2634 24.2872L20.5935 24.0751L21.6211 24.0591C21.7988 24.056 21.8506 24.1646 21.9065 24.2761C22.007 24.4782 21.9451 24.5666 21.8334 24.7415L21.4516 25.3375C21.2637 25.1968 21.2627 25.4852 21.2109 25.5455C21.1144 25.6259 21.0474 25.6902 20.9469 25.7948L20.6564 26.0993C20.5884 26.1033 20.5447 26.0973 20.5173 26.1194C20.4868 26.1445 20.4655 26.242 20.4726 26.3234C20.4747 26.3566 20.3619 26.3325 20.3518 26.235C20.2157 26.3807 20.2645 26.4912 20.3487 26.645L20.6178 27.1415L21.2413 28.1174C21.286 27.845 21.1845 27.5998 21.1205 27.3887L21.8303 25.839L21.9603 25.5505L22.3015 24.7525L22.7869 23.7565L23.2286 22.9857C23.4764 22.5545 23.7526 22.252 24.1812 22.0228C24.6097 21.7937 24.9092 21.8309 25.3754 21.8831L27.3322 22.1012L28.7254 22.3545L29.2128 22.5857L29.5175 22.8098C29.3865 22.9646 29.5591 23.1927 29.5307 23.3133C29.4596 23.6078 29.093 23.5083 28.8859 23.5033L27.583 23.4691L27.4672 23.5405C27.4388 23.5585 27.3677 23.5043 27.3281 23.4651C27.1118 23.6199 26.9148 23.2369 26.7706 23.5535C26.6041 23.4118 26.3451 23.4751 26.1603 23.4992L25.942 23.5274L25.5256 23.6249C25.4393 23.645 25.2636 23.4359 25.1743 23.6078C25.0849 23.7797 24.9915 23.9616 24.8534 24.1153C24.9397 24.3616 24.7417 24.5385 24.6696 24.7284L24.4513 25.3003C24.4401 25.3304 24.3599 25.3596 24.3355 25.3676C24.303 25.3777 24.3619 25.5033 24.3385 25.5264C24.2197 25.5968 24.2492 25.8329 24.1984 25.9204C24.0887 26.1113 23.9344 26.2732 23.8988 26.5224L23.6592 27.0299C23.5485 27.2651 23.5241 27.5295 23.3759 27.7496C23.2693 27.9084 23.2946 28.1234 23.3789 28.2661L24.4848 27.2983L25.3591 26.6289L26.3218 25.9254C26.4203 25.853 26.6863 25.8611 26.794 25.9566L27.1423 26.2671C27.3068 26.4149 27.4002 26.5656 27.5627 26.6842C27.8003 26.8581 27.912 27.1686 28.4461 27.4712C28.5954 27.5556 28.7102 27.6681 28.8818 27.7435C29.4088 27.9767 29.9227 28.2018 30.5005 28.2581C30.8213 28.2893 31.124 28.3656 31.4662 28.2189L31.914 28.1355L32.5202 27.7375L32.8909 27.4581L33.2321 27.0742C33.4596 26.8179 33.8921 26.5445 34.0506 26.5837C34.1917 26.6179 34.2506 26.7134 34.3643 26.8068C34.7492 27.1224 34.5085 27.3184 34.339 27.8651L34.0841 28.2028L34.0861 28.3807C34.0861 28.439 33.9764 28.4812 33.9155 28.5094C33.9074 28.646 33.8586 28.7606 33.7388 28.844L33.486 29.0219L33.0747 29.3888C32.9569 29.4943 32.9112 29.5265 32.7325 29.5697C32.5121 29.6229 32.2887 29.8079 32.0359 29.8541C31.979 29.8792 31.9597 30.039 31.8409 29.9988C31.7728 29.9757 31.6723 30.0099 31.583 29.9365C31.5169 29.9285 31.4469 30.0732 31.4215 30.1305C31.2935 29.8642 31.1351 30.3526 30.8559 30.0883C30.8467 30.1436 30.8488 30.1958 30.8061 30.2421L30.799 30.2461Z" fill="black"/>
<path d="M18.9826 31.5527C18.9339 31.7266 18.873 31.7979 18.6912 31.8341C18.8435 31.9266 18.7592 31.9728 18.679 32.0492C18.5988 32.1256 18.5277 32.0271 18.4516 32.0452L17.9956 32.1507C17.956 32.1416 17.8727 32.0512 17.8362 32.0602C17.7966 32.0703 17.7661 32.1447 17.7245 32.217C17.6828 31.9045 17.3223 31.8029 17.0421 31.8864L16.8847 31.7225L16.641 31.7748L16.1759 31.2552C16.0581 31.2793 16.0246 31.225 15.9525 31.1487C15.7778 30.9637 15.5828 30.812 15.5016 30.5607C15.2995 30.4552 15.1797 30.2944 15.1624 30.0662C14.9421 29.9637 14.8182 29.7969 14.7999 29.5456C14.6344 29.4873 14.546 29.3627 14.5714 29.1758C14.3612 29.012 14.2769 28.7697 14.2404 28.5285C14.1205 28.5034 14.0637 28.4441 14.019 28.3396L13.6768 27.5506L13.5448 27.2371L13.2858 26.6159L13.0777 25.9275L13.1609 25.7757L13.0645 25.627C13.0929 25.3677 13.2117 25.026 13.4117 24.8561C13.5255 24.8611 13.6839 24.7958 13.7682 24.6953C13.9611 24.7707 14.1744 24.8682 14.3836 24.8209C14.4211 24.9496 14.544 24.9556 14.6547 24.9767C14.8486 25.1054 15.0142 25.3074 15.1655 25.4632L15.4092 25.7144C15.5026 25.8109 15.5229 25.9466 15.7088 25.9617C15.661 26.037 15.6438 26.1134 15.659 26.1516C15.6854 26.219 16.0154 26.1084 16.1474 26.6692C16.6999 26.9878 16.7638 27.4833 17.1264 27.7305C17.2838 27.8381 17.2777 27.9898 17.3701 28.1044C17.4889 28.2501 17.7986 28.3104 17.7874 28.5758C18.0047 28.7084 18.1692 28.9175 18.282 29.1708C18.7978 29.421 18.8781 29.822 19.2375 30.1446L19.2101 30.3336C19.3645 30.413 19.3777 30.5507 19.337 30.6974C19.3238 30.7467 19.3929 30.7989 19.4051 30.8301C19.4173 30.8612 19.3452 30.9346 19.3472 30.9688C19.3594 31.1266 19.2832 31.223 19.0974 31.2632C19.1248 31.4049 19.1624 31.5145 19.1248 31.6733C19.0913 31.6321 19.0801 31.5899 18.9816 31.5547L18.9826 31.5527Z" fill="black"/>
<path d="M6.15096 28.1807C6.69424 27.838 6.73588 28.04 6.90343 27.7616C6.92476 27.7264 7.00904 27.7606 7.06794 27.7224L7.60919 27.3747L8.17887 27.0038C8.27737 26.9395 8.48047 26.9324 8.53936 26.7596C8.61248 26.7606 8.712 26.7887 8.73434 26.7576L8.86025 26.5787L9.35479 26.3566L9.64014 26.1545C9.78332 26.053 9.89909 25.9787 10.0423 25.9013L11.0151 25.3777C10.9389 24.8731 11.0222 24.4249 11.0537 23.9354C11.075 23.6098 10.9552 23.246 11.1136 22.9424C11.1603 22.856 11.4365 22.8641 11.5086 22.9354C11.7168 23.1414 11.7493 23.4329 11.7818 23.7123L11.8894 24.64C11.9371 25.052 12.0367 25.4751 12.0235 25.8741L11.925 26.3857C11.8681 26.3797 11.8224 26.3837 11.796 26.4028C11.7442 26.44 11.7219 26.5013 11.7757 26.5988L11.6041 26.5737C11.6538 26.7666 11.5299 26.7927 11.4467 26.8721C11.2781 27.0319 11.1126 27.1907 10.8689 27.2822C10.8486 27.2892 10.8577 27.3505 10.941 27.3767C10.7216 27.3958 10.55 27.4963 10.4068 27.6812C10.3621 27.6842 10.2941 27.6802 10.2768 27.7043C10.2423 27.7546 10.2565 27.8129 10.2626 27.8963C10.1712 27.834 9.98236 27.7908 9.9722 27.8943L9.95798 28.043C9.95189 28.1063 9.83308 28.1305 9.74575 28.045L9.53047 28.4199C9.48782 28.3355 9.37307 28.3315 9.31214 28.4119C8.99328 28.83 8.6206 28.7506 8.52007 29.043C8.38095 29.1174 8.11693 29.1908 8.09459 29.3928L7.74323 29.5013C7.66098 29.5265 7.57669 29.6903 7.54217 29.7988C7.52592 29.7646 7.45991 29.6893 7.41015 29.6983C7.32993 29.8099 7.26494 29.9506 7.15019 29.9968C7.12481 29.9003 7.0456 29.9144 7.04966 29.9978C7.00803 30.0842 6.94507 30.1466 6.89023 30.2028C6.8354 30.2591 6.72369 30.1556 6.66784 30.1616C6.54395 30.2038 6.33781 30.3245 6.27485 30.434L6.18143 30.5978L5.99153 30.6069C5.8514 30.6139 5.78641 30.7978 5.70009 30.8973C5.64627 30.8521 5.57722 30.7978 5.53863 30.7988C5.50004 30.7998 5.45841 30.8983 5.44622 30.9295C5.29695 30.7255 5.34874 31.1114 5.14564 31.224C5.06034 31.2712 4.95778 31.2672 4.841 31.222L4.57292 31.4702C4.30483 31.3637 4.08244 31.5617 4.01136 31.839C3.93012 31.7898 3.91793 31.7215 3.87122 31.6581C3.85193 31.7385 3.83974 31.8009 3.81029 31.822C3.77069 31.8491 3.70265 31.827 3.64274 31.8019C3.56455 31.7697 3.5483 31.9235 3.54322 31.9396C3.44675 31.9345 3.40715 31.8561 3.37161 31.836C3.37161 31.836 2.94003 31.9265 2.78568 32.1004C2.7349 32.028 2.66585 31.9838 2.60594 31.9888C2.50236 31.9978 2.47291 32.1808 2.31754 32.2682C2.27489 32.2923 2.19467 32.1496 2.1439 32.1536C2.0525 32.1597 1.93674 32.0782 1.86769 32.0551C1.68287 31.9948 1.61585 31.9607 1.49704 31.7828C1.43408 31.6883 1.27566 31.6169 1.3173 31.427C1.32136 31.4099 1.29191 31.3627 1.2777 31.3617L1.17615 31.3506L1.04617 30.9335C0.997424 30.7747 0.879629 30.6139 0.962898 30.4531C1.04617 30.2923 0.882676 30.235 0.836979 30.1717C0.82784 30.0521 0.797376 29.9566 0.784174 29.827L0.720199 29.233C0.633884 29.0883 0.616621 29.0129 0.61459 28.8581C0.61459 28.7606 0.471408 28.633 0.606466 28.4933C0.628807 28.4702 0.632868 28.3847 0.631853 28.3556C0.630838 28.3264 0.532336 28.2963 0.523197 28.2651L0.394232 27.8129C0.384077 27.7757 0.437897 27.7385 0.447036 27.7154C0.462269 27.6762 0.39017 27.6229 0.392201 27.5787L0.403371 27.3586C0.287607 27.1536 0.342442 26.9515 0.325179 26.7485C0.312994 26.6028 0.246988 26.5073 0.270344 26.3294C0.280498 26.253 0.168796 26.1395 0.236833 26.0018C0.30487 25.8641 0.240895 25.6942 0.143409 25.5877L0.223632 25.2993C0.131223 25.2279 0.183013 25.1033 0.157626 25.0369C0.0895888 24.8591 0.0723258 24.3043 0.132239 24.1616L0.0499853 24.0128C0.0357686 23.9867 0.189105 23.7465 0.184028 23.7445L0.0560781 23.6872L0.0317067 23.2158C0.0154591 22.9043 0.0245984 22.6027 0.021552 22.3595L0.00835077 21.5012C0.00530434 21.3042 0.0774031 21.2409 0.0134281 21.057L0.00022696 20.4841C-0.0058659 20.2992 0.112945 20.1092 0.0885734 19.9826C0.0296758 19.6781 0.0581091 19.4057 0.0550627 19.1153L0.0499853 18.7112C0.0459234 18.3836 0.0418615 18.0771 0.0459234 17.7474L0.0682638 15.8087C0.0774031 15.7212 0.0987281 15.6569 0.103806 15.5444L0.153564 14.4157L0.242926 13.6257C0.261204 13.4649 0.236833 13.3222 0.260189 13.1614L0.461253 11.7835L0.593265 11.1121C0.647085 10.8368 0.702936 10.5744 0.748633 10.3011L0.824793 9.84881C0.862366 9.62569 0.93548 9.38548 1.01976 9.17744L1.19747 8.74025C1.28176 8.53221 1.84738 8.29904 2.21396 8.31311C2.77654 8.33522 2.98166 8.56437 3.1939 8.58145C3.58689 8.61261 3.78389 8.79251 3.93824 8.7905L4.52722 9.05784C4.81866 9.19051 5.08878 9.32518 5.35686 9.45282L6.10019 9.8076C6.27485 9.89102 6.41499 9.9282 6.58153 10.0629C6.6648 10.1302 6.80188 10.1342 6.89836 10.2277L7.19183 10.3192L7.21011 10.4257C7.22838 10.5322 7.5442 10.4237 7.69043 10.6649C7.91992 10.7292 8.17379 10.8649 8.39009 10.9895C8.53429 11.0719 8.67239 11.091 8.80643 11.1895C9.00445 11.3353 9.29082 11.3634 9.45329 11.5433C9.4929 11.4227 9.5721 11.4438 9.57312 11.5373L9.98946 11.8257L10.5368 12.3453C10.7044 12.5041 10.8689 12.8539 10.9115 13.086C11.0476 13.8207 10.8425 14.6529 10.9044 15.066C10.9369 15.2871 10.8242 15.6388 10.5673 15.7594C10.483 15.7986 10.2393 15.7263 10.2119 15.6147C10.0626 15.0026 10.0463 14.3805 9.99962 13.7554C9.96408 13.7514 9.87979 13.7855 9.85441 13.7735L9.58023 13.478L9.35682 13.5664C9.29082 13.5926 9.21973 13.4911 9.15474 13.4247C9.12529 13.4468 9.06843 13.5222 9.03695 13.5071C8.99937 13.4891 8.92118 13.4649 8.89377 13.4328C8.94759 13.4016 9.0014 13.3564 8.99633 13.3282C8.99125 13.2971 8.94352 13.2468 8.91509 13.2509C8.76277 13.269 8.66934 13.3745 8.6206 13.3353C8.59521 13.3152 8.58912 13.2569 8.59928 13.1966C8.32307 13.3152 8.35049 12.8579 8.04787 13.0298C8.01741 13.0468 7.97679 13.073 7.95648 13.0589C7.9382 13.0458 7.8793 12.9976 7.8722 12.9735C7.86306 12.9443 7.93719 12.9192 7.9575 12.8619C7.55029 12.9383 7.43148 12.672 7.20097 12.678C7.11262 12.4679 6.90242 12.4689 6.71049 12.4348L5.88796 12.0227C5.78032 11.9684 5.59855 11.9805 5.54676 11.8498C5.53051 11.8197 5.3985 11.8709 5.38225 11.8478L5.30913 11.7453C5.29187 11.7212 5.21977 11.7544 5.21165 11.7383L5.15884 11.6257C5.14057 11.5875 5.0837 11.5081 5.04105 11.5001C5.00449 11.493 4.94966 11.5634 4.93239 11.5956C4.85928 11.4167 4.69883 11.3815 4.53737 11.4398C4.54245 11.3805 4.54753 11.3423 4.53737 11.3192C4.49472 11.2337 4.36982 11.3684 4.31905 11.2729C4.30584 11.2478 4.3292 11.2066 4.40841 11.1875C4.2703 11.0699 4.08752 11.0368 3.89153 11.0277C3.89965 10.9543 3.90067 10.882 3.86919 10.887L3.66609 10.9192C3.38379 10.7644 3.32591 10.5493 3.22944 10.6237C3.21116 10.6378 3.17562 10.5765 3.1086 10.5503L3.03548 11.0126L2.97862 11.5473C2.95831 11.7403 2.93495 11.8267 2.97253 12.0056C3.00197 12.1453 2.92683 12.3926 2.9187 12.5503L2.8659 13.5232C2.85778 13.681 2.78669 13.8499 2.78974 14.0036C2.79279 14.1574 2.85371 14.3735 2.78872 14.5122C2.83137 14.5715 2.79279 14.678 2.79177 14.7293L2.78263 15.2499C2.77857 15.4841 2.69632 15.8197 2.71662 16.268L2.73795 16.7414C2.74303 16.864 2.74506 16.9534 2.65874 17.0509C2.69428 17.1042 2.73592 17.1625 2.73998 17.2097C2.74607 17.276 2.70342 17.3685 2.62929 17.4208C2.83747 17.5876 2.57852 17.6871 2.71662 17.8881L2.72069 18.2761C2.7217 18.4218 2.71155 18.5323 2.73287 18.6751L2.65265 18.867C2.62422 18.9344 2.72475 19.0047 2.78669 19.0771C2.80396 19.1052 2.73389 19.1876 2.71866 19.2168C2.69936 19.253 2.77755 19.3173 2.77552 19.3695L2.74404 20.061C2.73287 20.3012 2.88418 20.5685 2.81716 20.857C2.79989 20.9294 2.71358 21.0088 2.74607 21.1113C2.76435 21.1696 2.83442 21.2349 2.94714 21.2882C2.7806 21.4701 2.8395 21.5766 2.87098 21.7324C2.89941 21.8761 2.82427 22.046 2.94511 22.1645C2.81817 22.1806 2.85676 22.2942 2.93394 22.2671C3.03853 22.3123 2.93394 22.458 2.94815 22.5203C3.04056 22.9022 2.9644 23.3002 3.07103 23.5183C3.1218 23.6239 3.10251 23.6972 3.05173 23.7877L3.12992 23.9224C3.1482 23.9545 3.07103 24.0329 3.04361 24.0691C3.07407 24.1103 3.1614 24.1606 3.17562 24.2088C3.19898 24.2892 3.16953 24.3736 3.07001 24.455C3.23147 24.5234 3.23756 24.6068 3.24569 24.7616L3.28123 25.4239C3.55541 25.5264 3.20202 25.7294 3.39192 26.0953C3.53307 26.2721 3.53815 26.4822 3.48026 26.6933C3.67727 26.8842 3.69351 27.1385 3.51377 27.3274C3.72702 27.4722 3.8174 27.7184 3.63766 27.9315C3.80826 28.035 3.85497 28.1747 3.82654 28.3375L3.90575 28.4752C3.92199 28.5043 3.84482 28.5697 3.82248 28.6259C3.76764 28.7646 3.88747 28.9154 4.01847 28.9908C3.96769 29.1285 3.89356 29.232 3.81131 29.3395C3.85802 29.3797 3.86107 29.4089 3.86208 29.4491C3.86208 29.4782 3.94129 29.4511 3.95551 29.3998C4.08244 29.4139 4.12103 29.3254 4.22156 29.2802L4.75367 29.036L5.14869 28.7918C5.30913 28.6923 5.40053 28.6591 5.50817 28.5908L6.15706 28.1817L6.15096 28.1807Z" fill="black"/>
<path d="M4.55388 24.5206L4.47569 23.4452L4.43913 22.4814L4.38328 20.015L4.37008 18.3497C4.36907 18.1687 4.38531 18.0371 4.37008 17.8451C4.34673 17.5707 4.47366 17.1516 4.43304 16.8753C4.36399 16.4089 4.40765 15.9687 4.45437 15.4974C4.49295 15.1014 4.43304 14.6963 4.5488 14.3194C4.71027 13.7948 5.86486 13.6049 6.07405 13.7446C6.202 13.83 6.37158 13.8199 6.47212 13.8682C6.96868 14.1064 7.07226 14.5597 6.99509 15.032C6.95751 15.2582 6.97071 15.5024 6.9433 15.7376L6.89354 16.1647L6.89049 16.7145C6.89049 16.8923 6.92705 17.0903 6.93416 17.2722L6.96462 18.0401L6.98899 18.613C6.99102 18.6572 7.09156 18.7014 6.93619 19.1899L7.06109 19.4974C7.10983 19.618 7.01336 19.7788 7.09663 19.8622C7.26013 19.7195 7.33425 19.607 7.45103 19.4914L8.1446 18.81L8.63203 18.3064L9.29209 17.6511C9.52565 17.419 9.73992 17.2411 9.93997 17.029L10.1593 16.7969L10.9758 16.0722L12.305 14.9989C12.4218 14.9044 12.5294 14.822 12.6635 14.7265L13.8861 13.8591L14.2364 13.6561C14.9351 13.2521 16.0968 12.2963 16.5751 12.7837C16.5751 13.0099 16.3273 13.3998 16.1303 13.5194C15.9861 13.6069 15.9008 13.6199 15.7526 13.7436L15.4022 14.036L15.0519 14.3144C14.8173 14.5014 14.6386 14.5798 14.5076 14.7617C14.468 14.8159 14.1227 14.9788 13.7612 15.3235C13.7033 15.3788 13.5845 15.437 13.5642 15.5325C13.1986 15.6029 13.3124 15.8923 13.094 15.8401C13.0615 15.832 13.0372 15.9426 13.0534 16.0049C12.9326 15.9878 12.8716 16.1325 12.8026 16.1577C12.6655 16.2079 12.5802 16.3034 12.504 16.4391C12.2217 16.7315 11.9597 16.7285 11.9039 17.0451C11.8338 17.0542 11.7099 17.0743 11.6724 17.1124C11.6399 17.1456 11.6805 17.2501 11.6317 17.2893L11.2814 17.5728C11.1494 17.6793 11.0854 17.8532 10.9626 17.9748C10.7554 18.1818 10.6386 18.427 10.4761 18.6512C10.3309 18.8512 10.1441 18.9718 10.0324 19.2059L9.67391 19.6673L8.87778 20.8703L8.88286 20.9899C8.88286 21.012 8.80873 20.9979 8.78435 21.0381L8.58532 21.3748C8.48174 21.5497 8.17608 21.9145 8.13851 22.0592C8.10703 22.1819 7.64804 22.817 7.38706 23.2854L7.04586 23.8985C6.9829 24.012 7.04484 24.1025 6.96361 24.211C6.77676 24.4633 6.64272 25.2372 5.90243 25.4683C5.65567 25.5447 5.31752 25.5126 5.04233 25.4372C4.85751 25.3869 4.63004 25.0643 4.66965 24.8995C4.71331 24.7186 4.57115 24.6161 4.55693 24.5216L4.55388 24.5206Z" fill="black"/>
<path d="M19.6758 17.1461L19.5469 16.9651L19.4545 17.2033C19.422 17.1651 19.3671 17.0958 19.3326 17.0988C19.2981 17.1018 19.2473 17.1852 19.2331 17.2566C19.0473 16.9943 18.5273 17.1722 18.2917 17.4737C17.9566 17.4134 17.5637 17.4114 17.4215 17.6114C17.3819 17.6677 17.3859 17.5983 17.3453 17.4646L17.2326 17.6265C17.2143 17.5501 17.1544 17.526 17.1422 17.5471L17.061 17.6908C16.8579 17.3521 16.5238 17.6244 16.5035 17.3702L15.9866 17.3179L15.7957 17.3551C15.7155 17.3712 15.7104 16.9913 15.681 16.9772L15.5114 16.8958C15.3976 16.7199 15.5977 16.5139 15.6129 16.3661C15.6414 16.0898 15.7104 15.9219 15.9338 15.7621C16.0151 15.7048 16.0425 15.5973 16.206 15.5812L16.5248 15.3732C16.602 15.3229 16.6914 15.3802 16.7695 15.2807C16.8427 15.1872 17.0417 15.2204 17.125 15.1882C17.2123 15.0646 17.2956 15.0485 17.4306 14.9993C17.5261 14.9651 17.6002 14.8194 17.7546 14.9531L17.8307 14.7229C17.848 14.7551 17.8744 14.8013 17.8998 14.8103C17.9465 14.8274 17.9983 14.5269 18.3628 14.6706C18.439 14.4948 18.5568 14.4063 18.7548 14.4576C19.0006 14.2475 19.3184 14.0807 19.6149 14.0103C19.62 13.9752 19.6515 13.9189 19.6637 13.9249C19.6829 13.9339 19.7134 13.9711 19.7469 14.0023C19.8089 13.8988 19.8576 13.8103 19.9896 13.8143C19.9866 13.7601 19.9825 13.7239 19.9967 13.7008C20.016 13.6696 20.1653 13.7008 20.1998 13.6877L20.7482 13.4787C20.9157 13.4143 21.0071 13.3219 21.1686 13.2455L21.8246 12.9309C22.047 12.8244 22.2948 12.6043 22.5679 12.6455C22.6969 12.6646 22.8045 12.4797 22.9284 12.4646C23.0817 12.4455 23.165 12.4023 23.3102 12.3189C23.3793 12.2797 23.5336 12.2656 23.5834 12.1661C23.8078 12.2636 23.9784 12.1611 24.147 11.9289C24.2577 12.0706 24.3359 11.9832 24.4679 11.9199C24.542 11.8837 24.6781 11.945 24.7522 11.8013C24.8192 11.8575 24.868 11.9088 24.9137 11.9008C24.9908 11.8867 25.0853 11.8435 25.1574 11.75C25.2711 11.9229 25.4214 11.8535 25.5788 11.8254C25.6824 11.9088 25.789 12.1098 25.9759 12.0666C26.2876 11.9952 26.2297 12.4374 26.7273 12.4204C26.7314 12.5912 26.6684 12.7098 26.6308 12.8495C26.7182 12.8817 26.775 12.9189 26.8177 12.9731C26.8502 13.0143 26.8157 13.1199 26.8136 13.1802C26.8999 13.2395 27.0492 13.3279 27.0015 13.4566C26.9598 13.5701 27.0015 13.6515 27.0472 13.7229C26.9588 13.8505 26.7781 13.9108 26.6197 13.9731C26.6501 14.1028 26.6979 14.1983 26.6593 14.346C26.644 14.3249 26.6156 14.2696 26.5841 14.2636C26.5415 14.2546 26.5009 14.3189 26.4917 14.3621C26.4846 14.3953 26.4653 14.4485 26.5648 14.4837C26.3424 14.6375 26.2074 14.7088 26.0175 14.55C26.0012 14.751 25.7849 14.9953 25.6387 14.9973C25.5717 15.0073 25.4986 15.135 25.3899 15.1852L25.3584 15.0234C25.2894 15.1088 25.2721 15.135 25.2102 15.1581C25.1716 15.1722 24.6913 14.9551 24.4912 15.2586L24.4567 15.4083C24.4303 15.5199 24.147 15.3661 24.0464 15.6063C24.016 15.545 23.9916 15.4928 23.9642 15.4717C23.9642 15.4717 23.6971 15.4425 23.6535 15.4908C23.621 15.5279 23.687 15.6305 23.6829 15.6676C23.6169 15.74 23.4554 15.7661 23.4361 15.8908C23.3691 15.7762 23.4412 15.7259 23.4473 15.6676C23.4097 15.6566 23.3874 15.6596 23.3742 15.6596L23.2798 15.9109C23.2625 15.9109 23.1863 15.8877 23.1742 15.9008C23.1579 15.9189 23.2178 15.9772 23.1163 16.0144L23.0513 15.8234L22.8198 16.0928L22.637 16.0073C22.5892 15.9852 22.5263 16.0536 22.506 16.146C22.3039 15.9139 22.3232 16.4355 22.1333 16.2285C22.0947 16.2124 22.0429 16.2727 22.0236 16.2847C21.9972 16.3018 21.9424 16.2536 21.9414 16.2104C21.8652 16.2817 21.8632 16.334 21.8449 16.4325C21.8094 16.3983 21.7799 16.3671 21.7515 16.3531C21.7301 16.343 21.6865 16.3561 21.6621 16.4234C21.6489 16.3822 21.6601 16.329 21.6032 16.2606C21.5707 16.3903 21.5575 16.5048 21.394 16.6204C21.3757 16.4817 21.3351 16.4154 21.2001 16.4345C21.1168 16.4465 21.0508 16.4928 21.0335 16.6476C20.936 16.6204 20.8629 16.6023 20.7888 16.6114C20.7208 16.6194 20.6751 16.7179 20.6141 16.8265C20.5248 16.7883 20.5573 16.6978 20.4517 16.6184C20.4171 16.7229 20.3582 16.9008 20.2445 16.9018C20.1216 16.9028 20.0252 16.8586 19.9541 17.0305C19.8992 16.9561 19.8424 16.943 19.7957 16.9712C19.7327 17.0094 19.7022 17.0395 19.6809 17.1471L19.6758 17.1461Z" fill="black"/>
<path d="M17.3136 5.7698L17.1034 5.88337C17.1877 5.92859 17.1928 5.96678 17.205 5.98488C17.2172 6.00297 17.2151 6.05422 17.1735 6.06829C17.141 6.07935 17.0821 6.04618 17.0587 5.95472C16.9846 6.15372 16.8414 6.24719 16.8455 6.57483C16.7389 6.5095 16.7236 6.42207 16.7104 6.48337C16.682 6.61704 16.4424 6.60398 16.486 6.84117C16.5043 6.94368 16.4403 7.00599 16.3154 7.02006C16.3835 7.05926 16.4525 7.10951 16.418 7.22409L16.2159 7.1065C16.1103 7.24921 16.1245 7.40198 16.2261 7.58088C15.8341 7.63314 15.6188 7.92862 15.6218 8.29546L15.3223 8.79798C15.306 8.82511 15.1821 8.81406 15.2329 8.89547C15.2735 8.96079 15.2014 9.02311 15.1832 9.0211C15.1659 9.01909 15.1375 8.96883 15.1405 8.92059C15.1009 8.92863 15.0816 8.95878 15.0613 8.97285C15.0349 8.98994 15.0958 9.06833 15.0897 9.11657C15.0633 9.30351 14.8389 9.44321 14.6876 9.42512C14.7556 9.58995 14.6287 9.76281 14.6003 9.91357C14.3007 9.98593 14.1169 10.2593 14.2002 10.5699C14.0956 10.5729 14.0925 10.4814 14.0722 10.4663C14.0519 10.4513 14.0133 10.5498 13.9869 10.5598C13.8681 10.603 13.8651 10.7337 13.8285 10.807C13.7432 10.9799 13.5767 11.0975 13.532 11.3025C13.4112 11.3246 13.2629 11.3699 13.1847 11.4513C13.1776 11.4945 13.1918 11.6121 13.1451 11.6412L12.6536 11.5659C12.485 11.5397 12.3307 11.6442 12.1449 11.5628C12.1073 11.5468 12.0179 11.598 11.9895 11.5739C11.8209 11.4282 11.9854 11.1498 11.7285 11.0372C11.8636 10.9015 11.7661 10.6613 11.8098 10.5196C12.0707 9.68241 12.3947 8.88944 12.7745 8.10048L12.9826 7.55977C13.009 7.49042 13.1603 7.42308 13.1207 7.28539C13.074 7.1266 13.271 7.03514 13.2974 6.93966C13.3401 6.78187 13.3584 6.65725 13.5452 6.59996L13.6264 6.15975C13.792 6.00096 13.8285 5.84517 13.924 5.66728C13.9737 5.57482 14.057 5.49241 14.0732 5.36778C14.12 5.02104 14.3789 4.93159 14.4094 4.57481L14.5201 4.47531C14.5414 4.45621 14.5099 4.38887 14.4256 4.33762C14.583 4.30244 14.581 4.18887 14.6399 4.08435L14.9202 3.58786C15.106 3.25821 15.3274 2.95971 15.1893 2.83106L15.3781 2.79488C15.438 2.78383 15.4736 2.66825 15.4411 2.63609C15.3731 2.56774 15.4259 2.52654 15.4472 2.48935C15.4929 2.40794 15.565 2.37377 15.6645 2.44513C15.9306 2.25015 15.8981 2.0602 16.089 2.00894C16.2799 1.95769 16.4535 2.18583 16.4698 1.96472C16.5906 1.89336 16.811 1.7617 16.9572 1.83306C17.0323 1.88733 17.1339 1.93759 17.2293 1.97678L17.3197 2.14261C17.3746 2.24412 17.6548 2.03608 17.8336 2.1808C17.9442 2.27025 17.991 2.3396 17.9859 2.51046C18.0184 2.47126 18.0336 2.44211 18.0641 2.42804C18.0813 2.42 18.2905 2.52553 18.2915 2.52955C18.2956 2.58785 18.1971 2.8381 18.2712 2.8572L18.4225 2.8974C18.3636 2.98785 18.2966 3.07931 18.3098 3.18383C18.3301 3.35871 18.5759 3.42504 18.5332 3.61198C18.5251 3.64515 18.4764 3.64113 18.4124 3.64515L18.1788 3.95168C18.0955 4.06023 18.2215 4.25118 18.2286 4.34867C18.1656 4.43008 18.0306 4.49842 18.0407 4.65219L18.0854 4.71853C18.0549 4.6743 18.0113 4.71853 18.0559 4.74767L18.0052 4.69642C17.9899 4.64918 17.9473 4.59692 17.8904 4.58385C17.8396 4.57179 17.7635 4.68436 17.729 4.76275C17.8417 4.8532 17.8204 5.06225 17.7117 5.12858L17.6122 5.03913C17.5594 4.9919 17.5188 5.2512 17.4274 5.46024C17.4903 5.50045 17.5167 5.54668 17.4964 5.5708L17.3603 5.72557L17.3146 5.7698H17.3136ZM17.3126 5.7115C17.3157 5.67834 17.3289 5.63613 17.2923 5.56979C17.2365 5.61301 17.2405 5.69844 17.2852 5.73965L17.3136 5.71251L17.3126 5.7115Z" fill="black"/>
<path d="M66.5882 38.0947L67.9206 37.7779L70.5363 34.5585C70.5988 34.3371 70.2104 33.9776 69.9426 33.8963L68.7687 34.8652C68.088 35.4278 67.1506 35.698 66.2468 35.5903C65.3429 35.4827 64.4368 35.3222 63.5418 35.0195L62.6379 34.7149C60.7565 34.0811 59.047 33.2585 57.4959 32.0886C56.0296 30.9836 57.3062 28.7879 58.0204 26.9721L58.3708 26.0824L58.835 24.945L59.2969 23.7141L59.8817 21.9287L60 21.3295C60.145 20.6044 59.9955 19.7919 59.7321 19.0789C59.6764 18.9266 59.259 18.9429 59.1251 19.0099C59.1162 19.7756 59.0805 20.5434 58.7859 21.2767L57.8262 23.6734C57.574 24.3031 57.2169 24.7581 56.804 25.2842L55.0253 27.5611L54.4964 28.2923C53.925 29.0804 53.7956 29.9173 53.7041 30.8211C53.6282 31.5747 53.5322 32.2165 53.9027 32.9051C54.4517 33.9227 55.0588 34.7271 56.1657 35.3059C56.4202 35.438 56.6143 35.5781 56.9513 35.5944C57.2013 35.6066 57.6499 35.8117 57.8887 35.9072L58.4556 36.1347L59.5938 36.5023L61.9483 37.1381C62.9928 37.4204 63.9659 37.6865 65.0193 37.849L66.5838 38.0907L66.5882 38.0947Z" fill="black"/>
<path d="M63.6436 19.2266C64.2112 18.599 62.834 17.4374 62.0827 16.4066L60.9872 14.9021L60.3737 14.1415L59.2364 12.5559C59.0986 12.3647 59.0194 12.0821 59.0381 11.8993C59.1633 12.0219 59.2802 12.1154 59.3741 12.0925C59.4471 12.0738 59.5285 12.0094 59.6224 11.8951C59.708 12.2359 59.9459 12.2027 60.2547 12.2754L62.329 12.7596L64.1632 13.2064L69.4448 14.7899L71.1435 15.4445L72.4101 15.9806C72.815 16.0409 73.1927 16.3401 73.4869 16.5708C73.61 16.575 73.8563 16.4627 73.9397 16.55L74.1881 16.8056C74.3738 16.9989 74.6701 17.0051 74.8767 17.109L76.5649 17.9673C76.6484 18.0109 76.8508 17.9112 76.8633 17.9818C76.8716 18.04 76.9134 18.2374 76.9948 18.227L77.3328 18.1896L77.5811 18.4556C77.8921 18.4951 78.1905 18.7632 78.4409 18.9066C78.6913 19.05 78.8854 18.9772 79.0043 19.2536C79.2756 19.8812 77.4831 22.431 76.8612 22.9984L74.8558 24.8292L74.0837 25.4089L72.4686 26.4251L71.4627 27.1151L70.3109 27.6554C69.9853 27.14 70.0375 26.6059 69.9916 26.0781L69.8392 24.2992L69.7078 21.9655C69.7015 21.8699 69.5784 21.6642 69.6786 21.5686C69.6201 21.6227 71.4732 21.2943 72.3684 21.3442L72.4206 22.9921C72.4247 23.1106 72.2098 23.1438 72.1576 23.096C72.1055 23.0482 72.0345 22.9339 72.0512 22.7947C72.1034 22.325 71.4148 21.8014 71.1289 22.0591C70.7512 22.6638 70.7157 23.5594 71.1038 24.0623L71.9531 25.1637C72.1076 25.3653 72.3329 25.5814 72.5103 25.6084C72.7336 25.6417 72.9861 25.5731 73.1697 25.4235L74.2381 24.5507C74.7181 23.9543 75.1021 23.1729 75.2419 22.4102L75.6175 20.3633C75.6989 19.9145 75.4965 19.5633 75.3838 19.1934C75.2043 18.6032 74.7807 18.4141 74.1714 18.3871L73.1071 18.3413C72.6898 18.4452 71.5942 18.4993 70.7324 18.5824L69.6681 18.6863L68.9586 18.6925C68.5601 18.6967 68.3868 18.8131 68.1072 19.1643L67.1306 19.5986C67.0158 19.6505 66.9825 19.7461 66.9094 19.7711C66.8239 19.8002 66.9574 20.0308 66.9637 20.0953C66.4149 20.8392 66.8489 21.4169 66.5735 21.899C66.7988 22.2835 66.6757 22.7802 66.6966 23.1958C66.7195 23.6592 67.0054 24.1226 67.1327 24.5486L67.4207 25.5066C67.5939 26.0864 67.9758 27.0901 67.9507 27.3935C67.9298 27.6533 68.295 28.0149 68.3514 28.2809C68.4703 28.8336 68.7854 29.1765 69.0463 29.6566C69.2236 29.9828 69.2362 30.5543 69.7537 30.6748C69.977 30.7268 70.4444 30.5896 70.6468 30.4961C70.7386 30.3216 70.9494 30.334 71.0621 30.2551C71.2666 30.1075 71.396 29.8353 71.6944 29.935C72.0324 30.0493 72.2328 29.8311 72.4623 29.7044L73.7811 28.9833L74.8183 28.3349C75.1375 28.1354 75.3921 28.1686 75.5716 27.7634C75.6571 27.5702 76.1434 27.4288 76.3458 27.3208C76.9176 27.0132 77.4059 26.5228 77.9484 26.0947C78.9709 25.2905 79.7723 24.3595 80.4463 23.254L82.3035 20.2137C82.3891 20.0724 82.2972 19.8396 82.627 19.8313C82.2639 19.4926 82.6979 18.9918 82.5998 18.7466C82.4746 18.4847 82.2346 18.1169 82.17 17.8468L80.2418 16.469C79.9455 16.257 79.6137 15.8227 79.2506 15.8123C78.8875 15.8019 78.7873 15.644 78.4847 15.5006L74.6409 13.6636L72.6376 12.8053C72.143 12.5933 71.444 12.4084 71.1623 11.9803C70.987 11.7143 70.7887 11.7579 70.5592 11.6083C69.9665 11.2218 69.3676 11.0929 68.7395 10.7895L65.5426 9.23721L62.2872 7.71189L59.9584 6.73311C58.8253 6.25722 57.6817 5.87278 56.4234 5.86239C55.9748 5.50703 55.4218 5.49249 54.8771 5.48833C54.2052 5.36364 53.4873 5.5673 53.1472 6.14501C52.807 6.72272 52.446 7.28173 52.6923 8.0049L53.3726 8.63872C53.575 8.99407 53.7064 9.32865 54.0466 9.58425C54.2177 10.1204 54.4931 10.6046 54.9335 10.9558C54.8229 11.4774 55.1839 11.7455 55.3863 12.0821C55.5887 12.4188 55.6972 12.6952 55.9706 12.9902L57.2122 14.3306L58.2118 15.3011L58.6479 15.9723C59.2677 16.3401 59.6913 16.8077 60.2151 17.2732L61.3482 18.2852C61.561 18.4743 61.8198 18.5201 61.8887 18.8505C62.3749 18.784 62.4896 19.848 63.6603 19.2308L63.6436 19.2266Z" fill="#010100"/>
<path d="M63.6454 19.232C63.7101 19.3214 63.7852 19.2985 63.8541 19.2965C64.0336 19.2881 63.9292 19.1157 63.9793 19.0408C64.2276 18.6689 63.9981 18.3031 63.7247 17.9415C62.8337 16.7653 61.8779 14.1656 62.3454 14.3797C62.385 14.3984 62.4393 14.4566 62.4914 14.5459C62.7586 14.4503 62.9631 14.6478 63.1091 14.7641C63.5348 14.627 64.0294 14.8431 64.4447 14.974C64.6972 15.053 65.029 14.974 65.223 15.2047C65.3879 15.4021 65.7698 15.2837 66.0035 15.2068C66.0306 15.3231 66.0974 15.4686 66.16 15.4894C66.7693 15.3896 67.3703 15.5912 67.9045 15.7907C68.0923 15.8447 68.1153 15.8884 68.3532 15.9694L69.3006 16.2874C69.3486 16.304 69.3694 16.4141 69.3673 16.4619C69.3632 16.624 69.4133 16.4952 69.599 16.3144C69.816 16.4121 69.9162 16.6365 70.0831 16.8921C70.1436 16.7799 70.3544 16.6136 70.4462 16.6697C70.5192 16.8214 70.6591 17.0521 70.8093 17.0646C70.9053 17.0729 71.0806 16.9316 71.2079 17.075L71.5 17.4033L71.861 17.3555L72.3493 17.9873C72.7124 17.8667 72.9921 18.0517 73.0985 18.3447L74.1627 18.3904C74.7721 18.4153 75.1957 18.6044 75.3752 19.1967C75.4878 19.5666 75.6903 19.9178 75.6089 20.3667L75.2333 22.4136C75.0934 23.1763 74.7095 23.9576 74.2295 24.554L73.1611 25.4268C72.9795 25.5765 72.725 25.645 72.5017 25.6118C72.3243 25.5848 72.0989 25.3686 71.9445 25.1671L71.0952 24.0657C70.7071 23.5628 70.7425 22.6671 71.1202 22.0624C71.4061 21.8047 72.0948 22.3284 72.0426 22.798C72.028 22.9373 72.0989 23.0536 72.149 23.0994C72.2012 23.1472 72.4161 23.1139 72.4119 22.9955L72.3598 21.3475C71.4646 21.2977 69.6115 21.626 69.6699 21.572C69.5677 21.6676 69.6929 21.8733 69.6991 21.9689L69.8306 24.3026L69.9829 26.0814C70.0289 26.6113 69.9767 27.1433 70.3022 27.6587L71.4541 27.1184L72.4599 26.4285L74.0751 25.4123L74.8472 24.8325L76.8526 23.0017C77.4744 22.4344 79.267 19.8825 78.9957 19.257C78.8768 18.9785 78.6743 19.0492 78.4323 18.9099C78.1902 18.7707 77.8834 18.4964 77.5725 18.459L77.3242 18.193L76.9861 18.2304C76.9048 18.2387 76.8651 18.0434 76.8547 17.9852C76.8442 17.9145 76.6397 18.0143 76.5563 17.9706L74.8681 17.1124C74.6636 17.0085 74.3672 17.0022 74.1794 16.809L73.9311 16.5534C73.8476 16.4682 73.6014 16.5783 73.4783 16.5741C73.184 16.3414 72.8084 16.0442 72.4015 15.984L71.1348 15.4478L69.4362 14.7932L64.1546 13.2097L62.3203 12.7629L60.2461 12.2787C59.9372 12.206 59.6994 12.2392 59.6138 11.8984C59.522 12.0127 59.4406 12.0792 59.3655 12.0959C59.2716 12.1187 59.1547 12.0252 59.0295 11.9026C59.0107 12.0855 59.09 12.3681 59.2277 12.5593L60.365 14.1449L60.9785 14.9054L62.0741 16.41C62.8253 17.4407 64.2026 18.6024 63.635 19.23L63.6454 19.232Z" fill="#C0E238"/>
</g>
<defs>
<clipPath id="clip0_4302_3397">
<rect width="75" height="76" fill="white"/>
</clipPath>
</defs>
</svg>
